<?xml version="1.0" encoding="utf-8" standalone="no"?>
<!DOCTYPE svg PUBLIC "-//W3C//DTD SVG 1.1//EN"
  "http://www.w3.org/Graphics/SVG/1.1/DTD/svg11.dtd">
<svg xmlns:xlink="http://www.w3.org/1999/xlink" width="864pt" height="360pt" viewBox="0 0 864 360" xmlns="http://www.w3.org/2000/svg" version="1.1">
 <metadata>
  <rdf:RDF xmlns:dc="http://purl.org/dc/elements/1.1/" xmlns:cc="http://creativecommons.org/ns#" xmlns:rdf="http://www.w3.org/1999/02/22-rdf-syntax-ns#">
   <cc:Work>
    <dc:type rdf:resource="http://purl.org/dc/dcmitype/StillImage"/>
    <dc:date>2023-12-05T18:39:12.951364</dc:date>
    <dc:format>image/svg+xml</dc:format>
    <dc:creator>
     <cc:Agent>
      <dc:title>Matplotlib v3.7.1, https://matplotlib.org/</dc:title>
     </cc:Agent>
    </dc:creator>
   </cc:Work>
  </rdf:RDF>
 </metadata>
 <defs>
  <style type="text/css">*{stroke-linejoin: round; stroke-linecap: butt}</style>
 </defs>
 <g id="figure_1">
  <g id="patch_1">
   <path d="M 0 360 
L 864 360 
L 864 0 
L 0 0 
z
" style="fill: #ffffff"/>
  </g>
  <g id="axes_1">
   <g id="patch_2">
    <path d="M 50.042 308.792 
L 853.2 308.792 
L 853.2 28.32 
L 50.042 28.32 
z
" style="fill: #ffffff"/>
   </g>
   <g id="PolyCollection_1">
    <defs>
     <path id="mfbcea0b131" d="M 575.575617 -71.271369 
L 575.575617 -71.271369 
L 578.971634 -67.767026 
L 582.367651 -66.034723 
L 585.763668 -65.982222 
L 589.159685 -66.955811 
L 592.555702 -68.069306 
L 595.951719 -69.543683 
L 599.347736 -72.324698 
L 602.743753 -73.515128 
L 606.13977 -74.123301 
L 609.535786 -73.98903 
L 612.931803 -72.009805 
L 616.32782 -69.552132 
L 619.723837 -69.971368 
L 623.119854 -67.436932 
L 626.515871 -72.32961 
L 629.911888 -69.283908 
L 633.307905 -68.725794 
L 636.703922 -67.873179 
L 640.099939 -65.441653 
L 643.495956 -63.97875 
L 646.891973 -63.479857 
L 650.287989 -64.235627 
L 653.684006 -64.131888 
L 657.080023 -63.584361 
L 660.47604 -63.639978 
L 663.872057 -63.727552 
L 667.268074 -64.644969 
L 670.664091 -65.957261 
L 674.060108 -67.541438 
L 677.456125 -71.103116 
L 680.852142 -73.863043 
L 684.248159 -72.463173 
L 687.644175 -71.649998 
L 691.040192 -71.402122 
L 694.436209 -69.843042 
L 697.832226 -67.798611 
L 701.228243 -68.272119 
L 704.62426 -71.73318 
L 708.020277 -76.156249 
L 711.416294 -77.499242 
L 714.812311 -71.940462 
L 718.208328 -69.350425 
L 721.604345 -66.259187 
L 725.000362 -63.294027 
L 728.396378 -62.035101 
L 731.792395 -61.960247 
L 735.188412 -61.630154 
L 738.584429 -61.359489 
L 741.980446 -60.19723 
L 745.376463 -60.90123 
L 748.77248 -62.526656 
L 752.168497 -63.543857 
L 755.564514 -67.01747 
L 758.960531 -69.273403 
L 762.356548 -71.09522 
L 765.752564 -72.87355 
L 769.148581 -74.303143 
L 772.544598 -72.967174 
L 775.940615 -69.69727 
L 779.336632 -69.179295 
L 782.732649 -68.467194 
L 786.128666 -68.28499 
L 789.524683 -69.075387 
L 792.9207 -68.267482 
L 796.316717 -66.567181 
L 799.712734 -66.72512 
L 803.108751 -64.219704 
L 806.504767 -62.281271 
L 809.900784 -62.096272 
L 813.296801 -62.453446 
L 816.692818 -61.47071 
L 816.692818 -61.47071 
L 816.692818 -89.945646 
L 813.296801 -90.570773 
L 809.900784 -94.610839 
L 806.504767 -96.814004 
L 803.108751 -102.454244 
L 799.712734 -107.259516 
L 796.316717 -106.446702 
L 792.9207 -108.234152 
L 789.524683 -111.619268 
L 786.128666 -103.39642 
L 782.732649 -97.899268 
L 779.336632 -98.41523 
L 775.940615 -105.644181 
L 772.544598 -107.417668 
L 769.148581 -104.234801 
L 765.752564 -102.796735 
L 762.356548 -102.078837 
L 758.960531 -95.473717 
L 755.564514 -84.126065 
L 752.168497 -76.472304 
L 748.77248 -75.130062 
L 745.376463 -76.131689 
L 741.980446 -77.595783 
L 738.584429 -80.733105 
L 735.188412 -84.08648 
L 731.792395 -83.543798 
L 728.396378 -82.274068 
L 725.000362 -82.935632 
L 721.604345 -90.515974 
L 718.208328 -96.923032 
L 714.812311 -103.385504 
L 711.416294 -111.068134 
L 708.020277 -101.101574 
L 704.62426 -90.108809 
L 701.228243 -86.239863 
L 697.832226 -86.005879 
L 694.436209 -89.040336 
L 691.040192 -93.387874 
L 687.644175 -97.211715 
L 684.248159 -101.197727 
L 680.852142 -100.171208 
L 677.456125 -92.790025 
L 674.060108 -81.1968 
L 670.664091 -73.85224 
L 667.268074 -71.839051 
L 663.872057 -71.392774 
L 660.47604 -73.081889 
L 657.080023 -74.207399 
L 653.684006 -75.967619 
L 650.287989 -79.592184 
L 646.891973 -79.537884 
L 643.495956 -80.694821 
L 640.099939 -86.041487 
L 636.703922 -90.894565 
L 633.307905 -94.688216 
L 629.911888 -104.570416 
L 626.515871 -101.394558 
L 623.119854 -94.315643 
L 619.723837 -88.19547 
L 616.32782 -88.739028 
L 612.931803 -91.941506 
L 609.535786 -97.787072 
L 606.13977 -99.222985 
L 602.743753 -99.208064 
L 599.347736 -98.059373 
L 595.951719 -93.084172 
L 592.555702 -82.488415 
L 589.159685 -76.584558 
L 585.763668 -75.963895 
L 582.367651 -76.650099 
L 578.971634 -78.133942 
L 575.575617 -79.148287 
z
" style="stroke: #8b0000; stroke-opacity: 0.3"/>
    </defs>
    <g clip-path="url(#p3bef03efb8)">
     <use xlink:href="#mfbcea0b131" x="0" y="360" style="fill: #8b0000; fill-opacity: 0.3; stroke: #8b0000; stroke-opacity: 0.3"/>
    </g>
   </g>
   <g id="matplotlib.axis_1">
    <g id="xtick_1">
     <g id="line2d_1">
      <defs>
       <path id="med1506a53e" d="M 0 0 
L 0 3.5 
" style="stroke: #000000; stroke-width: 0.8"/>
      </defs>
      <g>
       <use xlink:href="#med1506a53e" x="59.381047" y="308.792" style="stroke: #000000; stroke-width: 0.8"/>
      </g>
     </g>
     <g id="text_1">
      <!-- Mon -->
      <g transform="translate(48.838859 323.390438) scale(0.1 -0.1)">
       <defs>
        <path id="DejaVuSans-4d" d="M 628 4666 
L 1569 4666 
L 2759 1491 
L 3956 4666 
L 4897 4666 
L 4897 0 
L 4281 0 
L 4281 4097 
L 3078 897 
L 2444 897 
L 1241 4097 
L 1241 0 
L 628 0 
L 628 4666 
z
" transform="scale(0.015625)"/>
        <path id="DejaVuSans-6f" d="M 1959 3097 
Q 1497 3097 1228 2736 
Q 959 2375 959 1747 
Q 959 1119 1226 758 
Q 1494 397 1959 397 
Q 2419 397 2687 759 
Q 2956 1122 2956 1747 
Q 2956 2369 2687 2733 
Q 2419 3097 1959 3097 
z
M 1959 3584 
Q 2709 3584 3137 3096 
Q 3566 2609 3566 1747 
Q 3566 888 3137 398 
Q 2709 -91 1959 -91 
Q 1206 -91 779 398 
Q 353 888 353 1747 
Q 353 2609 779 3096 
Q 1206 3584 1959 3584 
z
" transform="scale(0.015625)"/>
        <path id="DejaVuSans-6e" d="M 3513 2113 
L 3513 0 
L 2938 0 
L 2938 2094 
Q 2938 2591 2744 2837 
Q 2550 3084 2163 3084 
Q 1697 3084 1428 2787 
Q 1159 2491 1159 1978 
L 1159 0 
L 581 0 
L 581 3500 
L 1159 3500 
L 1159 2956 
Q 1366 3272 1645 3428 
Q 1925 3584 2291 3584 
Q 2894 3584 3203 3211 
Q 3513 2838 3513 2113 
z
" transform="scale(0.015625)"/>
       </defs>
       <use xlink:href="#DejaVuSans-4d"/>
       <use xlink:href="#DejaVuSans-6f" x="86.279297"/>
       <use xlink:href="#DejaVuSans-6e" x="147.460938"/>
      </g>
      <!-- 2022-08-22 -->
      <g transform="translate(30.323234 334.58825) scale(0.1 -0.1)">
       <defs>
        <path id="DejaVuSans-32" d="M 1228 531 
L 3431 531 
L 3431 0 
L 469 0 
L 469 531 
Q 828 903 1448 1529 
Q 2069 2156 2228 2338 
Q 2531 2678 2651 2914 
Q 2772 3150 2772 3378 
Q 2772 3750 2511 3984 
Q 2250 4219 1831 4219 
Q 1534 4219 1204 4116 
Q 875 4013 500 3803 
L 500 4441 
Q 881 4594 1212 4672 
Q 1544 4750 1819 4750 
Q 2544 4750 2975 4387 
Q 3406 4025 3406 3419 
Q 3406 3131 3298 2873 
Q 3191 2616 2906 2266 
Q 2828 2175 2409 1742 
Q 1991 1309 1228 531 
z
" transform="scale(0.015625)"/>
        <path id="DejaVuSans-30" d="M 2034 4250 
Q 1547 4250 1301 3770 
Q 1056 3291 1056 2328 
Q 1056 1369 1301 889 
Q 1547 409 2034 409 
Q 2525 409 2770 889 
Q 3016 1369 3016 2328 
Q 3016 3291 2770 3770 
Q 2525 4250 2034 4250 
z
M 2034 4750 
Q 2819 4750 3233 4129 
Q 3647 3509 3647 2328 
Q 3647 1150 3233 529 
Q 2819 -91 2034 -91 
Q 1250 -91 836 529 
Q 422 1150 422 2328 
Q 422 3509 836 4129 
Q 1250 4750 2034 4750 
z
" transform="scale(0.015625)"/>
        <path id="DejaVuSans-2d" d="M 313 2009 
L 1997 2009 
L 1997 1497 
L 313 1497 
L 313 2009 
z
" transform="scale(0.015625)"/>
        <path id="DejaVuSans-38" d="M 2034 2216 
Q 1584 2216 1326 1975 
Q 1069 1734 1069 1313 
Q 1069 891 1326 650 
Q 1584 409 2034 409 
Q 2484 409 2743 651 
Q 3003 894 3003 1313 
Q 3003 1734 2745 1975 
Q 2488 2216 2034 2216 
z
M 1403 2484 
Q 997 2584 770 2862 
Q 544 3141 544 3541 
Q 544 4100 942 4425 
Q 1341 4750 2034 4750 
Q 2731 4750 3128 4425 
Q 3525 4100 3525 3541 
Q 3525 3141 3298 2862 
Q 3072 2584 2669 2484 
Q 3125 2378 3379 2068 
Q 3634 1759 3634 1313 
Q 3634 634 3220 271 
Q 2806 -91 2034 -91 
Q 1263 -91 848 271 
Q 434 634 434 1313 
Q 434 1759 690 2068 
Q 947 2378 1403 2484 
z
M 1172 3481 
Q 1172 3119 1398 2916 
Q 1625 2713 2034 2713 
Q 2441 2713 2670 2916 
Q 2900 3119 2900 3481 
Q 2900 3844 2670 4047 
Q 2441 4250 2034 4250 
Q 1625 4250 1398 4047 
Q 1172 3844 1172 3481 
z
" transform="scale(0.015625)"/>
       </defs>
       <use xlink:href="#DejaVuSans-32"/>
       <use xlink:href="#DejaVuSans-30" x="63.623047"/>
       <use xlink:href="#DejaVuSans-32" x="127.246094"/>
       <use xlink:href="#DejaVuSans-32" x="190.869141"/>
       <use xlink:href="#DejaVuSans-2d" x="254.492188"/>
       <use xlink:href="#DejaVuSans-30" x="290.576172"/>
       <use xlink:href="#DejaVuSans-38" x="354.199219"/>
       <use xlink:href="#DejaVuSans-2d" x="417.822266"/>
       <use xlink:href="#DejaVuSans-32" x="453.90625"/>
       <use xlink:href="#DejaVuSans-32" x="517.529297"/>
      </g>
      <!-- 16:00 -->
      <g transform="translate(44.971672 345.786063) scale(0.1 -0.1)">
       <defs>
        <path id="DejaVuSans-31" d="M 794 531 
L 1825 531 
L 1825 4091 
L 703 3866 
L 703 4441 
L 1819 4666 
L 2450 4666 
L 2450 531 
L 3481 531 
L 3481 0 
L 794 0 
L 794 531 
z
" transform="scale(0.015625)"/>
        <path id="DejaVuSans-36" d="M 2113 2584 
Q 1688 2584 1439 2293 
Q 1191 2003 1191 1497 
Q 1191 994 1439 701 
Q 1688 409 2113 409 
Q 2538 409 2786 701 
Q 3034 994 3034 1497 
Q 3034 2003 2786 2293 
Q 2538 2584 2113 2584 
z
M 3366 4563 
L 3366 3988 
Q 3128 4100 2886 4159 
Q 2644 4219 2406 4219 
Q 1781 4219 1451 3797 
Q 1122 3375 1075 2522 
Q 1259 2794 1537 2939 
Q 1816 3084 2150 3084 
Q 2853 3084 3261 2657 
Q 3669 2231 3669 1497 
Q 3669 778 3244 343 
Q 2819 -91 2113 -91 
Q 1303 -91 875 529 
Q 447 1150 447 2328 
Q 447 3434 972 4092 
Q 1497 4750 2381 4750 
Q 2619 4750 2861 4703 
Q 3103 4656 3366 4563 
z
" transform="scale(0.015625)"/>
        <path id="DejaVuSans-3a" d="M 750 794 
L 1409 794 
L 1409 0 
L 750 0 
L 750 794 
z
M 750 3309 
L 1409 3309 
L 1409 2516 
L 750 2516 
L 750 3309 
z
" transform="scale(0.015625)"/>
       </defs>
       <use xlink:href="#DejaVuSans-31"/>
       <use xlink:href="#DejaVuSans-36" x="63.623047"/>
       <use xlink:href="#DejaVuSans-3a" x="127.246094"/>
       <use xlink:href="#DejaVuSans-30" x="160.9375"/>
       <use xlink:href="#DejaVuSans-30" x="224.560547"/>
      </g>
     </g>
    </g>
    <g id="xtick_2">
     <g id="line2d_2">
      <g>
       <use xlink:href="#med1506a53e" x="140.885452" y="308.792" style="stroke: #000000; stroke-width: 0.8"/>
      </g>
     </g>
     <g id="text_2">
      <!-- Tue -->
      <g transform="translate(132.342484 323.390438) scale(0.1 -0.1)">
       <defs>
        <path id="DejaVuSans-54" d="M -19 4666 
L 3928 4666 
L 3928 4134 
L 2272 4134 
L 2272 0 
L 1638 0 
L 1638 4134 
L -19 4134 
L -19 4666 
z
" transform="scale(0.015625)"/>
        <path id="DejaVuSans-75" d="M 544 1381 
L 544 3500 
L 1119 3500 
L 1119 1403 
Q 1119 906 1312 657 
Q 1506 409 1894 409 
Q 2359 409 2629 706 
Q 2900 1003 2900 1516 
L 2900 3500 
L 3475 3500 
L 3475 0 
L 2900 0 
L 2900 538 
Q 2691 219 2414 64 
Q 2138 -91 1772 -91 
Q 1169 -91 856 284 
Q 544 659 544 1381 
z
M 1991 3584 
L 1991 3584 
z
" transform="scale(0.015625)"/>
        <path id="DejaVuSans-65" d="M 3597 1894 
L 3597 1613 
L 953 1613 
Q 991 1019 1311 708 
Q 1631 397 2203 397 
Q 2534 397 2845 478 
Q 3156 559 3463 722 
L 3463 178 
Q 3153 47 2828 -22 
Q 2503 -91 2169 -91 
Q 1331 -91 842 396 
Q 353 884 353 1716 
Q 353 2575 817 3079 
Q 1281 3584 2069 3584 
Q 2775 3584 3186 3129 
Q 3597 2675 3597 1894 
z
M 3022 2063 
Q 3016 2534 2758 2815 
Q 2500 3097 2075 3097 
Q 1594 3097 1305 2825 
Q 1016 2553 972 2059 
L 3022 2063 
z
" transform="scale(0.015625)"/>
       </defs>
       <use xlink:href="#DejaVuSans-54"/>
       <use xlink:href="#DejaVuSans-75" x="45.958984"/>
       <use xlink:href="#DejaVuSans-65" x="109.337891"/>
      </g>
      <!-- 2022-08-23 -->
      <g transform="translate(111.82764 334.58825) scale(0.1 -0.1)">
       <defs>
        <path id="DejaVuSans-33" d="M 2597 2516 
Q 3050 2419 3304 2112 
Q 3559 1806 3559 1356 
Q 3559 666 3084 287 
Q 2609 -91 1734 -91 
Q 1441 -91 1130 -33 
Q 819 25 488 141 
L 488 750 
Q 750 597 1062 519 
Q 1375 441 1716 441 
Q 2309 441 2620 675 
Q 2931 909 2931 1356 
Q 2931 1769 2642 2001 
Q 2353 2234 1838 2234 
L 1294 2234 
L 1294 2753 
L 1863 2753 
Q 2328 2753 2575 2939 
Q 2822 3125 2822 3475 
Q 2822 3834 2567 4026 
Q 2313 4219 1838 4219 
Q 1578 4219 1281 4162 
Q 984 4106 628 3988 
L 628 4550 
Q 988 4650 1302 4700 
Q 1616 4750 1894 4750 
Q 2613 4750 3031 4423 
Q 3450 4097 3450 3541 
Q 3450 3153 3228 2886 
Q 3006 2619 2597 2516 
z
" transform="scale(0.015625)"/>
       </defs>
       <use xlink:href="#DejaVuSans-32"/>
       <use xlink:href="#DejaVuSans-30" x="63.623047"/>
       <use xlink:href="#DejaVuSans-32" x="127.246094"/>
       <use xlink:href="#DejaVuSans-32" x="190.869141"/>
       <use xlink:href="#DejaVuSans-2d" x="254.492188"/>
       <use xlink:href="#DejaVuSans-30" x="290.576172"/>
       <use xlink:href="#DejaVuSans-38" x="354.199219"/>
       <use xlink:href="#DejaVuSans-2d" x="417.822266"/>
       <use xlink:href="#DejaVuSans-32" x="453.90625"/>
       <use xlink:href="#DejaVuSans-33" x="517.529297"/>
      </g>
      <!-- 16:00 -->
      <g transform="translate(126.476077 345.786063) scale(0.1 -0.1)">
       <use xlink:href="#DejaVuSans-31"/>
       <use xlink:href="#DejaVuSans-36" x="63.623047"/>
       <use xlink:href="#DejaVuSans-3a" x="127.246094"/>
       <use xlink:href="#DejaVuSans-30" x="160.9375"/>
       <use xlink:href="#DejaVuSans-30" x="224.560547"/>
      </g>
     </g>
    </g>
    <g id="xtick_3">
     <g id="line2d_3">
      <g>
       <use xlink:href="#med1506a53e" x="222.389858" y="308.792" style="stroke: #000000; stroke-width: 0.8"/>
      </g>
     </g>
     <g id="text_3">
      <!-- Wed -->
      <g transform="translate(211.489077 323.390438) scale(0.1 -0.1)">
       <defs>
        <path id="DejaVuSans-57" d="M 213 4666 
L 850 4666 
L 1831 722 
L 2809 4666 
L 3519 4666 
L 4500 722 
L 5478 4666 
L 6119 4666 
L 4947 0 
L 4153 0 
L 3169 4050 
L 2175 0 
L 1381 0 
L 213 4666 
z
" transform="scale(0.015625)"/>
        <path id="DejaVuSans-64" d="M 2906 2969 
L 2906 4863 
L 3481 4863 
L 3481 0 
L 2906 0 
L 2906 525 
Q 2725 213 2448 61 
Q 2172 -91 1784 -91 
Q 1150 -91 751 415 
Q 353 922 353 1747 
Q 353 2572 751 3078 
Q 1150 3584 1784 3584 
Q 2172 3584 2448 3432 
Q 2725 3281 2906 2969 
z
M 947 1747 
Q 947 1113 1208 752 
Q 1469 391 1925 391 
Q 2381 391 2643 752 
Q 2906 1113 2906 1747 
Q 2906 2381 2643 2742 
Q 2381 3103 1925 3103 
Q 1469 3103 1208 2742 
Q 947 2381 947 1747 
z
" transform="scale(0.015625)"/>
       </defs>
       <use xlink:href="#DejaVuSans-57"/>
       <use xlink:href="#DejaVuSans-65" x="93.001953"/>
       <use xlink:href="#DejaVuSans-64" x="154.525391"/>
      </g>
      <!-- 2022-08-24 -->
      <g transform="translate(193.332046 334.58825) scale(0.1 -0.1)">
       <defs>
        <path id="DejaVuSans-34" d="M 2419 4116 
L 825 1625 
L 2419 1625 
L 2419 4116 
z
M 2253 4666 
L 3047 4666 
L 3047 1625 
L 3713 1625 
L 3713 1100 
L 3047 1100 
L 3047 0 
L 2419 0 
L 2419 1100 
L 313 1100 
L 313 1709 
L 2253 4666 
z
" transform="scale(0.015625)"/>
       </defs>
       <use xlink:href="#DejaVuSans-32"/>
       <use xlink:href="#DejaVuSans-30" x="63.623047"/>
       <use xlink:href="#DejaVuSans-32" x="127.246094"/>
       <use xlink:href="#DejaVuSans-32" x="190.869141"/>
       <use xlink:href="#DejaVuSans-2d" x="254.492188"/>
       <use xlink:href="#DejaVuSans-30" x="290.576172"/>
       <use xlink:href="#DejaVuSans-38" x="354.199219"/>
       <use xlink:href="#DejaVuSans-2d" x="417.822266"/>
       <use xlink:href="#DejaVuSans-32" x="453.90625"/>
       <use xlink:href="#DejaVuSans-34" x="517.529297"/>
      </g>
      <!-- 16:00 -->
      <g transform="translate(207.980483 345.786063) scale(0.1 -0.1)">
       <use xlink:href="#DejaVuSans-31"/>
       <use xlink:href="#DejaVuSans-36" x="63.623047"/>
       <use xlink:href="#DejaVuSans-3a" x="127.246094"/>
       <use xlink:href="#DejaVuSans-30" x="160.9375"/>
       <use xlink:href="#DejaVuSans-30" x="224.560547"/>
      </g>
     </g>
    </g>
    <g id="xtick_4">
     <g id="line2d_4">
      <g>
       <use xlink:href="#med1506a53e" x="303.894264" y="308.792" style="stroke: #000000; stroke-width: 0.8"/>
      </g>
     </g>
     <g id="text_4">
      <!-- Thu -->
      <g transform="translate(294.502858 323.390438) scale(0.1 -0.1)">
       <defs>
        <path id="DejaVuSans-68" d="M 3513 2113 
L 3513 0 
L 2938 0 
L 2938 2094 
Q 2938 2591 2744 2837 
Q 2550 3084 2163 3084 
Q 1697 3084 1428 2787 
Q 1159 2491 1159 1978 
L 1159 0 
L 581 0 
L 581 4863 
L 1159 4863 
L 1159 2956 
Q 1366 3272 1645 3428 
Q 1925 3584 2291 3584 
Q 2894 3584 3203 3211 
Q 3513 2838 3513 2113 
z
" transform="scale(0.015625)"/>
       </defs>
       <use xlink:href="#DejaVuSans-54"/>
       <use xlink:href="#DejaVuSans-68" x="61.083984"/>
       <use xlink:href="#DejaVuSans-75" x="124.462891"/>
      </g>
      <!-- 2022-08-25 -->
      <g transform="translate(274.836452 334.58825) scale(0.1 -0.1)">
       <defs>
        <path id="DejaVuSans-35" d="M 691 4666 
L 3169 4666 
L 3169 4134 
L 1269 4134 
L 1269 2991 
Q 1406 3038 1543 3061 
Q 1681 3084 1819 3084 
Q 2600 3084 3056 2656 
Q 3513 2228 3513 1497 
Q 3513 744 3044 326 
Q 2575 -91 1722 -91 
Q 1428 -91 1123 -41 
Q 819 9 494 109 
L 494 744 
Q 775 591 1075 516 
Q 1375 441 1709 441 
Q 2250 441 2565 725 
Q 2881 1009 2881 1497 
Q 2881 1984 2565 2268 
Q 2250 2553 1709 2553 
Q 1456 2553 1204 2497 
Q 953 2441 691 2322 
L 691 4666 
z
" transform="scale(0.015625)"/>
       </defs>
       <use xlink:href="#DejaVuSans-32"/>
       <use xlink:href="#DejaVuSans-30" x="63.623047"/>
       <use xlink:href="#DejaVuSans-32" x="127.246094"/>
       <use xlink:href="#DejaVuSans-32" x="190.869141"/>
       <use xlink:href="#DejaVuSans-2d" x="254.492188"/>
       <use xlink:href="#DejaVuSans-30" x="290.576172"/>
       <use xlink:href="#DejaVuSans-38" x="354.199219"/>
       <use xlink:href="#DejaVuSans-2d" x="417.822266"/>
       <use xlink:href="#DejaVuSans-32" x="453.90625"/>
       <use xlink:href="#DejaVuSans-35" x="517.529297"/>
      </g>
      <!-- 16:00 -->
      <g transform="translate(289.484889 345.786063) scale(0.1 -0.1)">
       <use xlink:href="#DejaVuSans-31"/>
       <use xlink:href="#DejaVuSans-36" x="63.623047"/>
       <use xlink:href="#DejaVuSans-3a" x="127.246094"/>
       <use xlink:href="#DejaVuSans-30" x="160.9375"/>
       <use xlink:href="#DejaVuSans-30" x="224.560547"/>
      </g>
     </g>
    </g>
    <g id="xtick_5">
     <g id="line2d_5">
      <g>
       <use xlink:href="#med1506a53e" x="385.39867" y="308.792" style="stroke: #000000; stroke-width: 0.8"/>
      </g>
     </g>
     <g id="text_5">
      <!-- Fri -->
      <g transform="translate(379.440858 323.390438) scale(0.1 -0.1)">
       <defs>
        <path id="DejaVuSans-46" d="M 628 4666 
L 3309 4666 
L 3309 4134 
L 1259 4134 
L 1259 2759 
L 3109 2759 
L 3109 2228 
L 1259 2228 
L 1259 0 
L 628 0 
L 628 4666 
z
" transform="scale(0.015625)"/>
        <path id="DejaVuSans-72" d="M 2631 2963 
Q 2534 3019 2420 3045 
Q 2306 3072 2169 3072 
Q 1681 3072 1420 2755 
Q 1159 2438 1159 1844 
L 1159 0 
L 581 0 
L 581 3500 
L 1159 3500 
L 1159 2956 
Q 1341 3275 1631 3429 
Q 1922 3584 2338 3584 
Q 2397 3584 2469 3576 
Q 2541 3569 2628 3553 
L 2631 2963 
z
" transform="scale(0.015625)"/>
        <path id="DejaVuSans-69" d="M 603 3500 
L 1178 3500 
L 1178 0 
L 603 0 
L 603 3500 
z
M 603 4863 
L 1178 4863 
L 1178 4134 
L 603 4134 
L 603 4863 
z
" transform="scale(0.015625)"/>
       </defs>
       <use xlink:href="#DejaVuSans-46"/>
       <use xlink:href="#DejaVuSans-72" x="50.269531"/>
       <use xlink:href="#DejaVuSans-69" x="91.382812"/>
      </g>
      <!-- 2022-08-26 -->
      <g transform="translate(356.340858 334.58825) scale(0.1 -0.1)">
       <use xlink:href="#DejaVuSans-32"/>
       <use xlink:href="#DejaVuSans-30" x="63.623047"/>
       <use xlink:href="#DejaVuSans-32" x="127.246094"/>
       <use xlink:href="#DejaVuSans-32" x="190.869141"/>
       <use xlink:href="#DejaVuSans-2d" x="254.492188"/>
       <use xlink:href="#DejaVuSans-30" x="290.576172"/>
       <use xlink:href="#DejaVuSans-38" x="354.199219"/>
       <use xlink:href="#DejaVuSans-2d" x="417.822266"/>
       <use xlink:href="#DejaVuSans-32" x="453.90625"/>
       <use xlink:href="#DejaVuSans-36" x="517.529297"/>
      </g>
      <!-- 16:00 -->
      <g transform="translate(370.989295 345.786063) scale(0.1 -0.1)">
       <use xlink:href="#DejaVuSans-31"/>
       <use xlink:href="#DejaVuSans-36" x="63.623047"/>
       <use xlink:href="#DejaVuSans-3a" x="127.246094"/>
       <use xlink:href="#DejaVuSans-30" x="160.9375"/>
       <use xlink:href="#DejaVuSans-30" x="224.560547"/>
      </g>
     </g>
    </g>
    <g id="xtick_6">
     <g id="line2d_6">
      <g>
       <use xlink:href="#med1506a53e" x="466.903076" y="308.792" style="stroke: #000000; stroke-width: 0.8"/>
      </g>
     </g>
     <g id="text_6">
      <!-- Sat -->
      <g transform="translate(458.704639 323.390438) scale(0.1 -0.1)">
       <defs>
        <path id="DejaVuSans-53" d="M 3425 4513 
L 3425 3897 
Q 3066 4069 2747 4153 
Q 2428 4238 2131 4238 
Q 1616 4238 1336 4038 
Q 1056 3838 1056 3469 
Q 1056 3159 1242 3001 
Q 1428 2844 1947 2747 
L 2328 2669 
Q 3034 2534 3370 2195 
Q 3706 1856 3706 1288 
Q 3706 609 3251 259 
Q 2797 -91 1919 -91 
Q 1588 -91 1214 -16 
Q 841 59 441 206 
L 441 856 
Q 825 641 1194 531 
Q 1563 422 1919 422 
Q 2459 422 2753 634 
Q 3047 847 3047 1241 
Q 3047 1584 2836 1778 
Q 2625 1972 2144 2069 
L 1759 2144 
Q 1053 2284 737 2584 
Q 422 2884 422 3419 
Q 422 4038 858 4394 
Q 1294 4750 2059 4750 
Q 2388 4750 2728 4690 
Q 3069 4631 3425 4513 
z
" transform="scale(0.015625)"/>
        <path id="DejaVuSans-61" d="M 2194 1759 
Q 1497 1759 1228 1600 
Q 959 1441 959 1056 
Q 959 750 1161 570 
Q 1363 391 1709 391 
Q 2188 391 2477 730 
Q 2766 1069 2766 1631 
L 2766 1759 
L 2194 1759 
z
M 3341 1997 
L 3341 0 
L 2766 0 
L 2766 531 
Q 2569 213 2275 61 
Q 1981 -91 1556 -91 
Q 1019 -91 701 211 
Q 384 513 384 1019 
Q 384 1609 779 1909 
Q 1175 2209 1959 2209 
L 2766 2209 
L 2766 2266 
Q 2766 2663 2505 2880 
Q 2244 3097 1772 3097 
Q 1472 3097 1187 3025 
Q 903 2953 641 2809 
L 641 3341 
Q 956 3463 1253 3523 
Q 1550 3584 1831 3584 
Q 2591 3584 2966 3190 
Q 3341 2797 3341 1997 
z
" transform="scale(0.015625)"/>
        <path id="DejaVuSans-74" d="M 1172 4494 
L 1172 3500 
L 2356 3500 
L 2356 3053 
L 1172 3053 
L 1172 1153 
Q 1172 725 1289 603 
Q 1406 481 1766 481 
L 2356 481 
L 2356 0 
L 1766 0 
Q 1100 0 847 248 
Q 594 497 594 1153 
L 594 3053 
L 172 3053 
L 172 3500 
L 594 3500 
L 594 4494 
L 1172 4494 
z
" transform="scale(0.015625)"/>
       </defs>
       <use xlink:href="#DejaVuSans-53"/>
       <use xlink:href="#DejaVuSans-61" x="63.476562"/>
       <use xlink:href="#DejaVuSans-74" x="124.755859"/>
      </g>
      <!-- 2022-08-27 -->
      <g transform="translate(437.845264 334.58825) scale(0.1 -0.1)">
       <defs>
        <path id="DejaVuSans-37" d="M 525 4666 
L 3525 4666 
L 3525 4397 
L 1831 0 
L 1172 0 
L 2766 4134 
L 525 4134 
L 525 4666 
z
" transform="scale(0.015625)"/>
       </defs>
       <use xlink:href="#DejaVuSans-32"/>
       <use xlink:href="#DejaVuSans-30" x="63.623047"/>
       <use xlink:href="#DejaVuSans-32" x="127.246094"/>
       <use xlink:href="#DejaVuSans-32" x="190.869141"/>
       <use xlink:href="#DejaVuSans-2d" x="254.492188"/>
       <use xlink:href="#DejaVuSans-30" x="290.576172"/>
       <use xlink:href="#DejaVuSans-38" x="354.199219"/>
       <use xlink:href="#DejaVuSans-2d" x="417.822266"/>
       <use xlink:href="#DejaVuSans-32" x="453.90625"/>
       <use xlink:href="#DejaVuSans-37" x="517.529297"/>
      </g>
      <!-- 16:00 -->
      <g transform="translate(452.493701 345.786063) scale(0.1 -0.1)">
       <use xlink:href="#DejaVuSans-31"/>
       <use xlink:href="#DejaVuSans-36" x="63.623047"/>
       <use xlink:href="#DejaVuSans-3a" x="127.246094"/>
       <use xlink:href="#DejaVuSans-30" x="160.9375"/>
       <use xlink:href="#DejaVuSans-30" x="224.560547"/>
      </g>
     </g>
    </g>
    <g id="xtick_7">
     <g id="line2d_7">
      <g>
       <use xlink:href="#med1506a53e" x="548.407482" y="308.792" style="stroke: #000000; stroke-width: 0.8"/>
      </g>
     </g>
     <g id="text_7">
      <!-- Sun -->
      <g transform="translate(538.895763 323.390438) scale(0.1 -0.1)">
       <use xlink:href="#DejaVuSans-53"/>
       <use xlink:href="#DejaVuSans-75" x="63.476562"/>
       <use xlink:href="#DejaVuSans-6e" x="126.855469"/>
      </g>
      <!-- 2022-08-28 -->
      <g transform="translate(519.34967 334.58825) scale(0.1 -0.1)">
       <use xlink:href="#DejaVuSans-32"/>
       <use xlink:href="#DejaVuSans-30" x="63.623047"/>
       <use xlink:href="#DejaVuSans-32" x="127.246094"/>
       <use xlink:href="#DejaVuSans-32" x="190.869141"/>
       <use xlink:href="#DejaVuSans-2d" x="254.492188"/>
       <use xlink:href="#DejaVuSans-30" x="290.576172"/>
       <use xlink:href="#DejaVuSans-38" x="354.199219"/>
       <use xlink:href="#DejaVuSans-2d" x="417.822266"/>
       <use xlink:href="#DejaVuSans-32" x="453.90625"/>
       <use xlink:href="#DejaVuSans-38" x="517.529297"/>
      </g>
      <!-- 16:00 -->
      <g transform="translate(533.998107 345.786063) scale(0.1 -0.1)">
       <use xlink:href="#DejaVuSans-31"/>
       <use xlink:href="#DejaVuSans-36" x="63.623047"/>
       <use xlink:href="#DejaVuSans-3a" x="127.246094"/>
       <use xlink:href="#DejaVuSans-30" x="160.9375"/>
       <use xlink:href="#DejaVuSans-30" x="224.560547"/>
      </g>
     </g>
    </g>
    <g id="xtick_8">
     <g id="line2d_8">
      <g>
       <use xlink:href="#med1506a53e" x="629.911888" y="308.792" style="stroke: #000000; stroke-width: 0.8"/>
      </g>
     </g>
     <g id="text_8">
      <!-- Mon -->
      <g transform="translate(619.3697 323.390438) scale(0.1 -0.1)">
       <use xlink:href="#DejaVuSans-4d"/>
       <use xlink:href="#DejaVuSans-6f" x="86.279297"/>
       <use xlink:href="#DejaVuSans-6e" x="147.460938"/>
      </g>
      <!-- 2022-08-29 -->
      <g transform="translate(600.854075 334.58825) scale(0.1 -0.1)">
       <defs>
        <path id="DejaVuSans-39" d="M 703 97 
L 703 672 
Q 941 559 1184 500 
Q 1428 441 1663 441 
Q 2288 441 2617 861 
Q 2947 1281 2994 2138 
Q 2813 1869 2534 1725 
Q 2256 1581 1919 1581 
Q 1219 1581 811 2004 
Q 403 2428 403 3163 
Q 403 3881 828 4315 
Q 1253 4750 1959 4750 
Q 2769 4750 3195 4129 
Q 3622 3509 3622 2328 
Q 3622 1225 3098 567 
Q 2575 -91 1691 -91 
Q 1453 -91 1209 -44 
Q 966 3 703 97 
z
M 1959 2075 
Q 2384 2075 2632 2365 
Q 2881 2656 2881 3163 
Q 2881 3666 2632 3958 
Q 2384 4250 1959 4250 
Q 1534 4250 1286 3958 
Q 1038 3666 1038 3163 
Q 1038 2656 1286 2365 
Q 1534 2075 1959 2075 
z
" transform="scale(0.015625)"/>
       </defs>
       <use xlink:href="#DejaVuSans-32"/>
       <use xlink:href="#DejaVuSans-30" x="63.623047"/>
       <use xlink:href="#DejaVuSans-32" x="127.246094"/>
       <use xlink:href="#DejaVuSans-32" x="190.869141"/>
       <use xlink:href="#DejaVuSans-2d" x="254.492188"/>
       <use xlink:href="#DejaVuSans-30" x="290.576172"/>
       <use xlink:href="#DejaVuSans-38" x="354.199219"/>
       <use xlink:href="#DejaVuSans-2d" x="417.822266"/>
       <use xlink:href="#DejaVuSans-32" x="453.90625"/>
       <use xlink:href="#DejaVuSans-39" x="517.529297"/>
      </g>
      <!-- 16:00 -->
      <g transform="translate(615.502513 345.786063) scale(0.1 -0.1)">
       <use xlink:href="#DejaVuSans-31"/>
       <use xlink:href="#DejaVuSans-36" x="63.623047"/>
       <use xlink:href="#DejaVuSans-3a" x="127.246094"/>
       <use xlink:href="#DejaVuSans-30" x="160.9375"/>
       <use xlink:href="#DejaVuSans-30" x="224.560547"/>
      </g>
     </g>
    </g>
    <g id="xtick_9">
     <g id="line2d_9">
      <g>
       <use xlink:href="#med1506a53e" x="711.416294" y="308.792" style="stroke: #000000; stroke-width: 0.8"/>
      </g>
     </g>
     <g id="text_9">
      <!-- Tue -->
      <g transform="translate(702.873325 323.390438) scale(0.1 -0.1)">
       <use xlink:href="#DejaVuSans-54"/>
       <use xlink:href="#DejaVuSans-75" x="45.958984"/>
       <use xlink:href="#DejaVuSans-65" x="109.337891"/>
      </g>
      <!-- 2022-08-30 -->
      <g transform="translate(682.358481 334.58825) scale(0.1 -0.1)">
       <use xlink:href="#DejaVuSans-32"/>
       <use xlink:href="#DejaVuSans-30" x="63.623047"/>
       <use xlink:href="#DejaVuSans-32" x="127.246094"/>
       <use xlink:href="#DejaVuSans-32" x="190.869141"/>
       <use xlink:href="#DejaVuSans-2d" x="254.492188"/>
       <use xlink:href="#DejaVuSans-30" x="290.576172"/>
       <use xlink:href="#DejaVuSans-38" x="354.199219"/>
       <use xlink:href="#DejaVuSans-2d" x="417.822266"/>
       <use xlink:href="#DejaVuSans-33" x="453.90625"/>
       <use xlink:href="#DejaVuSans-30" x="517.529297"/>
      </g>
      <!-- 16:00 -->
      <g transform="translate(697.006919 345.786063) scale(0.1 -0.1)">
       <use xlink:href="#DejaVuSans-31"/>
       <use xlink:href="#DejaVuSans-36" x="63.623047"/>
       <use xlink:href="#DejaVuSans-3a" x="127.246094"/>
       <use xlink:href="#DejaVuSans-30" x="160.9375"/>
       <use xlink:href="#DejaVuSans-30" x="224.560547"/>
      </g>
     </g>
    </g>
    <g id="xtick_10">
     <g id="line2d_10">
      <g>
       <use xlink:href="#med1506a53e" x="792.9207" y="308.792" style="stroke: #000000; stroke-width: 0.8"/>
      </g>
     </g>
     <g id="text_10">
      <!-- Wed -->
      <g transform="translate(782.019919 323.390438) scale(0.1 -0.1)">
       <use xlink:href="#DejaVuSans-57"/>
       <use xlink:href="#DejaVuSans-65" x="93.001953"/>
       <use xlink:href="#DejaVuSans-64" x="154.525391"/>
      </g>
      <!-- 2022-08-31 -->
      <g transform="translate(763.862887 334.58825) scale(0.1 -0.1)">
       <use xlink:href="#DejaVuSans-32"/>
       <use xlink:href="#DejaVuSans-30" x="63.623047"/>
       <use xlink:href="#DejaVuSans-32" x="127.246094"/>
       <use xlink:href="#DejaVuSans-32" x="190.869141"/>
       <use xlink:href="#DejaVuSans-2d" x="254.492188"/>
       <use xlink:href="#DejaVuSans-30" x="290.576172"/>
       <use xlink:href="#DejaVuSans-38" x="354.199219"/>
       <use xlink:href="#DejaVuSans-2d" x="417.822266"/>
       <use xlink:href="#DejaVuSans-33" x="453.90625"/>
       <use xlink:href="#DejaVuSans-31" x="517.529297"/>
      </g>
      <!-- 16:00 -->
      <g transform="translate(778.511325 345.786063) scale(0.1 -0.1)">
       <use xlink:href="#DejaVuSans-31"/>
       <use xlink:href="#DejaVuSans-36" x="63.623047"/>
       <use xlink:href="#DejaVuSans-3a" x="127.246094"/>
       <use xlink:href="#DejaVuSans-30" x="160.9375"/>
       <use xlink:href="#DejaVuSans-30" x="224.560547"/>
      </g>
     </g>
    </g>
   </g>
   <g id="matplotlib.axis_2">
    <g id="ytick_1">
     <g id="line2d_11">
      <path d="M 50.042 300.018309 
L 853.2 300.018309 
" clip-path="url(#p3bef03efb8)" style="fill: none; stroke-dasharray: 1.85,0.8; stroke-dashoffset: 0; stroke: #d3d3d3; stroke-width: 0.5"/>
     </g>
     <g id="line2d_12">
      <defs>
       <path id="m8b1ffc78fe" d="M 0 0 
L -3.5 0 
" style="stroke: #000000; stroke-width: 0.8"/>
      </defs>
      <g>
       <use xlink:href="#m8b1ffc78fe" x="50.042" y="300.018309" style="stroke: #000000; stroke-width: 0.8"/>
      </g>
     </g>
     <g id="text_11">
      <!-- 0 -->
      <g transform="translate(36.6795 303.817528) scale(0.1 -0.1)">
       <use xlink:href="#DejaVuSans-30"/>
      </g>
     </g>
    </g>
    <g id="ytick_2">
     <g id="line2d_13">
      <path d="M 50.042 266.056021 
L 853.2 266.056021 
" clip-path="url(#p3bef03efb8)" style="fill: none; stroke-dasharray: 1.85,0.8; stroke-dashoffset: 0; stroke: #d3d3d3; stroke-width: 0.5"/>
     </g>
     <g id="line2d_14">
      <g>
       <use xlink:href="#m8b1ffc78fe" x="50.042" y="266.056021" style="stroke: #000000; stroke-width: 0.8"/>
      </g>
     </g>
     <g id="text_12">
      <!-- 10 -->
      <g transform="translate(30.317 269.855239) scale(0.1 -0.1)">
       <use xlink:href="#DejaVuSans-31"/>
       <use xlink:href="#DejaVuSans-30" x="63.623047"/>
      </g>
     </g>
    </g>
    <g id="ytick_3">
     <g id="line2d_15">
      <path d="M 50.042 232.093732 
L 853.2 232.093732 
" clip-path="url(#p3bef03efb8)" style="fill: none; stroke-dasharray: 1.85,0.8; stroke-dashoffset: 0; stroke: #d3d3d3; stroke-width: 0.5"/>
     </g>
     <g id="line2d_16">
      <g>
       <use xlink:href="#m8b1ffc78fe" x="50.042" y="232.093732" style="stroke: #000000; stroke-width: 0.8"/>
      </g>
     </g>
     <g id="text_13">
      <!-- 20 -->
      <g transform="translate(30.317 235.892951) scale(0.1 -0.1)">
       <use xlink:href="#DejaVuSans-32"/>
       <use xlink:href="#DejaVuSans-30" x="63.623047"/>
      </g>
     </g>
    </g>
    <g id="ytick_4">
     <g id="line2d_17">
      <path d="M 50.042 198.131443 
L 853.2 198.131443 
" clip-path="url(#p3bef03efb8)" style="fill: none; stroke-dasharray: 1.85,0.8; stroke-dashoffset: 0; stroke: #d3d3d3; stroke-width: 0.5"/>
     </g>
     <g id="line2d_18">
      <g>
       <use xlink:href="#m8b1ffc78fe" x="50.042" y="198.131443" style="stroke: #000000; stroke-width: 0.8"/>
      </g>
     </g>
     <g id="text_14">
      <!-- 30 -->
      <g transform="translate(30.317 201.930662) scale(0.1 -0.1)">
       <use xlink:href="#DejaVuSans-33"/>
       <use xlink:href="#DejaVuSans-30" x="63.623047"/>
      </g>
     </g>
    </g>
    <g id="ytick_5">
     <g id="line2d_19">
      <path d="M 50.042 164.169155 
L 853.2 164.169155 
" clip-path="url(#p3bef03efb8)" style="fill: none; stroke-dasharray: 1.85,0.8; stroke-dashoffset: 0; stroke: #d3d3d3; stroke-width: 0.5"/>
     </g>
     <g id="line2d_20">
      <g>
       <use xlink:href="#m8b1ffc78fe" x="50.042" y="164.169155" style="stroke: #000000; stroke-width: 0.8"/>
      </g>
     </g>
     <g id="text_15">
      <!-- 40 -->
      <g transform="translate(30.317 167.968373) scale(0.1 -0.1)">
       <use xlink:href="#DejaVuSans-34"/>
       <use xlink:href="#DejaVuSans-30" x="63.623047"/>
      </g>
     </g>
    </g>
    <g id="ytick_6">
     <g id="line2d_21">
      <path d="M 50.042 130.206866 
L 853.2 130.206866 
" clip-path="url(#p3bef03efb8)" style="fill: none; stroke-dasharray: 1.85,0.8; stroke-dashoffset: 0; stroke: #d3d3d3; stroke-width: 0.5"/>
     </g>
     <g id="line2d_22">
      <g>
       <use xlink:href="#m8b1ffc78fe" x="50.042" y="130.206866" style="stroke: #000000; stroke-width: 0.8"/>
      </g>
     </g>
     <g id="text_16">
      <!-- 50 -->
      <g transform="translate(30.317 134.006085) scale(0.1 -0.1)">
       <use xlink:href="#DejaVuSans-35"/>
       <use xlink:href="#DejaVuSans-30" x="63.623047"/>
      </g>
     </g>
    </g>
    <g id="ytick_7">
     <g id="line2d_23">
      <path d="M 50.042 96.244577 
L 853.2 96.244577 
" clip-path="url(#p3bef03efb8)" style="fill: none; stroke-dasharray: 1.85,0.8; stroke-dashoffset: 0; stroke: #d3d3d3; stroke-width: 0.5"/>
     </g>
     <g id="line2d_24">
      <g>
       <use xlink:href="#m8b1ffc78fe" x="50.042" y="96.244577" style="stroke: #000000; stroke-width: 0.8"/>
      </g>
     </g>
     <g id="text_17">
      <!-- 60 -->
      <g transform="translate(30.317 100.043796) scale(0.1 -0.1)">
       <use xlink:href="#DejaVuSans-36"/>
       <use xlink:href="#DejaVuSans-30" x="63.623047"/>
      </g>
     </g>
    </g>
    <g id="ytick_8">
     <g id="line2d_25">
      <path d="M 50.042 62.282289 
L 853.2 62.282289 
" clip-path="url(#p3bef03efb8)" style="fill: none; stroke-dasharray: 1.85,0.8; stroke-dashoffset: 0; stroke: #d3d3d3; stroke-width: 0.5"/>
     </g>
     <g id="line2d_26">
      <g>
       <use xlink:href="#m8b1ffc78fe" x="50.042" y="62.282289" style="stroke: #000000; stroke-width: 0.8"/>
      </g>
     </g>
     <g id="text_18">
      <!-- 70 -->
      <g transform="translate(30.317 66.081507) scale(0.1 -0.1)">
       <use xlink:href="#DejaVuSans-37"/>
       <use xlink:href="#DejaVuSans-30" x="63.623047"/>
      </g>
     </g>
    </g>
    <g id="ytick_9">
     <g id="line2d_27">
      <path d="M 50.042 28.32 
L 853.2 28.32 
" clip-path="url(#p3bef03efb8)" style="fill: none; stroke-dasharray: 1.85,0.8; stroke-dashoffset: 0; stroke: #d3d3d3; stroke-width: 0.5"/>
     </g>
     <g id="line2d_28">
      <g>
       <use xlink:href="#m8b1ffc78fe" x="50.042" y="28.32" style="stroke: #000000; stroke-width: 0.8"/>
      </g>
     </g>
     <g id="text_19">
      <!-- 80 -->
      <g transform="translate(30.317 32.119219) scale(0.1 -0.1)">
       <use xlink:href="#DejaVuSans-38"/>
       <use xlink:href="#DejaVuSans-30" x="63.623047"/>
      </g>
     </g>
    </g>
    <g id="text_20">
     <!-- Particles density $µg/m^3$ -->
     <g transform="translate(24.217 226.906) rotate(-90) scale(0.1 -0.1)">
      <defs>
       <path id="DejaVuSans-50" d="M 1259 4147 
L 1259 2394 
L 2053 2394 
Q 2494 2394 2734 2622 
Q 2975 2850 2975 3272 
Q 2975 3691 2734 3919 
Q 2494 4147 2053 4147 
L 1259 4147 
z
M 628 4666 
L 2053 4666 
Q 2838 4666 3239 4311 
Q 3641 3956 3641 3272 
Q 3641 2581 3239 2228 
Q 2838 1875 2053 1875 
L 1259 1875 
L 1259 0 
L 628 0 
L 628 4666 
z
" transform="scale(0.015625)"/>
       <path id="DejaVuSans-63" d="M 3122 3366 
L 3122 2828 
Q 2878 2963 2633 3030 
Q 2388 3097 2138 3097 
Q 1578 3097 1268 2742 
Q 959 2388 959 1747 
Q 959 1106 1268 751 
Q 1578 397 2138 397 
Q 2388 397 2633 464 
Q 2878 531 3122 666 
L 3122 134 
Q 2881 22 2623 -34 
Q 2366 -91 2075 -91 
Q 1284 -91 818 406 
Q 353 903 353 1747 
Q 353 2603 823 3093 
Q 1294 3584 2113 3584 
Q 2378 3584 2631 3529 
Q 2884 3475 3122 3366 
z
" transform="scale(0.015625)"/>
       <path id="DejaVuSans-6c" d="M 603 4863 
L 1178 4863 
L 1178 0 
L 603 0 
L 603 4863 
z
" transform="scale(0.015625)"/>
       <path id="DejaVuSans-73" d="M 2834 3397 
L 2834 2853 
Q 2591 2978 2328 3040 
Q 2066 3103 1784 3103 
Q 1356 3103 1142 2972 
Q 928 2841 928 2578 
Q 928 2378 1081 2264 
Q 1234 2150 1697 2047 
L 1894 2003 
Q 2506 1872 2764 1633 
Q 3022 1394 3022 966 
Q 3022 478 2636 193 
Q 2250 -91 1575 -91 
Q 1294 -91 989 -36 
Q 684 19 347 128 
L 347 722 
Q 666 556 975 473 
Q 1284 391 1588 391 
Q 1994 391 2212 530 
Q 2431 669 2431 922 
Q 2431 1156 2273 1281 
Q 2116 1406 1581 1522 
L 1381 1569 
Q 847 1681 609 1914 
Q 372 2147 372 2553 
Q 372 3047 722 3315 
Q 1072 3584 1716 3584 
Q 2034 3584 2315 3537 
Q 2597 3491 2834 3397 
z
" transform="scale(0.015625)"/>
       <path id="DejaVuSans-20" transform="scale(0.015625)"/>
       <path id="DejaVuSans-79" d="M 2059 -325 
Q 1816 -950 1584 -1140 
Q 1353 -1331 966 -1331 
L 506 -1331 
L 506 -850 
L 844 -850 
Q 1081 -850 1212 -737 
Q 1344 -625 1503 -206 
L 1606 56 
L 191 3500 
L 800 3500 
L 1894 763 
L 2988 3500 
L 3597 3500 
L 2059 -325 
z
" transform="scale(0.015625)"/>
       <path id="DejaVuSans-Oblique-b5" d="M -84 -1331 
L 856 3500 
L 1434 3500 
L 1009 1322 
Q 997 1256 987 1175 
Q 978 1094 978 1013 
Q 978 722 1161 565 
Q 1344 409 1684 409 
Q 2147 409 2431 671 
Q 2716 934 2816 1459 
L 3213 3500 
L 3788 3500 
L 3266 809 
Q 3253 750 3248 706 
Q 3244 663 3244 628 
Q 3244 531 3283 486 
Q 3322 441 3406 441 
Q 3438 441 3492 456 
Q 3547 472 3647 513 
L 3559 50 
Q 3422 -19 3297 -55 
Q 3172 -91 3053 -91 
Q 2847 -91 2730 40 
Q 2613 172 2613 403 
Q 2438 153 2195 31 
Q 1953 -91 1625 -91 
Q 1334 -91 1117 43 
Q 900 178 831 397 
L 494 -1331 
L -84 -1331 
z
" transform="scale(0.015625)"/>
       <path id="DejaVuSans-Oblique-67" d="M 3816 3500 
L 3219 434 
Q 3047 -456 2561 -893 
Q 2075 -1331 1253 -1331 
Q 950 -1331 690 -1286 
Q 431 -1241 206 -1147 
L 313 -588 
Q 525 -725 762 -790 
Q 1000 -856 1269 -856 
Q 1816 -856 2167 -557 
Q 2519 -259 2631 300 
L 2681 563 
Q 2441 288 2122 144 
Q 1803 0 1434 0 
Q 903 0 598 351 
Q 294 703 294 1319 
Q 294 1803 478 2267 
Q 663 2731 997 3091 
Q 1219 3328 1514 3456 
Q 1809 3584 2131 3584 
Q 2484 3584 2746 3420 
Q 3009 3256 3138 2956 
L 3238 3500 
L 3816 3500 
z
M 2950 2216 
Q 2950 2641 2750 2872 
Q 2550 3103 2181 3103 
Q 1953 3103 1747 3012 
Q 1541 2922 1394 2759 
Q 1156 2491 1023 2127 
Q 891 1763 891 1375 
Q 891 944 1092 712 
Q 1294 481 1672 481 
Q 2219 481 2584 976 
Q 2950 1472 2950 2216 
z
" transform="scale(0.015625)"/>
       <path id="DejaVuSans-2f" d="M 1625 4666 
L 2156 4666 
L 531 -594 
L 0 -594 
L 1625 4666 
z
" transform="scale(0.015625)"/>
       <path id="DejaVuSans-Oblique-6d" d="M 5747 2113 
L 5338 0 
L 4763 0 
L 5166 2094 
Q 5191 2228 5203 2325 
Q 5216 2422 5216 2491 
Q 5216 2772 5059 2928 
Q 4903 3084 4622 3084 
Q 4203 3084 3875 2770 
Q 3547 2456 3450 1953 
L 3066 0 
L 2491 0 
L 2900 2094 
Q 2925 2209 2937 2307 
Q 2950 2406 2950 2484 
Q 2950 2769 2794 2926 
Q 2638 3084 2363 3084 
Q 1938 3084 1609 2770 
Q 1281 2456 1184 1953 
L 800 0 
L 225 0 
L 909 3500 
L 1484 3500 
L 1375 2956 
Q 1609 3263 1923 3423 
Q 2238 3584 2597 3584 
Q 2978 3584 3223 3384 
Q 3469 3184 3519 2828 
Q 3781 3197 4126 3390 
Q 4472 3584 4856 3584 
Q 5306 3584 5551 3325 
Q 5797 3066 5797 2591 
Q 5797 2488 5784 2364 
Q 5772 2241 5747 2113 
z
" transform="scale(0.015625)"/>
      </defs>
      <use xlink:href="#DejaVuSans-50" transform="translate(0 0.765625)"/>
      <use xlink:href="#DejaVuSans-61" transform="translate(60.302734 0.765625)"/>
      <use xlink:href="#DejaVuSans-72" transform="translate(121.582031 0.765625)"/>
      <use xlink:href="#DejaVuSans-74" transform="translate(162.695312 0.765625)"/>
      <use xlink:href="#DejaVuSans-69" transform="translate(201.904297 0.765625)"/>
      <use xlink:href="#DejaVuSans-63" transform="translate(229.6875 0.765625)"/>
      <use xlink:href="#DejaVuSans-6c" transform="translate(284.667969 0.765625)"/>
      <use xlink:href="#DejaVuSans-65" transform="translate(312.451172 0.765625)"/>
      <use xlink:href="#DejaVuSans-73" transform="translate(373.974609 0.765625)"/>
      <use xlink:href="#DejaVuSans-20" transform="translate(426.074219 0.765625)"/>
      <use xlink:href="#DejaVuSans-64" transform="translate(457.861328 0.765625)"/>
      <use xlink:href="#DejaVuSans-65" transform="translate(521.337891 0.765625)"/>
      <use xlink:href="#DejaVuSans-6e" transform="translate(582.861328 0.765625)"/>
      <use xlink:href="#DejaVuSans-73" transform="translate(646.240234 0.765625)"/>
      <use xlink:href="#DejaVuSans-69" transform="translate(698.339844 0.765625)"/>
      <use xlink:href="#DejaVuSans-74" transform="translate(726.123047 0.765625)"/>
      <use xlink:href="#DejaVuSans-79" transform="translate(765.332031 0.765625)"/>
      <use xlink:href="#DejaVuSans-20" transform="translate(824.511719 0.765625)"/>
      <use xlink:href="#DejaVuSans-Oblique-b5" transform="translate(856.298828 0.765625)"/>
      <use xlink:href="#DejaVuSans-Oblique-67" transform="translate(919.921875 0.765625)"/>
      <use xlink:href="#DejaVuSans-2f" transform="translate(983.398438 0.765625)"/>
      <use xlink:href="#DejaVuSans-Oblique-6d" transform="translate(1017.089844 0.765625)"/>
      <use xlink:href="#DejaVuSans-33" transform="translate(1119.151849 39.046875) scale(0.7)"/>
     </g>
    </g>
   </g>
   <g id="line2d_29">
    <path d="M 86.549182 293.225852 
L 89.945199 289.829623 
L 93.341216 293.225852 
L 96.737233 289.829623 
L 100.133249 283.037165 
L 103.529266 266.056021 
L 106.925283 252.471105 
L 110.3213 249.074876 
L 113.717317 266.056021 
L 117.113334 276.244707 
L 120.509351 283.037165 
L 123.905368 259.263563 
L 127.301385 262.659792 
L 130.697402 249.074876 
L 134.093419 269.452249 
L 137.489436 249.074876 
L 140.885452 266.056021 
L 144.281469 262.659792 
L 147.677486 276.244707 
L 151.073503 266.056021 
L 154.46952 259.263563 
L 157.865537 272.848478 
L 164.657571 279.640936 
L 168.053588 279.640936 
L 171.449605 283.037165 
L 174.845622 279.640936 
L 178.241638 286.433394 
L 181.637655 279.640936 
L 185.033672 266.056021 
L 188.429689 238.88619 
L 191.825706 242.282419 
L 195.221723 255.867334 
L 198.61774 242.282419 
L 202.013757 225.301274 
L 205.409774 238.88619 
L 208.805791 255.867334 
L 212.201808 259.263563 
L 215.597825 266.056021 
L 218.993841 245.678647 
L 222.389858 235.489961 
L 225.785875 255.867334 
L 229.181892 259.263563 
L 232.577909 272.848478 
L 235.973926 272.848478 
L 239.369943 279.640936 
L 242.76596 276.244707 
L 246.161977 269.452249 
L 249.557994 276.244707 
L 252.954011 272.848478 
L 259.746044 279.640936 
L 263.142061 279.640936 
L 266.538078 266.056021 
L 269.934095 262.659792 
L 273.330112 249.074876 
L 276.726129 249.074876 
L 283.518163 228.697503 
L 286.91418 249.074876 
L 297.10223 249.074876 
L 300.498247 245.678647 
L 303.894264 221.905045 
L 307.290281 235.489961 
L 310.686298 272.848478 
L 314.082315 283.037165 
L 320.874349 283.037165 
L 324.270366 259.263563 
L 327.666383 283.037165 
L 331.0624 276.244707 
L 334.458416 266.056021 
L 337.854433 286.433394 
L 344.646467 286.433394 
L 348.042484 266.056021 
L 351.438501 259.263563 
L 354.834518 238.88619 
L 358.230535 245.678647 
L 361.626552 249.074876 
L 365.022569 242.282419 
L 368.418586 238.88619 
L 371.814603 269.452249 
L 375.210619 283.037165 
L 378.606636 279.640936 
L 382.002653 242.282419 
L 385.39867 120.018179 
L 388.794687 194.735214 
L 392.190704 286.433394 
L 395.586721 276.244707 
L 402.378755 276.244707 
L 405.774772 272.848478 
L 409.170789 259.263563 
L 412.566805 262.659792 
L 415.962822 262.659792 
L 422.754856 276.244707 
L 426.150873 279.640936 
L 429.54689 266.056021 
L 436.338924 252.471105 
L 439.734941 242.282419 
L 443.130958 238.88619 
L 446.526975 255.867334 
L 449.922992 255.867334 
L 453.319008 269.452249 
L 456.715025 269.452249 
L 463.507059 249.074876 
L 466.903076 255.867334 
L 470.299093 259.263563 
L 473.69511 269.452249 
L 477.091127 286.433394 
L 483.883161 293.225852 
L 487.279178 289.829623 
L 490.675195 283.037165 
L 494.071211 286.433394 
L 497.467228 296.62208 
L 500.863245 287.338306 
L 504.259262 296.62208 
L 514.447313 296.62208 
L 521.239347 289.829623 
L 538.219431 289.829623 
L 541.615448 279.640936 
L 545.011465 262.659792 
L 548.407482 283.037165 
L 551.803499 279.640936 
L 555.199516 279.640936 
L 558.595533 293.225852 
L 572.1796 293.225852 
L 575.575617 289.829623 
L 578.971634 289.829623 
L 582.367651 296.62208 
L 585.763668 293.225852 
L 589.159685 293.225852 
L 592.555702 279.640936 
L 595.951719 249.074876 
L 602.743753 242.282419 
L 606.13977 272.848478 
L 609.535786 269.452249 
L 612.931803 269.452249 
L 616.32782 276.244707 
L 619.723837 272.848478 
L 623.119854 262.659792 
L 626.515871 266.056021 
L 629.911888 266.056021 
L 633.307905 269.452249 
L 636.703922 269.452249 
L 640.099939 259.263563 
L 643.495956 279.640936 
L 646.891973 293.225852 
L 653.684006 293.225852 
L 657.080023 289.829623 
L 660.47604 283.037165 
L 663.872057 289.829623 
L 670.664091 289.829623 
L 674.060108 272.848478 
L 677.456125 252.471105 
L 680.852142 235.489961 
L 684.248159 262.659792 
L 687.644175 269.452249 
L 694.436209 276.244707 
L 697.832226 283.037165 
L 701.228243 276.244707 
L 704.62426 283.037165 
L 708.020277 283.037165 
L 711.416294 279.640936 
L 714.812311 279.640936 
L 718.208328 249.074876 
L 725.000362 262.659792 
L 728.396378 272.848478 
L 731.792395 266.056021 
L 735.188412 266.056021 
L 741.980446 286.433394 
L 748.77248 293.225852 
L 752.168497 289.829623 
L 755.564514 293.225852 
L 758.960531 286.433394 
L 762.356548 272.848478 
L 765.752564 266.056021 
L 769.148581 276.244707 
L 772.544598 259.263563 
L 775.940615 269.452249 
L 779.336632 276.244707 
L 782.732649 276.244707 
L 786.128666 269.452249 
L 789.524683 252.471105 
L 792.9207 245.678647 
L 796.316717 262.659792 
L 799.712734 245.678647 
L 803.108751 255.867334 
L 806.504767 283.037165 
L 809.900784 296.62208 
L 813.296801 286.433394 
L 816.692818 283.037165 
L 816.692818 283.037165 
" clip-path="url(#p3bef03efb8)" style="fill: none; stroke: #000000; stroke-opacity: 0.7; stroke-width: 1.5; stroke-linecap: square"/>
   </g>
   <g id="line2d_30">
    <path d="M 575.575617 284.943184 
L 578.971634 287.736526 
L 582.367651 288.742107 
L 585.763668 289.534122 
L 589.159685 288.776055 
L 592.555702 285.351317 
L 595.951719 279.695272 
L 599.347736 275.75366 
L 602.743753 274.167577 
L 606.13977 273.576652 
L 609.535786 274.413681 
L 612.931803 277.316994 
L 616.32782 279.797776 
L 619.723837 281.243704 
L 623.119854 279.779752 
L 626.515871 273.749562 
L 629.911888 274.329608 
L 633.307905 279.284991 
L 636.703922 281.074426 
L 640.099939 285.821218 
L 643.495956 289.834821 
L 646.891973 290.189907 
L 650.287989 289.914811 
L 653.684006 290.6199 
L 657.080023 291.527232 
L 660.47604 292.547042 
L 663.872057 293.034359 
L 667.268074 291.593725 
L 670.664091 290.389416 
L 674.060108 286.270607 
L 677.456125 278.789362 
L 680.852142 275.581653 
L 684.248159 275.622627 
L 687.644175 275.448855 
L 691.040192 277.962205 
L 694.436209 280.752608 
L 697.832226 284.385971 
L 701.228243 283.814243 
L 704.62426 280.591215 
L 708.020277 274.135977 
L 711.416294 266.741578 
L 714.812311 274.860824 
L 718.208328 277.809101 
L 721.604345 283.484314 
L 725.000362 288.141351 
L 728.396378 289.850961 
L 731.792395 289.770915 
L 735.188412 289.441522 
L 738.584429 290.732809 
L 741.980446 292.785632 
L 745.376463 292.884727 
L 748.77248 292.131365 
L 752.168497 290.493533 
L 755.564514 286.015116 
L 758.960531 279.25246 
L 762.356548 273.00036 
L 765.752564 271.917199 
L 769.148581 271.563155 
L 772.544598 272.798324 
L 775.940615 276.297103 
L 779.336632 277.161867 
L 782.732649 279.364713 
L 786.128666 277.182805 
L 789.524683 274.119282 
L 792.9207 272.79745 
L 796.316717 276.837004 
L 799.712734 276.396302 
L 803.108751 282.15375 
L 806.504767 283.993145 
L 809.900784 286.34749 
L 813.296801 287.166091 
L 816.692818 289.421031 
" clip-path="url(#p3bef03efb8)" style="fill: none; stroke-dasharray: 5.55,2.4; stroke-dashoffset: 0; stroke: #8b0000; stroke-opacity: 0.7; stroke-width: 1.5"/>
   </g>
   <g id="patch_3">
    <path d="M 50.042 308.792 
L 50.042 28.32 
" style="fill: none; stroke: #000000; stroke-width: 0.8; stroke-linejoin: miter; stroke-linecap: square"/>
   </g>
   <g id="patch_4">
    <path d="M 50.042 308.792 
L 853.2 308.792 
" style="fill: none; stroke: #000000; stroke-width: 0.8; stroke-linejoin: miter; stroke-linecap: square"/>
   </g>
   <g id="text_21">
    <!-- TLA 72hrs forecasting. $RMSE:$4.304837 -->
    <g transform="translate(332.221 22.32) scale(0.12 -0.12)">
     <defs>
      <path id="DejaVuSans-4c" d="M 628 4666 
L 1259 4666 
L 1259 531 
L 3531 531 
L 3531 0 
L 628 0 
L 628 4666 
z
" transform="scale(0.015625)"/>
      <path id="DejaVuSans-41" d="M 2188 4044 
L 1331 1722 
L 3047 1722 
L 2188 4044 
z
M 1831 4666 
L 2547 4666 
L 4325 0 
L 3669 0 
L 3244 1197 
L 1141 1197 
L 716 0 
L 50 0 
L 1831 4666 
z
" transform="scale(0.015625)"/>
      <path id="DejaVuSans-66" d="M 2375 4863 
L 2375 4384 
L 1825 4384 
Q 1516 4384 1395 4259 
Q 1275 4134 1275 3809 
L 1275 3500 
L 2222 3500 
L 2222 3053 
L 1275 3053 
L 1275 0 
L 697 0 
L 697 3053 
L 147 3053 
L 147 3500 
L 697 3500 
L 697 3744 
Q 697 4328 969 4595 
Q 1241 4863 1831 4863 
L 2375 4863 
z
" transform="scale(0.015625)"/>
      <path id="DejaVuSans-67" d="M 2906 1791 
Q 2906 2416 2648 2759 
Q 2391 3103 1925 3103 
Q 1463 3103 1205 2759 
Q 947 2416 947 1791 
Q 947 1169 1205 825 
Q 1463 481 1925 481 
Q 2391 481 2648 825 
Q 2906 1169 2906 1791 
z
M 3481 434 
Q 3481 -459 3084 -895 
Q 2688 -1331 1869 -1331 
Q 1566 -1331 1297 -1286 
Q 1028 -1241 775 -1147 
L 775 -588 
Q 1028 -725 1275 -790 
Q 1522 -856 1778 -856 
Q 2344 -856 2625 -561 
Q 2906 -266 2906 331 
L 2906 616 
Q 2728 306 2450 153 
Q 2172 0 1784 0 
Q 1141 0 747 490 
Q 353 981 353 1791 
Q 353 2603 747 3093 
Q 1141 3584 1784 3584 
Q 2172 3584 2450 3431 
Q 2728 3278 2906 2969 
L 2906 3500 
L 3481 3500 
L 3481 434 
z
" transform="scale(0.015625)"/>
      <path id="DejaVuSans-2e" d="M 684 794 
L 1344 794 
L 1344 0 
L 684 0 
L 684 794 
z
" transform="scale(0.015625)"/>
      <path id="DejaVuSans-Oblique-52" d="M 1613 4147 
L 1294 2491 
L 2106 2491 
Q 2584 2491 2879 2755 
Q 3175 3019 3175 3444 
Q 3175 3784 2976 3965 
Q 2778 4147 2406 4147 
L 1613 4147 
z
M 2772 2241 
Q 2972 2194 3105 2009 
Q 3238 1825 3413 1275 
L 3809 0 
L 3144 0 
L 2778 1197 
Q 2638 1659 2453 1815 
Q 2269 1972 1888 1972 
L 1191 1972 
L 806 0 
L 172 0 
L 1081 4666 
L 2503 4666 
Q 3150 4666 3495 4373 
Q 3841 4081 3841 3531 
Q 3841 3044 3547 2687 
Q 3253 2331 2772 2241 
z
" transform="scale(0.015625)"/>
      <path id="DejaVuSans-Oblique-4d" d="M 1081 4666 
L 2028 4666 
L 2572 1522 
L 4378 4666 
L 5350 4666 
L 4441 0 
L 3828 0 
L 4622 4091 
L 2791 897 
L 2175 897 
L 1581 4103 
L 788 0 
L 172 0 
L 1081 4666 
z
" transform="scale(0.015625)"/>
      <path id="DejaVuSans-Oblique-53" d="M 3859 4513 
L 3738 3897 
Q 3422 4066 3111 4152 
Q 2800 4238 2509 4238 
Q 1944 4238 1609 3991 
Q 1275 3744 1275 3334 
Q 1275 3109 1398 2989 
Q 1522 2869 2034 2731 
L 2413 2638 
Q 3053 2472 3303 2217 
Q 3553 1963 3553 1503 
Q 3553 797 2998 353 
Q 2444 -91 1538 -91 
Q 1166 -91 791 -17 
Q 416 56 38 206 
L 166 856 
Q 513 641 861 531 
Q 1209 422 1556 422 
Q 2147 422 2503 684 
Q 2859 947 2859 1369 
Q 2859 1650 2717 1795 
Q 2575 1941 2106 2059 
L 1728 2156 
Q 1081 2325 845 2545 
Q 609 2766 609 3163 
Q 609 3859 1145 4304 
Q 1681 4750 2541 4750 
Q 2875 4750 3203 4690 
Q 3531 4631 3859 4513 
z
" transform="scale(0.015625)"/>
      <path id="DejaVuSans-Oblique-45" d="M 1081 4666 
L 4031 4666 
L 3928 4134 
L 1606 4134 
L 1338 2753 
L 3566 2753 
L 3463 2222 
L 1234 2222 
L 909 531 
L 3284 531 
L 3181 0 
L 172 0 
L 1081 4666 
z
" transform="scale(0.015625)"/>
     </defs>
     <use xlink:href="#DejaVuSans-54" transform="translate(0 0.015625)"/>
     <use xlink:href="#DejaVuSans-4c" transform="translate(61.083984 0.015625)"/>
     <use xlink:href="#DejaVuSans-41" transform="translate(116.796875 0.015625)"/>
     <use xlink:href="#DejaVuSans-20" transform="translate(185.205078 0.015625)"/>
     <use xlink:href="#DejaVuSans-37" transform="translate(216.992188 0.015625)"/>
     <use xlink:href="#DejaVuSans-32" transform="translate(280.615234 0.015625)"/>
     <use xlink:href="#DejaVuSans-68" transform="translate(344.238281 0.015625)"/>
     <use xlink:href="#DejaVuSans-72" transform="translate(407.617188 0.015625)"/>
     <use xlink:href="#DejaVuSans-73" transform="translate(448.730469 0.015625)"/>
     <use xlink:href="#DejaVuSans-20" transform="translate(500.830078 0.015625)"/>
     <use xlink:href="#DejaVuSans-66" transform="translate(532.617188 0.015625)"/>
     <use xlink:href="#DejaVuSans-6f" transform="translate(567.822266 0.015625)"/>
     <use xlink:href="#DejaVuSans-72" transform="translate(629.003906 0.015625)"/>
     <use xlink:href="#DejaVuSans-65" transform="translate(670.117188 0.015625)"/>
     <use xlink:href="#DejaVuSans-63" transform="translate(731.640625 0.015625)"/>
     <use xlink:href="#DejaVuSans-61" transform="translate(786.621094 0.015625)"/>
     <use xlink:href="#DejaVuSans-73" transform="translate(847.900391 0.015625)"/>
     <use xlink:href="#DejaVuSans-74" transform="translate(900 0.015625)"/>
     <use xlink:href="#DejaVuSans-69" transform="translate(939.208984 0.015625)"/>
     <use xlink:href="#DejaVuSans-6e" transform="translate(966.992188 0.015625)"/>
     <use xlink:href="#DejaVuSans-67" transform="translate(1030.371094 0.015625)"/>
     <use xlink:href="#DejaVuSans-2e" transform="translate(1093.847656 0.015625)"/>
     <use xlink:href="#DejaVuSans-20" transform="translate(1125.634766 0.015625)"/>
     <use xlink:href="#DejaVuSans-Oblique-52" transform="translate(1157.421875 0.015625)"/>
     <use xlink:href="#DejaVuSans-Oblique-4d" transform="translate(1226.904297 0.015625)"/>
     <use xlink:href="#DejaVuSans-Oblique-53" transform="translate(1313.183594 0.015625)"/>
     <use xlink:href="#DejaVuSans-Oblique-45" transform="translate(1376.660156 0.015625)"/>
     <use xlink:href="#DejaVuSans-3a" transform="translate(1459.326172 0.015625)"/>
     <use xlink:href="#DejaVuSans-34" transform="translate(1512.5 0.015625)"/>
     <use xlink:href="#DejaVuSans-2e" transform="translate(1576.123047 0.015625)"/>
     <use xlink:href="#DejaVuSans-33" transform="translate(1607.910156 0.015625)"/>
     <use xlink:href="#DejaVuSans-30" transform="translate(1671.533203 0.015625)"/>
     <use xlink:href="#DejaVuSans-34" transform="translate(1735.15625 0.015625)"/>
     <use xlink:href="#DejaVuSans-38" transform="translate(1798.779297 0.015625)"/>
     <use xlink:href="#DejaVuSans-33" transform="translate(1862.402344 0.015625)"/>
     <use xlink:href="#DejaVuSans-37" transform="translate(1926.025391 0.015625)"/>
    </g>
   </g>
   <g id="legend_1">
    <g id="patch_5">
     <path d="M 766.765625 80.354375 
L 846.2 80.354375 
Q 848.2 80.354375 848.2 78.354375 
L 848.2 35.32 
Q 848.2 33.32 846.2 33.32 
L 766.765625 33.32 
Q 764.765625 33.32 764.765625 35.32 
L 764.765625 78.354375 
Q 764.765625 80.354375 766.765625 80.354375 
z
" style="fill: #ffffff; opacity: 0.8; stroke: #cccccc; stroke-linejoin: miter"/>
    </g>
    <g id="line2d_31">
     <path d="M 768.765625 41.418437 
L 778.765625 41.418437 
L 788.765625 41.418437 
" style="fill: none; stroke: #000000; stroke-opacity: 0.7; stroke-width: 1.5; stroke-linecap: square"/>
    </g>
    <g id="text_22">
     <!-- actual -->
     <g transform="translate(796.765625 44.918437) scale(0.1 -0.1)">
      <use xlink:href="#DejaVuSans-61"/>
      <use xlink:href="#DejaVuSans-63" x="61.279297"/>
      <use xlink:href="#DejaVuSans-74" x="116.259766"/>
      <use xlink:href="#DejaVuSans-75" x="155.46875"/>
      <use xlink:href="#DejaVuSans-61" x="218.847656"/>
      <use xlink:href="#DejaVuSans-6c" x="280.126953"/>
     </g>
    </g>
    <g id="line2d_32">
     <path d="M 768.765625 56.096563 
L 778.765625 56.096563 
L 788.765625 56.096563 
" style="fill: none; stroke-dasharray: 5.55,2.4; stroke-dashoffset: 0; stroke: #8b0000; stroke-opacity: 0.7; stroke-width: 1.5"/>
    </g>
    <g id="text_23">
     <!-- predicted -->
     <g transform="translate(796.765625 59.596563) scale(0.1 -0.1)">
      <defs>
       <path id="DejaVuSans-70" d="M 1159 525 
L 1159 -1331 
L 581 -1331 
L 581 3500 
L 1159 3500 
L 1159 2969 
Q 1341 3281 1617 3432 
Q 1894 3584 2278 3584 
Q 2916 3584 3314 3078 
Q 3713 2572 3713 1747 
Q 3713 922 3314 415 
Q 2916 -91 2278 -91 
Q 1894 -91 1617 61 
Q 1341 213 1159 525 
z
M 3116 1747 
Q 3116 2381 2855 2742 
Q 2594 3103 2138 3103 
Q 1681 3103 1420 2742 
Q 1159 2381 1159 1747 
Q 1159 1113 1420 752 
Q 1681 391 2138 391 
Q 2594 391 2855 752 
Q 3116 1113 3116 1747 
z
" transform="scale(0.015625)"/>
      </defs>
      <use xlink:href="#DejaVuSans-70"/>
      <use xlink:href="#DejaVuSans-72" x="63.476562"/>
      <use xlink:href="#DejaVuSans-65" x="102.339844"/>
      <use xlink:href="#DejaVuSans-64" x="163.863281"/>
      <use xlink:href="#DejaVuSans-69" x="227.339844"/>
      <use xlink:href="#DejaVuSans-63" x="255.123047"/>
      <use xlink:href="#DejaVuSans-74" x="310.103516"/>
      <use xlink:href="#DejaVuSans-65" x="349.3125"/>
      <use xlink:href="#DejaVuSans-64" x="410.835938"/>
     </g>
    </g>
    <g id="patch_6">
     <path d="M 768.765625 74.274687 
L 788.765625 74.274687 
L 788.765625 67.274687 
L 768.765625 67.274687 
z
" style="fill: #8b0000; fill-opacity: 0.3; stroke: #8b0000; stroke-opacity: 0.3; stroke-linejoin: miter"/>
    </g>
    <g id="text_24">
     <!-- +/- 1-std -->
     <g transform="translate(796.765625 74.274687) scale(0.1 -0.1)">
      <defs>
       <path id="DejaVuSans-2b" d="M 2944 4013 
L 2944 2272 
L 4684 2272 
L 4684 1741 
L 2944 1741 
L 2944 0 
L 2419 0 
L 2419 1741 
L 678 1741 
L 678 2272 
L 2419 2272 
L 2419 4013 
L 2944 4013 
z
" transform="scale(0.015625)"/>
      </defs>
      <use xlink:href="#DejaVuSans-2b"/>
      <use xlink:href="#DejaVuSans-2f" x="83.789062"/>
      <use xlink:href="#DejaVuSans-2d" x="117.480469"/>
      <use xlink:href="#DejaVuSans-20" x="153.564453"/>
      <use xlink:href="#DejaVuSans-31" x="185.351562"/>
      <use xlink:href="#DejaVuSans-2d" x="248.974609"/>
      <use xlink:href="#DejaVuSans-73" x="285.058594"/>
      <use xlink:href="#DejaVuSans-74" x="337.158203"/>
      <use xlink:href="#DejaVuSans-64" x="376.367188"/>
     </g>
    </g>
   </g>
  </g>
 </g>
 <defs>
  <clipPath id="p3bef03efb8">
   <rect x="50.042" y="28.32" width="803.158" height="280.472"/>
  </clipPath>
 </defs>
</svg>
