<svg xmlns="http://www.w3.org/2000/svg" xmlns:xlink="http://www.w3.org/1999/xlink" xmlns:lucid="lucid" width="1266.33" height="1683"><g transform="translate(161.5 -38.5)" lucid:page-tab-id="0_0"><path d="M248 60c17.67 0 32 17.9 32 40s-14.33 40-32 40h-96c-17.67 0-32-17.9-32-40s14.33-40 32-40z" stroke="#5e5e5e" stroke-width="3" fill="#fff"/><use xlink:href="#a" transform="matrix(1,0,0,1,125,65) translate(51.574074074074076 39.65277777777778)"/><path d="M110.45 185.8A7.8 7.8 0 0 1 118 180h196a4.6 4.6 0 0 1 4.45 5.8l-28.9 108.4A7.8 7.8 0 0 1 282 300H86a4.6 4.6 0 0 1-4.45-5.8z" stroke="#5e5e5e" stroke-width="3" fill="#6f7681"/><use xlink:href="#b" transform="matrix(1,0,0,1,85,185) translate(36.61611111111112 59.02777777777778)"/><use xlink:href="#c" transform="matrix(1,0,0,1,85,185) translate(89.6408024691358 59.02777777777778)"/><path d="M-20 288c0 6.63-26.86 12-60 12s-60-5.37-60-12v-96c0-6.63 26.86-12 60-12s60 5.37 60 12z" stroke="#5e5e5e" stroke-width="3" fill="#ced4db"/><path d="M-20 192c0 6.63-26.86 12-60 12s-60-5.37-60-12" stroke="#5e5e5e" stroke-width="3" fill="none"/><use xlink:href="#d" transform="matrix(1,0,0,1,-135,209) translate(23.580246913580254 33.90277777777778)"/><use xlink:href="#e" transform="matrix(1,0,0,1,-135,209) translate(9.320987654320987 60.56944444444445)"/><path d="M100 386a6 6 0 0 1 6-6h188a6 6 0 0 1 6 6v108a6 6 0 0 1-6 6H106a6 6 0 0 1-6-6z" stroke="#5e5e5e" stroke-width="3" fill="#f2f3f5"/><use xlink:href="#f" transform="matrix(1,0,0,1,112,392) translate(17.722222222222214 53.77777777777778)"/><use xlink:href="#g" transform="matrix(1,0,0,1,112,392) translate(70.74691358024691 53.77777777777778)"/><path d="M100 586a6 6 0 0 1 6-6h188a6 6 0 0 1 6 6v108a6 6 0 0 1-6 6H106a6 6 0 0 1-6-6z" stroke="#5e5e5e" stroke-width="3" fill="#f2f3f5"/><use xlink:href="#h" transform="matrix(1,0,0,1,112,592) translate(6.672839506172835 38.77777777777778)"/><use xlink:href="#i" transform="matrix(1,0,0,1,112,592) translate(94.2037037037037 38.77777777777778)"/><use xlink:href="#j" transform="matrix(1,0,0,1,112,592) translate(66.39506172839506 65.44444444444446)"/><path d="M100 786a6 6 0 0 1 6-6h188a6 6 0 0 1 6 6v108a6 6 0 0 1-6 6H106a6 6 0 0 1-6-6z" stroke="#5e5e5e" stroke-width="3" fill="#f2f3f5"/><use xlink:href="#k" transform="matrix(1,0,0,1,112,792) translate(3 53.77777777777778)"/><use xlink:href="#l" transform="matrix(1,0,0,1,112,792) translate(85.53086419753086 53.77777777777778)"/><path d="M100 986a6 6 0 0 1 6-6h188a6 6 0 0 1 6 6v108a6 6 0 0 1-6 6H106a6 6 0 0 1-6-6z" stroke="#5e5e5e" stroke-width="3" fill="#f2f3f5"/><use xlink:href="#m" transform="matrix(1,0,0,1,112,992) translate(41.76543209876543 53.77777777777778)"/><use xlink:href="#j" transform="matrix(1,0,0,1,112,992) translate(91.0246913580247 53.77777777777778)"/><path d="M600 157.16a6 6 0 0 1 6-6h308a6 6 0 0 1 6 6v108a6 6 0 0 1-6 6H606a6 6 0 0 1-6-6z" stroke="#5e5e5e" stroke-width="3" fill="#f2f3f5"/><use xlink:href="#n" transform="matrix(1,0,0,1,612.0000000000003,163.15740740740728) translate(19.666666666666657 53.77777777777778)"/><use xlink:href="#o" transform="matrix(1,0,0,1,612.0000000000003,163.15740740740728) translate(89.91358024691357 53.77777777777778)"/><use xlink:href="#p" transform="matrix(1,0,0,1,612.0000000000003,163.15740740740728) translate(215.96296296296296 53.77777777777778)"/><path d="M600 553.05a6 6 0 0 1 6-6h308a6 6 0 0 1 6 6v108a6 6 0 0 1-6 6H606a6 6 0 0 1-6-6z" stroke="#5e5e5e" stroke-width="3" fill="#f2f3f5"/><use xlink:href="#q" transform="matrix(1,0,0,1,612,559.0524691358024) translate(89.91358024691358 53.77777777777778)"/><use xlink:href="#p" transform="matrix(1,0,0,1,612,559.0524691358024) translate(145.71604938271605 53.77777777777778)"/><path d="M755.36 751.75a7.33 7.33 0 0 1 9.28 0l100.72 82.4a4.9 4.9 0 0 1 0 7.6l-100.72 82.4a7.33 7.33 0 0 1-9.28 0l-100.72-82.4a4.9 4.9 0 0 1 0-7.6z" stroke="#5e5e5e" stroke-width="3" fill="#ffd9d9"/><use xlink:href="#r" transform="matrix(1,0,0,1,655,752.9475308641976) translate(53.245740740740736 60.27777777777778)"/><use xlink:href="#s" transform="matrix(1,0,0,1,655,752.9475308641976) translate(138.24574074074073 60.27777777777778)"/><use xlink:href="#t" transform="matrix(1,0,0,1,655,752.9475308641976) translate(69.20253086419753 86.94444444444446)"/><use xlink:href="#u" transform="matrix(1,0,0,1,655,752.9475308641976) translate(47.65932098765432 113.61111111111111)"/><path d="M660 1014.84a6 6 0 0 1 6-6h188a6 6 0 0 1 6 6v108a6 6 0 0 1-6 6H666a6 6 0 0 1-6-6z" stroke="#5e5e5e" stroke-width="3" fill="#f2f3f5"/><use xlink:href="#v" transform="matrix(1,0,0,1,672.0000000000003,1020.8425925925926) translate(10.901234567901241 38.77777777777778)"/><use xlink:href="#w" transform="matrix(1,0,0,1,672.0000000000003,1020.8425925925926) translate(86.08641975308642 38.77777777777778)"/><use xlink:href="#x" transform="matrix(1,0,0,1,672.0000000000003,1020.8425925925926) translate(123.12345679012346 38.77777777777778)"/><use xlink:href="#y" transform="matrix(1,0,0,1,672.0000000000003,1020.8425925925926) translate(61.48765432098766 65.44444444444446)"/><path d="M660 1226a6 6 0 0 1 6-6h188a6 6 0 0 1 6 6v108a6 6 0 0 1-6 6H666a6 6 0 0 1-6-6z" stroke="#5e5e5e" stroke-width="3" fill="#f2f3f5"/><use xlink:href="#z" transform="matrix(1,0,0,1,672,1232) translate(3.9567901234567984 38.77777777777778)"/><use xlink:href="#A" transform="matrix(1,0,0,1,672,1232) translate(110.31481481481481 38.77777777777778)"/><use xlink:href="#j" transform="matrix(1,0,0,1,672,1232) translate(66.39506172839506 65.44444444444446)"/><path d="M640 1406a6 6 0 0 1 6-6h228a6 6 0 0 1 6 6v118.67a6 6 0 0 1-6 6H646a6 6 0 0 1-6-6z" stroke="#5e5e5e" stroke-width="3" fill="#f2f3f5"/><use xlink:href="#B" transform="matrix(1,0,0,1,652.0000000000003,1412) translate(13.709876543209873 44.52777777777778)"/><use xlink:href="#C" transform="matrix(1,0,0,1,652.0000000000003,1412) translate(111.05555555555556 44.52777777777778)"/><use xlink:href="#D" transform="matrix(1,0,0,1,652.0000000000003,1412) translate(1.3024691358024683 71.19444444444446)"/><use xlink:href="#E" transform="matrix(1,0,0,1,652.0000000000003,1412) translate(50.68518518518518 71.19444444444446)"/><use xlink:href="#F" transform="matrix(1,0,0,1,652.0000000000003,1412) translate(128.4012345679012 71.19444444444446)"/><use xlink:href="#j" transform="matrix(1,0,0,1,652.0000000000003,1412) translate(171.48765432098764 71.19444444444446)"/><path d="M808 1620c17.67 0 32 17.9 32 40s-14.33 40-32 40h-96c-17.67 0-32-17.9-32-40s14.33-40 32-40z" stroke="#5e5e5e" stroke-width="3" fill="#fff"/><use xlink:href="#G" transform="matrix(1,0,0,1,685,1625) translate(55.24691358024691 39.65277777777778)"/><path d="M200 142.5V160" stroke="#5e5e5e" stroke-width="2" fill="none"/><path d="M201 142.53h-2v-1.03h2z" stroke="#5e5e5e" stroke-width=".05" fill="#5e5e5e"/><path d="M200 175.26L195.37 161h9.26z" stroke="#5e5e5e" stroke-width="2" fill="#5e5e5e"/><path d="M200 302.5V360" stroke="#5e5e5e" stroke-width="2" fill="none"/><path d="M201 302.53h-2v-1.03h2z" stroke="#5e5e5e" stroke-width=".05" fill="#5e5e5e"/><path d="M200 375.26L195.37 361h9.26z" stroke="#5e5e5e" stroke-width="2" fill="#5e5e5e"/><path d="M200 502.5V560" stroke="#5e5e5e" stroke-width="2" fill="none"/><path d="M201 502.53h-2v-1.03h2z" stroke="#5e5e5e" stroke-width=".05" fill="#5e5e5e"/><path d="M200 575.26L195.37 561h9.26z" stroke="#5e5e5e" stroke-width="2" fill="#5e5e5e"/><path d="M200 702.5V760" stroke="#5e5e5e" stroke-width="2" fill="none"/><path d="M201 702.53h-2v-1.03h2z" stroke="#5e5e5e" stroke-width=".05" fill="#5e5e5e"/><path d="M200 775.26L195.37 761h9.26z" stroke="#5e5e5e" stroke-width="2" fill="#5e5e5e"/><path d="M200 902.5V960" stroke="#5e5e5e" stroke-width="2" fill="none"/><path d="M201 902.53h-2v-1.03h2z" stroke="#5e5e5e" stroke-width=".05" fill="#5e5e5e"/><path d="M200 975.26L195.37 961h9.26z" stroke="#5e5e5e" stroke-width="2" fill="#5e5e5e"/><path d="M580 212.16H464.54l-.82.06-.76.2-.73.3-.67.4-.6.5-.5.6-.4.67-.3.7-.2.78-.06.82v816.84l-.08 1.06-.26 1.06-.42 1.02-.57.94-.72.83-.83.72-.94.57-1.02.42-1.06.26-1.06.08H302.5v-2h149.96l.82-.07.76-.18.73-.3.67-.4.6-.52.5-.6.4-.66.3-.73.2-.76.06-.82V217.12l.08-1.06.26-1.07.42-1.02.57-.94.72-.83.83-.7.94-.58 1.02-.42 1.06-.26 1.06-.08H580z" stroke="#5e5e5e" stroke-width=".05" fill="#5e5e5e"/><path d="M302.53 1041h-1.03v-2h1.03z" fill="#5e5e5e"/><path d="M302.55 1041.03h-1.07v-2.06h1.07zm-1.03-2v1.94h.98v-1.94z" stroke="#5e5e5e" stroke-width=".05" fill="#5e5e5e"/><path d="M595.26 211.16L581 215.8v-9.28z" fill="#5e5e5e"/><path d="M598.5 211.16l-18.5 6v-12zm-16.5 3.26l10.03-3.26L582 207.9z" stroke="#5e5e5e" stroke-width=".05" fill="#5e5e5e"/><path d="M760 669.55v60.53" stroke="#5e5e5e" stroke-width="2" fill="none"/><path d="M761 669.58h-2v-1.03h2z" stroke="#5e5e5e" stroke-width=".05" fill="#5e5e5e"/><path d="M760 745.35l-4.63-14.27h9.26z" stroke="#5e5e5e" stroke-width="2" fill="#5e5e5e"/><path d="M761 988.84h-2v-32.7h2zm0-54.02h-2v-6.5h2z" stroke="#5e5e5e" stroke-width=".05" fill="#5e5e5e"/><path d="M760 927.3l1-.06v1.1h-2v-1.1z" fill="#5e5e5e"/><path d="M760 927.28l1.02-.07v1.16H759v-1.15zm-.98 1.03H761v-1.03l-.98.06-.98-.06z" stroke="#5e5e5e" stroke-width=".05" fill="#5e5e5e"/><path d="M760 1004.1l-4.63-14.26h9.26z" fill="#5e5e5e"/><path d="M760 1007.34l-6-18.5h12zm-3.26-16.5l3.26 10.03 3.26-10.03z" stroke="#5e5e5e" stroke-width=".05" fill="#5e5e5e"/><use xlink:href="#H" transform="matrix(1,0,0,1,744.6913580246913,934.8174580257306) translate(0.005000000000000782 14.222222222222223)"/><path d="M559.5 831.9l.07.83.18.76.3.72.4.66.52.6.6.5.66.42.73.3.76.18.82.07h85.8v2h-85.88l-1.06-.1-1.06-.24-1.02-.4-.94-.6-.83-.7-.72-.84-.57-.93-.42-1.02-.26-1.06-.08-1.05V726.5h2zM580 608.06h-15.46l-.82.07-.76.18-.73.3-.67.4-.6.52-.5.6-.4.66-.3.73-.2.77-.06.82v92.07h-2V613l.08-1.04.26-1.07.42-1.03.57-.93.72-.84.83-.7.94-.6 1.02-.4 1.06-.26 1.06-.1H580z" stroke="#e81313" stroke-width=".05" fill="#e81313"/><path d="M651.34 837.95l.1 1h-1.13v-2h1.13z" fill="#e81313"/><path d="M651.36 837.95l.1 1.02h-1.17v-2.05h1.15zm-1.02-.98v1.95h1.06l-.1-.97.1-.98z" stroke="#e81313" stroke-width=".05" fill="#e81313"/><path d="M595.26 607.05L581 611.7v-9.28z" fill="#e81313"/><path d="M598.5 607.05l-18.5 6v-12zM582 610.3l10.03-3.25L582 603.8z" stroke="#e81313" stroke-width=".05" fill="#e81313"/><use xlink:href="#I" transform="matrix(1,0,0,1,546.697580864197,705.174444648451) translate(0.005000000000000782 14.222222222222223)"/><path d="M760 1131.34V1200" stroke="#5e5e5e" stroke-width="2" fill="none"/><path d="M761 1131.37h-2v-1.03h2z" stroke="#5e5e5e" stroke-width=".05" fill="#5e5e5e"/><path d="M760 1215.26l-4.63-14.26h9.26z" stroke="#5e5e5e" stroke-width="2" fill="#5e5e5e"/><path d="M760 1342.5v37.5" stroke="#5e5e5e" stroke-width="2" fill="none"/><path d="M761 1342.53h-2v-1.03h2z" stroke="#5e5e5e" stroke-width=".05" fill="#5e5e5e"/><path d="M760 1395.26l-4.63-14.26h9.26z" stroke="#5e5e5e" stroke-width="2" fill="#5e5e5e"/><path d="M760 1533.17V1600" stroke="#5e5e5e" stroke-width="2" fill="none"/><path d="M761 1533.2h-2v-1.03h2z" stroke="#5e5e5e" stroke-width=".05" fill="#5e5e5e"/><path d="M760 1615.26l-4.63-14.26h9.26z" stroke="#5e5e5e" stroke-width="2" fill="#5e5e5e"/><path d="M-17.5 240h93.45" stroke="#5e5e5e" stroke-width="2" fill="none"/><path d="M-17.47 241h-1.03v-2h1.03z" stroke="#5e5e5e" stroke-width=".05" fill="#5e5e5e"/><path d="M91.2 240l-14.25 4.63v-9.26z" stroke="#5e5e5e" stroke-width="2" fill="#5e5e5e"/><g fill="none"><path d="M41.5 340.75a.75.75 0 0 1 .75.75v797a.75.75 0 0 1-.75.75.75.75 0 0 1-.75-.75v-797a.75.75 0 0 1 .75-.75z"/><path d="M42.25 371.02v29.52m0 14.76v29.5m0 14.77v29.52m0 14.75v29.52m0 14.76v29.52m0 14.76v29.53m0 14.76v29.5m0 14.76v29.52m0 14.76v29.52m0 14.76v29.52m0 14.76v29.52m0 14.75v29.52m0 14.75v29.52m0 14.76v29.52m0 14.76v29.53m0 14.76v29.5m0 14.76v29.52m0 14.76V1138.62l-.04.1-.03.12-.06.1-.07.1-.1.07-.1.07-.1.04-.1.04h-.25l-.1-.03-.12-.03-.1-.06-.1-.07-.07-.1-.07-.1-.04-.1-.04-.1v-14.89m0-14.76v-29.52m0-14.76v-29.52m0-14.75V990.9m0-14.75v-29.52m0-14.76v-29.52m0-14.76v-29.53m0-14.76v-29.5m0-14.76v-29.52m0-14.76v-29.52m0-14.76v-29.52m0-14.76v-29.52m0-14.75V592.4m0-14.75v-29.52m0-14.76v-29.52m0-14.76v-29.53m0-14.76v-29.5m0-14.76v-29.52m0-14.76V341.38l.03-.1.03-.12.06-.1.07-.1.1-.07.1-.07.1-.04.1-.04h.25l.1.03.12.03.1.06.1.07.07.1.07.1.04.1.04.1v14.89" stroke="#5e5e5e" stroke-width="1.5"/></g><g fill="none"><path d="M361.5 340.75a.75.75 0 0 1 .75.75v797a.75.75 0 0 1-.75.75.75.75 0 0 1-.75-.75v-797a.75.75 0 0 1 .75-.75z"/><path d="M362.25 371.02v29.52m0 14.76v29.5m0 14.77v29.52m0 14.75v29.52m0 14.76v29.52m0 14.76v29.53m0 14.76v29.5m0 14.76v29.52m0 14.76v29.52m0 14.76v29.52m0 14.76v29.52m0 14.75v29.52m0 14.75v29.52m0 14.76v29.52m0 14.76v29.53m0 14.76v29.5m0 14.76v29.52m0 14.76V1138.62l-.04.1-.03.12-.06.1-.07.1-.1.07-.1.07-.1.04-.1.04h-.25l-.1-.03-.12-.03-.1-.06-.1-.07-.07-.1-.07-.1-.04-.1-.04-.1v-14.89m0-14.76v-29.52m0-14.76v-29.52m0-14.75V990.9m0-14.75v-29.52m0-14.76v-29.52m0-14.76v-29.53m0-14.76v-29.5m0-14.76v-29.52m0-14.76v-29.52m0-14.76v-29.52m0-14.76v-29.52m0-14.75V592.4m0-14.75v-29.52m0-14.76v-29.52m0-14.76v-29.53m0-14.76v-29.5m0-14.76v-29.52m0-14.76V341.38l.03-.1.03-.12.06-.1.07-.1.1-.07.1-.07.1-.04.1-.04h.25l.1.03.12.03.1.06.1.07.07.1.07.1.04.1.04.1v14.89" stroke="#5e5e5e" stroke-width="1.5"/></g><path d="M40.75 341.5a.75.75 0 0 1 .75-.75h317a.75.75 0 0 1 .75.75.75.75 0 0 1-.75.75h-317a.75.75 0 0 1-.75-.75z" fill="none"/><path d="M71.7 340.75h30.18m15.1 0h30.2m15.08 0h30.2m15.1 0h30.18m15.1 0H283m15.1 0h30.2m15.08 0H358.63l.1.04.12.03.1.06.1.07.07.1.07.1.04.1.04.1v.25l-.03.1-.03.12-.06.1-.07.1-.1.07-.1.07-.1.04-.1.04H343.4m-15.1 0h-30.18m-15.1 0h-30.2m-15.08 0h-30.2m-15.1 0h-30.18m-15.1 0H117m-15.1 0h-30.2m-15.1 0H41.4l-.1-.03-.12-.03-.1-.06-.1-.07-.07-.1-.07-.1-.04-.1-.04-.1v-.25l.03-.1.03-.12.06-.1.07-.1.1-.07.1-.07.1-.04.1-.04H56.6" stroke="#5e5e5e" stroke-width="1.5" fill="none"/><path d="M40.75 1138.5a.75.75 0 0 1 .75-.75h320a.75.75 0 0 1 .75.75.75.75 0 0 1-.75.75h-320a.75.75 0 0 1-.75-.75z" fill="none"/><path d="M71.98 1137.75h30.47m15.24 0h30.47m15.24 0h30.48m15.24 0h30.47m15.23 0h30.48m15.25 0h30.47m15.24 0h15.36l.1.04.12.03.1.06.1.07.07.1.07.1.04.1.04.1v.25l-.03.1-.03.12-.06.1-.07.1-.1.07-.1.07-.1.04-.1.04H346.25m-15.24 0h-30.47m-15.24 0h-30.47m-15.24 0h-30.48m-15.24 0H163.4m-15.23 0H117.7m-15.25 0H71.98m-15.24 0H41.38l-.1-.03-.12-.03-.1-.06-.1-.07-.07-.1-.07-.1-.04-.1-.04-.1v-.25l.03-.1.03-.12.06-.1.07-.1.1-.07.1-.07.1-.04.1-.04H56.75" stroke="#5e5e5e" stroke-width="1.5" fill="none"/><g fill="none"><path d="M500 105.75a.75.75 0 0 1 .75.75v1052a.75.75 0 0 1-.75.75.75.75 0 0 1-.75-.75v-1052a.75.75 0 0 1 .75-.75z"/><path d="M500.75 137v30.5m0 15.23v30.5m0 15.24v30.5m0 15.24v30.5m0 15.25v30.5m0 15.24v30.48m0 15.25v30.5m0 15.24v30.5m0 15.24v30.5m0 15.24v30.5m0 15.24v30.5m0 15.24v30.5m0 15.24v30.5m0 15.24v30.5m0 15.24v30.5m0 15.24v30.5m0 15.24v30.5m0 15.24v30.5m0 15.24v30.5m0 15.24v30.5m0 15.23v30.5m0 15.24v30.5m0 15.25v15.37l-.04.1-.03.12-.06.1-.07.1-.1.07-.1.07-.1.04-.1.04h-.25l-.1-.03-.12-.03-.1-.06-.1-.07-.07-.1-.07-.1-.04-.1-.04-.1v-15.38m0-15.24v-30.5m0-15.23v-30.5m0-15.24v-30.5m0-15.24v-30.5m0-15.25v-30.5m0-15.24v-30.48m0-15.25v-30.5m0-15.24v-30.5m0-15.24v-30.5m0-15.25v-30.5m0-15.23v-30.5m0-15.24v-30.5m0-15.24v-30.5m0-15.24v-30.5m0-15.24v-30.5m0-15.24v-30.5m0-15.24v-30.5m0-15.24v-30.5m0-15.24v-30.5m0-15.24v-30.5m0-15.24v-30.5m0-15.23V137m0-15.25v-15.37l.03-.1.03-.12.06-.1.07-.1.1-.07.1-.07.1-.04.1-.04h.25l.1.03.12.03.1.06.1.07.07.1.07.1.04.1.04.1v15.38" stroke="#5e5e5e" stroke-width="1.5"/></g><g fill="none"><path d="M1010 105.75a.75.75 0 0 1 .75.75v1052a.75.75 0 0 1-.75.75.75.75 0 0 1-.75-.75v-1052a.75.75 0 0 1 .75-.75z"/><path d="M1010.75 137v30.5m0 15.23v30.5m0 15.24v30.5m0 15.24v30.5m0 15.25v30.5m0 15.24v30.48m0 15.25v30.5m0 15.24v30.5m0 15.24v30.5m0 15.24v30.5m0 15.24v30.5m0 15.24v30.5m0 15.24v30.5m0 15.24v30.5m0 15.24v30.5m0 15.24v30.5m0 15.24v30.5m0 15.24v30.5m0 15.24v30.5m0 15.24v30.5m0 15.23v30.5m0 15.24v30.5m0 15.25v15.37l-.04.1-.03.12-.06.1-.07.1-.1.07-.1.07-.1.04-.1.04h-.25l-.1-.03-.12-.03-.1-.06-.1-.07-.07-.1-.07-.1-.04-.1-.04-.1v-15.38m0-15.24v-30.5m0-15.23v-30.5m0-15.24v-30.5m0-15.24v-30.5m0-15.25v-30.5m0-15.24v-30.48m0-15.25v-30.5m0-15.24v-30.5m0-15.24v-30.5m0-15.25v-30.5m0-15.23v-30.5m0-15.24v-30.5m0-15.24v-30.5m0-15.24v-30.5m0-15.24v-30.5m0-15.24v-30.5m0-15.24v-30.5m0-15.24v-30.5m0-15.24v-30.5m0-15.24v-30.5m0-15.24v-30.5m0-15.23V137m0-15.25v-15.37l.03-.1.03-.12.06-.1.07-.1.1-.07.1-.07.1-.04.1-.04h.25l.1.03.12.03.1.06.1.07.07.1.07.1.04.1.04.1v15.38" stroke="#5e5e5e" stroke-width="1.5"/></g><path d="M499.25 103.5a.75.75 0 0 1 .75-.75h508.5a.75.75 0 0 1 .75.75.75.75 0 0 1-.75.75H500a.75.75 0 0 1-.75-.75z" fill="none"/><path d="M530.82 102.75h30.82m15.4 0h30.82m15.4 0h30.83m15.4 0h30.82m15.4 0h30.82m15.42 0h30.8m15.42 0H839m15.4 0h30.83m15.4 0h30.83m15.4 0h30.82m15.4 0h15.54l.1.04.12.03.1.06.1.07.07.1.07.1.04.1.04.1v.25l-.03.1-.03.12-.06.1-.07.1-.1.07-.1.07-.1.04-.1.04H993.1m-15.42 0h-30.82m-15.4 0h-30.82m-15.4 0H854.4m-15.4 0h-30.82m-15.4 0h-30.82m-15.42 0h-30.8m-15.42 0H669.5m-15.4 0h-30.83m-15.4 0h-30.83m-15.4 0h-30.82m-15.4 0h-15.54l-.1-.03-.12-.03-.1-.06-.1-.07-.07-.1-.07-.1-.04-.1-.04-.1v-.25l.03-.1.03-.12.06-.1.07-.1.1-.07.1-.07.1-.04.1-.04H515.4" stroke="#5e5e5e" stroke-width="1.5" fill="none"/><path d="M502.25 1161.5a.75.75 0 0 1 .75-.75h505.5a.75.75 0 0 1 .75.75.75.75 0 0 1-.75.75H503a.75.75 0 0 1-.75-.75z" fill="none"/><path d="M533.64 1160.75h30.63m15.32 0h30.63m15.3 0h30.65m15.32 0h30.64m15.32 0h30.63m15.3 0h30.64m15.32 0H840m15.32 0h30.63m15.32 0h30.64m15.33 0h30.63m15.32 0h15.44l.1.04.12.03.1.06.1.07.07.1.07.1.04.1.04.1v.25l-.03.1-.03.12-.06.1-.07.1-.1.07-.1.07-.1.04-.1.04H993.17m-15.32 0h-30.63m-15.32 0h-30.63m-15.3 0H855.3m-15.32 0h-30.64m-15.32 0H763.4m-15.3 0h-30.64m-15.32 0H671.5m-15.32 0h-30.63m-15.32 0H579.6m-15.33 0h-30.63m-15.32 0h-15.44l-.1-.03-.12-.03-.1-.06-.1-.07-.07-.1-.07-.1-.04-.1-.04-.1v-.25l.03-.1.03-.12.06-.1.07-.1.1-.07.1-.07.1-.04.1-.04H518.33" stroke="#5e5e5e" stroke-width="1.5" fill="none"/><g><path d="M-14 720a6 6 0 0 1-6-6V486a6 6 0 0 1 6-6h48a6 6 0 0 1 6 6v228a6 6 0 0 1-6 6z" stroke="#000" stroke-opacity="0" stroke-width="3" fill="#fff" fill-opacity="0"/></g><g><use xlink:href="#J" transform="matrix(6.123233995736766e-17,-1,1,6.123233995736766e-17,-15.000000000000114,715) translate(44.10493827160494 30.27777777777778)"/></g><g><path d="M1026 763a6 6 0 0 1-6-6V406a6 6 0 0 1 6-6h51.33a6 6 0 0 1 6 6v351a6 6 0 0 1-6 6z" stroke="#000" stroke-opacity="0" stroke-width="3" fill="#fff" fill-opacity="0"/></g><g><use xlink:href="#K" transform="matrix(6.123233995736766e-17,-1,1,6.123233995736766e-17,1025,758) translate(135.85185185185185 31.27777777777778)"/></g><g><path d="M418.42 676.8a6 6 0 0 1-6-6V531a6 6 0 0 1 6-6h24.66a6 6 0 0 1 6 6v139.8a6 6 0 0 1-6 6z" fill="#fff" fill-opacity="0"/></g><g><use xlink:href="#L" transform="matrix(6.123233995736766e-17,-1,1,6.123233995736766e-17,417.41669166666645,671.7901234567903) translate(2.0493827160493936 17.77777777777778)"/><use xlink:href="#M" transform="matrix(6.123233995736766e-17,-1,1,6.123233995736766e-17,417.41669166666645,671.7901234567903) translate(94.39506172839506 17.77777777777778)"/></g><path d="M660 352.16a6 6 0 0 1 6-6h188a6 6 0 0 1 6 6v108a6 6 0 0 1-6 6H666a6 6 0 0 1-6-6z" stroke="#5e5e5e" stroke-width="3" fill="#f2f3f5"/><g><use xlink:href="#N" transform="matrix(1,0,0,1,672.0000000000001,358.1574074074073) translate(55.96296296296296 38.77777777777778)"/><use xlink:href="#O" transform="matrix(1,0,0,1,672.0000000000001,358.1574074074073) translate(4.172839506172849 65.44444444444446)"/></g><path d="M760 273.66v52.5" stroke="#5e5e5e" stroke-width="2" fill="none"/><path d="M761 273.68h-2v-1.02h2z" stroke="#5e5e5e" stroke-width=".05" fill="#5e5e5e"/><path d="M760 341.42l-4.63-14.26h9.26z" stroke="#5e5e5e" stroke-width="2" fill="#5e5e5e"/><path d="M760 468.66v58.4" stroke="#5e5e5e" stroke-width="2" fill="none"/><path d="M761 468.68h-2v-1.02h2z" stroke="#5e5e5e" stroke-width=".05" fill="#5e5e5e"/><path d="M760 542.32l-4.63-14.27h9.26z" stroke="#5e5e5e" stroke-width="2" fill="#5e5e5e"/><path d="M200 1102.5v356.83a6 6 0 0 0 6 6h414" stroke="#5e5e5e" stroke-width="2" fill="none"/><path d="M201 1102.53h-2v-1.03h2z" stroke="#5e5e5e" stroke-width=".05" fill="#5e5e5e"/><path d="M635.26 1465.33l-14.26 4.64v-9.27z" stroke="#5e5e5e" stroke-width="2" fill="#5e5e5e"/><path d="M300 1426a6 6 0 0 1 6-6h186.5a6 6 0 0 1 6 6v51.33a6 6 0 0 1-6 6H306a6 6 0 0 1-6-6z" fill="#fff" fill-opacity="0"/><g><use xlink:href="#P" transform="matrix(1,0,0,1,305,1425) translate(16.290123456790127 17.77777777777778)"/><use xlink:href="#M" transform="matrix(1,0,0,1,305,1425) translate(127.15432098765433 17.77777777777778)"/></g><defs><path fill="#333" d="M185-189c-5-48-123-54-124 2 14 75 158 14 163 119 3 78-121 87-175 55-17-10-28-26-33-46l33-7c5 56 141 63 141-1 0-78-155-14-162-118-5-82 145-84 179-34 5 7 8 16 11 25" id="Q"/><path fill="#333" d="M59-47c-2 24 18 29 38 22v24C64 9 27 4 27-40v-127H5v-23h24l9-43h21v43h35v23H59v120" id="R"/><path fill="#333" d="M141-36C126-15 110 5 73 4 37 3 15-17 15-53c-1-64 63-63 125-63 3-35-9-54-41-54-24 1-41 7-42 31l-33-3c5-37 33-52 76-52 45 0 72 20 72 64v82c-1 20 7 32 28 27v20c-31 9-61-2-59-35zM48-53c0 20 12 33 32 33 41-3 63-29 60-74-43 2-92-5-92 41" id="S"/><path fill="#333" d="M114-163C36-179 61-72 57 0H25l-1-190h30c1 12-1 29 2 39 6-27 23-49 58-41v29" id="T"/><g id="a"><use transform="matrix(0.06172839506172839,0,0,0.06172839506172839,0,0)" xlink:href="#Q"/><use transform="matrix(0.06172839506172839,0,0,0.06172839506172839,14.814814814814813,0)" xlink:href="#R"/><use transform="matrix(0.06172839506172839,0,0,0.06172839506172839,20.98765432098765,0)" xlink:href="#S"/><use transform="matrix(0.06172839506172839,0,0,0.06172839506172839,33.33333333333333,0)" xlink:href="#T"/><use transform="matrix(0.06172839506172839,0,0,0.06172839506172839,40.679012345679006,0)" xlink:href="#R"/></g><path fill="#fff" d="M30-248c118-7 216 8 213 122C240-48 200 0 122 0H30v-248zM63-27c89 8 146-16 146-99s-60-101-146-95v194" id="U"/><path fill="#fff" d="M141-36C126-15 110 5 73 4 37 3 15-17 15-53c-1-64 63-63 125-63 3-35-9-54-41-54-24 1-41 7-42 31l-33-3c5-37 33-52 76-52 45 0 72 20 72 64v82c-1 20 7 32 28 27v20c-31 9-61-2-59-35zM48-53c0 20 12 33 32 33 41-3 63-29 60-74-43 2-92-5-92 41" id="V"/><path fill="#fff" d="M59-47c-2 24 18 29 38 22v24C64 9 27 4 27-40v-127H5v-23h24l9-43h21v43h35v23H59v120" id="W"/><g id="b"><use transform="matrix(0.06172839506172839,0,0,0.06172839506172839,0,0)" xlink:href="#U"/><use transform="matrix(0.06172839506172839,0,0,0.06172839506172839,15.987654320987653,0)" xlink:href="#V"/><use transform="matrix(0.06172839506172839,0,0,0.06172839506172839,28.333333333333332,0)" xlink:href="#W"/><use transform="matrix(0.06172839506172839,0,0,0.06172839506172839,34.50617283950617,0)" xlink:href="#V"/></g><path fill="#fff" d="M96-169c-40 0-48 33-48 73s9 75 48 75c24 0 41-14 43-38l32 2c-6 37-31 61-74 61-59 0-76-41-82-99-10-93 101-131 147-64 4 7 5 14 7 22l-32 3c-4-21-16-35-41-35" id="X"/><path fill="#fff" d="M145-31C134-9 116 4 85 4 32 4 16-35 15-94c0-59 17-99 70-100 32-1 48 14 60 33 0-11-1-24 2-32h30l-1 268h-32zM93-21c41 0 51-33 51-76s-8-73-50-73c-40 0-46 35-46 75s5 74 45 74" id="Y"/><path fill="#fff" d="M84 4C-5 8 30-112 23-190h32v120c0 31 7 50 39 49 72-2 45-101 50-169h31l1 190h-30c-1-10 1-25-2-33-11 22-28 36-60 37" id="Z"/><path fill="#fff" d="M24-231v-30h32v30H24zM24 0v-190h32V0H24" id="aa"/><path fill="#fff" d="M135-143c-3-34-86-38-87 0 15 53 115 12 119 90S17 21 10-45l28-5c4 36 97 45 98 0-10-56-113-15-118-90-4-57 82-63 122-42 12 7 21 19 24 35" id="ab"/><path fill="#fff" d="M100-194c62-1 85 37 85 99 1 63-27 99-86 99S16-35 15-95c0-66 28-99 85-99zM99-20c44 1 53-31 53-75 0-43-8-75-51-75s-53 32-53 75 10 74 51 75" id="ac"/><path fill="#fff" d="M117-194c89-4 53 116 60 194h-32v-121c0-31-8-49-39-48C34-167 62-67 57 0H25l-1-190h30c1 10-1 24 2 32 11-22 29-35 61-36" id="ad"/><g id="c"><use transform="matrix(0.06172839506172839,0,0,0.06172839506172839,0,0)" xlink:href="#V"/><use transform="matrix(0.06172839506172839,0,0,0.06172839506172839,12.345679012345679,0)" xlink:href="#X"/><use transform="matrix(0.06172839506172839,0,0,0.06172839506172839,23.45679012345679,0)" xlink:href="#Y"/><use transform="matrix(0.06172839506172839,0,0,0.06172839506172839,35.80246913580247,0)" xlink:href="#Z"/><use transform="matrix(0.06172839506172839,0,0,0.06172839506172839,48.148148148148145,0)" xlink:href="#aa"/><use transform="matrix(0.06172839506172839,0,0,0.06172839506172839,53.02469135802469,0)" xlink:href="#ab"/><use transform="matrix(0.06172839506172839,0,0,0.06172839506172839,64.1358024691358,0)" xlink:href="#aa"/><use transform="matrix(0.06172839506172839,0,0,0.06172839506172839,69.01234567901234,0)" xlink:href="#W"/><use transform="matrix(0.06172839506172839,0,0,0.06172839506172839,75.18518518518518,0)" xlink:href="#aa"/><use transform="matrix(0.06172839506172839,0,0,0.06172839506172839,80.06172839506172,0)" xlink:href="#ac"/><use transform="matrix(0.06172839506172839,0,0,0.06172839506172839,92.4074074074074,0)" xlink:href="#ad"/></g><path fill="#333" d="M233-177c-1 41-23 64-60 70L243 0h-38l-65-103H63V0H30v-248c88 3 205-21 203 71zM63-129c60-2 137 13 137-47 0-61-80-42-137-45v92" id="ae"/><path fill="#333" d="M205 0l-28-72H64L36 0H1l101-248h38L239 0h-34zm-38-99l-47-123c-12 45-31 82-46 123h93" id="af"/><path fill="#333" d="M240 0l2-218c-23 76-54 145-80 218h-23L58-218 59 0H30v-248h44l77 211c21-75 51-140 76-211h43V0h-30" id="ag"/><g id="d"><use transform="matrix(0.06172839506172839,0,0,0.06172839506172839,0,0)" xlink:href="#ae"/><use transform="matrix(0.06172839506172839,0,0,0.06172839506172839,15.987654320987653,0)" xlink:href="#af"/><use transform="matrix(0.06172839506172839,0,0,0.06172839506172839,30.80246913580247,0)" xlink:href="#ag"/><use transform="matrix(0.06172839506172839,0,0,0.06172839506172839,49.25925925925925,0)" xlink:href="#af"/></g><path fill="#333" d="M85-194c31 0 48 13 60 33l-1-100h32l1 261h-30c-2-10 0-23-3-31C134-8 116 4 85 4 32 4 16-35 15-94c0-66 23-100 70-100zm9 24c-40 0-46 34-46 75 0 40 6 74 45 74 42 0 51-32 51-76 0-42-9-74-50-73" id="ah"/><path fill="#333" d="M115-194c53 0 69 39 70 98 0 66-23 100-70 100C84 3 66-7 56-30L54 0H23l1-261h32v101c10-23 28-34 59-34zm-8 174c40 0 45-34 45-75 0-40-5-75-45-74-42 0-51 32-51 76 0 43 10 73 51 73" id="ai"/><path fill="#333" d="M135-143c-3-34-86-38-87 0 15 53 115 12 119 90S17 21 10-45l28-5c4 36 97 45 98 0-10-56-113-15-118-90-4-57 82-63 122-42 12 7 21 19 24 35" id="aj"/><path fill="#333" d="M100-194c63 0 86 42 84 106H49c0 40 14 67 53 68 26 1 43-12 49-29l28 8c-11 28-37 45-77 45C44 4 14-33 15-96c1-61 26-98 85-98zm52 81c6-60-76-77-97-28-3 7-6 17-6 28h103" id="ak"/><g id="e"><use transform="matrix(0.06172839506172839,0,0,0.06172839506172839,0,0)" xlink:href="#ah"/><use transform="matrix(0.06172839506172839,0,0,0.06172839506172839,12.345679012345679,0)" xlink:href="#S"/><use transform="matrix(0.06172839506172839,0,0,0.06172839506172839,24.691358024691358,0)" xlink:href="#R"/><use transform="matrix(0.06172839506172839,0,0,0.06172839506172839,30.864197530864196,0)" xlink:href="#S"/><use transform="matrix(0.06172839506172839,0,0,0.06172839506172839,43.20987654320987,0)" xlink:href="#ai"/><use transform="matrix(0.06172839506172839,0,0,0.06172839506172839,55.55555555555555,0)" xlink:href="#S"/><use transform="matrix(0.06172839506172839,0,0,0.06172839506172839,67.90123456790123,0)" xlink:href="#aj"/><use transform="matrix(0.06172839506172839,0,0,0.06172839506172839,79.01234567901234,0)" xlink:href="#ak"/></g><path fill="#333" d="M30-248c118-7 216 8 213 122C240-48 200 0 122 0H30v-248zM63-27c89 8 146-16 146-99s-60-101-146-95v194" id="al"/><g id="f"><use transform="matrix(0.06172839506172839,0,0,0.06172839506172839,0,0)" xlink:href="#al"/><use transform="matrix(0.06172839506172839,0,0,0.06172839506172839,15.987654320987653,0)" xlink:href="#S"/><use transform="matrix(0.06172839506172839,0,0,0.06172839506172839,28.333333333333332,0)" xlink:href="#R"/><use transform="matrix(0.06172839506172839,0,0,0.06172839506172839,34.50617283950617,0)" xlink:href="#S"/></g><path fill="#333" d="M24 0v-261h32V0H24" id="am"/><path fill="#333" d="M96-169c-40 0-48 33-48 73s9 75 48 75c24 0 41-14 43-38l32 2c-6 37-31 61-74 61-59 0-76-41-82-99-10-93 101-131 147-64 4 7 5 14 7 22l-32 3c-4-21-16-35-41-35" id="an"/><path fill="#333" d="M24-231v-30h32v30H24zM24 0v-190h32V0H24" id="ao"/><path fill="#333" d="M100-194c62-1 85 37 85 99 1 63-27 99-86 99S16-35 15-95c0-66 28-99 85-99zM99-20c44 1 53-31 53-75 0-43-8-75-51-75s-53 32-53 75 10 74 51 75" id="ap"/><path fill="#333" d="M117-194c89-4 53 116 60 194h-32v-121c0-31-8-49-39-48C34-167 62-67 57 0H25l-1-190h30c1 10-1 24 2 32 11-22 29-35 61-36" id="aq"/><g id="g"><use transform="matrix(0.06172839506172839,0,0,0.06172839506172839,0,0)" xlink:href="#aj"/><use transform="matrix(0.06172839506172839,0,0,0.06172839506172839,11.11111111111111,0)" xlink:href="#ak"/><use transform="matrix(0.06172839506172839,0,0,0.06172839506172839,23.45679012345679,0)" xlink:href="#am"/><use transform="matrix(0.06172839506172839,0,0,0.06172839506172839,28.333333333333336,0)" xlink:href="#ak"/><use transform="matrix(0.06172839506172839,0,0,0.06172839506172839,40.67901234567901,0)" xlink:href="#an"/><use transform="matrix(0.06172839506172839,0,0,0.06172839506172839,51.79012345679013,0)" xlink:href="#R"/><use transform="matrix(0.06172839506172839,0,0,0.06172839506172839,57.96296296296297,0)" xlink:href="#ao"/><use transform="matrix(0.06172839506172839,0,0,0.06172839506172839,62.83950617283951,0)" xlink:href="#ap"/><use transform="matrix(0.06172839506172839,0,0,0.06172839506172839,75.18518518518519,0)" xlink:href="#aq"/></g><path fill="#333" d="M115-194c55 1 70 41 70 98S169 2 115 4C84 4 66-9 55-30l1 105H24l-1-265h31l2 30c10-21 28-34 59-34zm-8 174c40 0 45-34 45-75s-6-73-45-74c-42 0-51 32-51 76 0 43 10 73 51 73" id="ar"/><g id="h"><use transform="matrix(0.06172839506172839,0,0,0.06172839506172839,0,0)" xlink:href="#ae"/><use transform="matrix(0.06172839506172839,0,0,0.06172839506172839,15.987654320987653,0)" xlink:href="#ak"/><use transform="matrix(0.06172839506172839,0,0,0.06172839506172839,28.333333333333332,0)" xlink:href="#ar"/><use transform="matrix(0.06172839506172839,0,0,0.06172839506172839,40.67901234567901,0)" xlink:href="#am"/><use transform="matrix(0.06172839506172839,0,0,0.06172839506172839,45.55555555555556,0)" xlink:href="#S"/><use transform="matrix(0.06172839506172839,0,0,0.06172839506172839,57.901234567901234,0)" xlink:href="#an"/><use transform="matrix(0.06172839506172839,0,0,0.06172839506172839,69.01234567901234,0)" xlink:href="#ak"/></g><path fill="#333" d="M210-169c-67 3-38 105-44 169h-31v-121c0-29-5-50-35-48C34-165 62-65 56 0H25l-1-190h30c1 10-1 24 2 32 10-44 99-50 107 0 11-21 27-35 58-36 85-2 47 119 55 194h-31v-121c0-29-5-49-35-48" id="as"/><path fill="#333" d="M177-190C167-65 218 103 67 71c-23-6-38-20-44-43l32-5c15 47 100 32 89-28v-30C133-14 115 1 83 1 29 1 15-40 15-95c0-56 16-97 71-98 29-1 48 16 59 35 1-10 0-23 2-32h30zM94-22c36 0 50-32 50-73 0-42-14-75-50-75-39 0-46 34-46 75s6 73 46 73" id="at"/><g id="i"><use transform="matrix(0.06172839506172839,0,0,0.06172839506172839,0,0)" xlink:href="#as"/><use transform="matrix(0.06172839506172839,0,0,0.06172839506172839,18.456790123456788,0)" xlink:href="#ao"/><use transform="matrix(0.06172839506172839,0,0,0.06172839506172839,23.33333333333333,0)" xlink:href="#aj"/><use transform="matrix(0.06172839506172839,0,0,0.06172839506172839,34.44444444444444,0)" xlink:href="#aj"/><use transform="matrix(0.06172839506172839,0,0,0.06172839506172839,45.55555555555556,0)" xlink:href="#ao"/><use transform="matrix(0.06172839506172839,0,0,0.06172839506172839,50.4320987654321,0)" xlink:href="#aq"/><use transform="matrix(0.06172839506172839,0,0,0.06172839506172839,62.77777777777778,0)" xlink:href="#at"/></g><g id="j"><use transform="matrix(0.06172839506172839,0,0,0.06172839506172839,0,0)" xlink:href="#ah"/><use transform="matrix(0.06172839506172839,0,0,0.06172839506172839,12.345679012345679,0)" xlink:href="#S"/><use transform="matrix(0.06172839506172839,0,0,0.06172839506172839,24.691358024691358,0)" xlink:href="#R"/><use transform="matrix(0.06172839506172839,0,0,0.06172839506172839,30.864197530864196,0)" xlink:href="#S"/></g><path fill="#333" d="M140-251c81 0 123 46 123 126C263-46 219 4 140 4 59 4 17-45 17-125s42-126 123-126zm0 227c63 0 89-41 89-101s-29-99-89-99c-61 0-89 39-89 99S79-25 140-24" id="au"/><path fill="#333" d="M84 4C-5 8 30-112 23-190h32v120c0 31 7 50 39 49 72-2 45-101 50-169h31l1 190h-30c-1-10 1-25-2-33-11 22-28 36-60 37" id="av"/><g id="k"><use transform="matrix(0.06172839506172839,0,0,0.06172839506172839,0,0)" xlink:href="#au"/><use transform="matrix(0.06172839506172839,0,0,0.06172839506172839,17.28395061728395,0)" xlink:href="#av"/><use transform="matrix(0.06172839506172839,0,0,0.06172839506172839,29.629629629629626,0)" xlink:href="#R"/><use transform="matrix(0.06172839506172839,0,0,0.06172839506172839,35.80246913580247,0)" xlink:href="#am"/><use transform="matrix(0.06172839506172839,0,0,0.06172839506172839,40.67901234567901,0)" xlink:href="#ao"/><use transform="matrix(0.06172839506172839,0,0,0.06172839506172839,45.55555555555556,0)" xlink:href="#ak"/><use transform="matrix(0.06172839506172839,0,0,0.06172839506172839,57.901234567901234,0)" xlink:href="#T"/><use transform="matrix(0.06172839506172839,0,0,0.06172839506172839,65.24691358024691,0)" xlink:href="#aj"/></g><path fill="#333" d="M108 0H70L1-190h34L89-25l56-165h34" id="aw"/><g id="l"><use transform="matrix(0.06172839506172839,0,0,0.06172839506172839,0,0)" xlink:href="#ae"/><use transform="matrix(0.06172839506172839,0,0,0.06172839506172839,15.987654320987653,0)" xlink:href="#ak"/><use transform="matrix(0.06172839506172839,0,0,0.06172839506172839,28.333333333333332,0)" xlink:href="#as"/><use transform="matrix(0.06172839506172839,0,0,0.06172839506172839,46.79012345679012,0)" xlink:href="#ap"/><use transform="matrix(0.06172839506172839,0,0,0.06172839506172839,59.1358024691358,0)" xlink:href="#aw"/><use transform="matrix(0.06172839506172839,0,0,0.06172839506172839,70.24691358024691,0)" xlink:href="#S"/><use transform="matrix(0.06172839506172839,0,0,0.06172839506172839,82.5925925925926,0)" xlink:href="#am"/></g><g id="m"><use transform="matrix(0.06172839506172839,0,0,0.06172839506172839,0,0)" xlink:href="#Q"/><use transform="matrix(0.06172839506172839,0,0,0.06172839506172839,14.814814814814813,0)" xlink:href="#ar"/><use transform="matrix(0.06172839506172839,0,0,0.06172839506172839,27.160493827160494,0)" xlink:href="#am"/><use transform="matrix(0.06172839506172839,0,0,0.06172839506172839,32.03703703703704,0)" xlink:href="#ao"/><use transform="matrix(0.06172839506172839,0,0,0.06172839506172839,36.91358024691358,0)" xlink:href="#R"/></g><path fill="#333" d="M101-234c-31-9-42 10-38 44h38v23H63V0H32v-167H5v-23h27c-7-52 17-82 69-68v24" id="ax"/><g id="n"><use transform="matrix(0.06172839506172839,0,0,0.06172839506172839,0,0)" xlink:href="#al"/><use transform="matrix(0.06172839506172839,0,0,0.06172839506172839,15.987654320987653,0)" xlink:href="#ak"/><use transform="matrix(0.06172839506172839,0,0,0.06172839506172839,28.333333333333332,0)" xlink:href="#ax"/><use transform="matrix(0.06172839506172839,0,0,0.06172839506172839,34.50617283950617,0)" xlink:href="#ao"/><use transform="matrix(0.06172839506172839,0,0,0.06172839506172839,39.382716049382715,0)" xlink:href="#aq"/><use transform="matrix(0.06172839506172839,0,0,0.06172839506172839,51.72839506172839,0)" xlink:href="#ak"/></g><path fill="#333" d="M127-220V0H93v-220H8v-28h204v28h-85" id="ay"/><g id="o"><use transform="matrix(0.06172839506172839,0,0,0.06172839506172839,0,0)" xlink:href="#ay"/><use transform="matrix(0.06172839506172839,0,0,0.06172839506172839,12.716049382716047,0)" xlink:href="#T"/><use transform="matrix(0.06172839506172839,0,0,0.06172839506172839,20.061728395061728,0)" xlink:href="#S"/><use transform="matrix(0.06172839506172839,0,0,0.06172839506172839,32.407407407407405,0)" xlink:href="#aq"/><use transform="matrix(0.06172839506172839,0,0,0.06172839506172839,44.75308641975308,0)" xlink:href="#aj"/><use transform="matrix(0.06172839506172839,0,0,0.06172839506172839,55.86419753086419,0)" xlink:href="#ax"/><use transform="matrix(0.06172839506172839,0,0,0.06172839506172839,62.03703703703703,0)" xlink:href="#ap"/><use transform="matrix(0.06172839506172839,0,0,0.06172839506172839,74.38271604938271,0)" xlink:href="#T"/><use transform="matrix(0.06172839506172839,0,0,0.06172839506172839,81.72839506172839,0)" xlink:href="#as"/><use transform="matrix(0.06172839506172839,0,0,0.06172839506172839,100.18518518518518,0)" xlink:href="#ak"/><use transform="matrix(0.06172839506172839,0,0,0.06172839506172839,112.53086419753086,0)" xlink:href="#T"/></g><g id="p"><use transform="matrix(0.06172839506172839,0,0,0.06172839506172839,0,0)" xlink:href="#as"/><use transform="matrix(0.06172839506172839,0,0,0.06172839506172839,18.456790123456788,0)" xlink:href="#ap"/><use transform="matrix(0.06172839506172839,0,0,0.06172839506172839,30.80246913580247,0)" xlink:href="#ah"/><use transform="matrix(0.06172839506172839,0,0,0.06172839506172839,43.148148148148145,0)" xlink:href="#ak"/><use transform="matrix(0.06172839506172839,0,0,0.06172839506172839,55.49382716049382,0)" xlink:href="#am"/></g><g id="q"><use transform="matrix(0.06172839506172839,0,0,0.06172839506172839,0,0)" xlink:href="#ay"/><use transform="matrix(0.06172839506172839,0,0,0.06172839506172839,12.716049382716047,0)" xlink:href="#T"/><use transform="matrix(0.06172839506172839,0,0,0.06172839506172839,20.061728395061728,0)" xlink:href="#S"/><use transform="matrix(0.06172839506172839,0,0,0.06172839506172839,32.407407407407405,0)" xlink:href="#ao"/><use transform="matrix(0.06172839506172839,0,0,0.06172839506172839,37.28395061728395,0)" xlink:href="#aq"/></g><path fill="#333" d="M190 0L58-211 59 0H30v-248h39L202-35l-2-213h31V0h-41" id="az"/><g id="r"><use transform="matrix(0.06172839506172839,0,0,0.06172839506172839,0,0)" xlink:href="#az"/><use transform="matrix(0.06172839506172839,0,0,0.06172839506172839,15.987654320987653,0)" xlink:href="#av"/><use transform="matrix(0.06172839506172839,0,0,0.06172839506172839,28.333333333333332,0)" xlink:href="#as"/><use transform="matrix(0.06172839506172839,0,0,0.06172839506172839,46.79012345679012,0)" xlink:href="#ai"/><use transform="matrix(0.06172839506172839,0,0,0.06172839506172839,59.1358024691358,0)" xlink:href="#ak"/><use transform="matrix(0.06172839506172839,0,0,0.06172839506172839,71.48148148148148,0)" xlink:href="#T"/></g><g id="s"><use transform="matrix(0.06172839506172839,0,0,0.06172839506172839,0,0)" xlink:href="#ap"/><use transform="matrix(0.06172839506172839,0,0,0.06172839506172839,12.345679012345679,0)" xlink:href="#ax"/></g><path fill="#333" d="M106-169C34-169 62-67 57 0H25v-261h32l-1 103c12-21 28-36 61-36 89 0 53 116 60 194h-32v-121c2-32-8-49-39-48" id="aA"/><g id="t"><use transform="matrix(0.06172839506172839,0,0,0.06172839506172839,0,0)" xlink:href="#ak"/><use transform="matrix(0.06172839506172839,0,0,0.06172839506172839,12.345679012345679,0)" xlink:href="#ar"/><use transform="matrix(0.06172839506172839,0,0,0.06172839506172839,24.691358024691358,0)" xlink:href="#ap"/><use transform="matrix(0.06172839506172839,0,0,0.06172839506172839,37.03703703703704,0)" xlink:href="#an"/><use transform="matrix(0.06172839506172839,0,0,0.06172839506172839,48.14814814814815,0)" xlink:href="#aA"/><use transform="matrix(0.06172839506172839,0,0,0.06172839506172839,60.49382716049383,0)" xlink:href="#aj"/></g><path fill="#333" d="M103-251c84 0 111 97 45 133-19 10-37 24-39 52H78c0-63 77-55 77-114 0-30-21-42-52-43-32 0-53 17-56 46l-32-2c7-45 34-72 88-72zM77 0v-35h34V0H77" id="aB"/><g id="u"><use transform="matrix(0.06172839506172839,0,0,0.06172839506172839,0,0)" xlink:href="#an"/><use transform="matrix(0.06172839506172839,0,0,0.06172839506172839,11.11111111111111,0)" xlink:href="#ap"/><use transform="matrix(0.06172839506172839,0,0,0.06172839506172839,23.45679012345679,0)" xlink:href="#as"/><use transform="matrix(0.06172839506172839,0,0,0.06172839506172839,41.91358024691358,0)" xlink:href="#ar"/><use transform="matrix(0.06172839506172839,0,0,0.06172839506172839,54.25925925925926,0)" xlink:href="#am"/><use transform="matrix(0.06172839506172839,0,0,0.06172839506172839,59.135802469135804,0)" xlink:href="#ak"/><use transform="matrix(0.06172839506172839,0,0,0.06172839506172839,71.48148148148148,0)" xlink:href="#R"/><use transform="matrix(0.06172839506172839,0,0,0.06172839506172839,77.65432098765432,0)" xlink:href="#ak"/><use transform="matrix(0.06172839506172839,0,0,0.06172839506172839,90,0)" xlink:href="#ah"/><use transform="matrix(0.06172839506172839,0,0,0.06172839506172839,102.34567901234568,0)" xlink:href="#aB"/></g><path fill="#333" d="M30-248c87 1 191-15 191 75 0 78-77 80-158 76V0H30v-248zm33 125c57 0 124 11 124-50 0-59-68-47-124-48v98" id="aC"/><g id="v"><use transform="matrix(0.06172839506172839,0,0,0.06172839506172839,0,0)" xlink:href="#aC"/><use transform="matrix(0.06172839506172839,0,0,0.06172839506172839,14.814814814814813,0)" xlink:href="#T"/><use transform="matrix(0.06172839506172839,0,0,0.06172839506172839,22.160493827160494,0)" xlink:href="#ak"/><use transform="matrix(0.06172839506172839,0,0,0.06172839506172839,34.50617283950617,0)" xlink:href="#ah"/><use transform="matrix(0.06172839506172839,0,0,0.06172839506172839,46.85185185185185,0)" xlink:href="#ao"/><use transform="matrix(0.06172839506172839,0,0,0.06172839506172839,51.72839506172839,0)" xlink:href="#an"/><use transform="matrix(0.06172839506172839,0,0,0.06172839506172839,62.839506172839506,0)" xlink:href="#R"/></g><g id="w"><use transform="matrix(0.06172839506172839,0,0,0.06172839506172839,0,0)" xlink:href="#R"/><use transform="matrix(0.06172839506172839,0,0,0.06172839506172839,6.172839506172839,0)" xlink:href="#aA"/><use transform="matrix(0.06172839506172839,0,0,0.06172839506172839,18.51851851851852,0)" xlink:href="#ak"/></g><path fill="#333" d="M141 0L90-78 38 0H4l68-98-65-92h35l48 74 47-74h35l-64 92 68 98h-35" id="aD"/><g id="x"><use transform="matrix(0.06172839506172839,0,0,0.06172839506172839,0,0)" xlink:href="#aq"/><use transform="matrix(0.06172839506172839,0,0,0.06172839506172839,12.345679012345679,0)" xlink:href="#ak"/><use transform="matrix(0.06172839506172839,0,0,0.06172839506172839,24.691358024691358,0)" xlink:href="#aD"/><use transform="matrix(0.06172839506172839,0,0,0.06172839506172839,35.80246913580247,0)" xlink:href="#R"/></g><g id="y"><use transform="matrix(0.06172839506172839,0,0,0.06172839506172839,0,0)" xlink:href="#aw"/><use transform="matrix(0.06172839506172839,0,0,0.06172839506172839,11.11111111111111,0)" xlink:href="#S"/><use transform="matrix(0.06172839506172839,0,0,0.06172839506172839,23.45679012345679,0)" xlink:href="#am"/><use transform="matrix(0.06172839506172839,0,0,0.06172839506172839,28.333333333333336,0)" xlink:href="#av"/><use transform="matrix(0.06172839506172839,0,0,0.06172839506172839,40.67901234567901,0)" xlink:href="#ak"/></g><g id="z"><use transform="matrix(0.06172839506172839,0,0,0.06172839506172839,0,0)" xlink:href="#ay"/><use transform="matrix(0.06172839506172839,0,0,0.06172839506172839,12.716049382716047,0)" xlink:href="#T"/><use transform="matrix(0.06172839506172839,0,0,0.06172839506172839,20.061728395061728,0)" xlink:href="#S"/><use transform="matrix(0.06172839506172839,0,0,0.06172839506172839,32.407407407407405,0)" xlink:href="#aq"/><use transform="matrix(0.06172839506172839,0,0,0.06172839506172839,44.75308641975308,0)" xlink:href="#aj"/><use transform="matrix(0.06172839506172839,0,0,0.06172839506172839,55.86419753086419,0)" xlink:href="#ax"/><use transform="matrix(0.06172839506172839,0,0,0.06172839506172839,62.03703703703703,0)" xlink:href="#ap"/><use transform="matrix(0.06172839506172839,0,0,0.06172839506172839,74.38271604938271,0)" xlink:href="#T"/><use transform="matrix(0.06172839506172839,0,0,0.06172839506172839,81.72839506172839,0)" xlink:href="#as"/></g><g id="A"><use transform="matrix(0.06172839506172839,0,0,0.06172839506172839,0,0)" xlink:href="#ap"/><use transform="matrix(0.06172839506172839,0,0,0.06172839506172839,12.345679012345679,0)" xlink:href="#av"/><use transform="matrix(0.06172839506172839,0,0,0.06172839506172839,24.691358024691358,0)" xlink:href="#R"/><use transform="matrix(0.06172839506172839,0,0,0.06172839506172839,30.864197530864196,0)" xlink:href="#ar"/><use transform="matrix(0.06172839506172839,0,0,0.06172839506172839,43.20987654320987,0)" xlink:href="#av"/><use transform="matrix(0.06172839506172839,0,0,0.06172839506172839,55.55555555555555,0)" xlink:href="#R"/></g><path fill="#333" d="M212-179c-10-28-35-45-73-45-59 0-87 40-87 99 0 60 29 101 89 101 43 0 62-24 78-52l27 14C228-24 195 4 139 4 59 4 22-46 18-125c-6-104 99-153 187-111 19 9 31 26 39 46" id="aE"/><g id="B"><use transform="matrix(0.06172839506172839,0,0,0.06172839506172839,0,0)" xlink:href="#aE"/><use transform="matrix(0.06172839506172839,0,0,0.06172839506172839,15.987654320987653,0)" xlink:href="#ap"/><use transform="matrix(0.06172839506172839,0,0,0.06172839506172839,28.333333333333332,0)" xlink:href="#as"/><use transform="matrix(0.06172839506172839,0,0,0.06172839506172839,46.79012345679012,0)" xlink:href="#ar"/><use transform="matrix(0.06172839506172839,0,0,0.06172839506172839,59.1358024691358,0)" xlink:href="#S"/><use transform="matrix(0.06172839506172839,0,0,0.06172839506172839,71.48148148148148,0)" xlink:href="#T"/><use transform="matrix(0.06172839506172839,0,0,0.06172839506172839,78.82716049382717,0)" xlink:href="#ak"/></g><g id="C"><use transform="matrix(0.06172839506172839,0,0,0.06172839506172839,0,0)" xlink:href="#ar"/><use transform="matrix(0.06172839506172839,0,0,0.06172839506172839,12.345679012345679,0)" xlink:href="#T"/><use transform="matrix(0.06172839506172839,0,0,0.06172839506172839,19.691358024691358,0)" xlink:href="#ak"/><use transform="matrix(0.06172839506172839,0,0,0.06172839506172839,32.03703703703704,0)" xlink:href="#ah"/><use transform="matrix(0.06172839506172839,0,0,0.06172839506172839,44.382716049382715,0)" xlink:href="#ao"/><use transform="matrix(0.06172839506172839,0,0,0.06172839506172839,49.25925925925926,0)" xlink:href="#an"/><use transform="matrix(0.06172839506172839,0,0,0.06172839506172839,60.37037037037037,0)" xlink:href="#R"/><use transform="matrix(0.06172839506172839,0,0,0.06172839506172839,66.5432098765432,0)" xlink:href="#ak"/><use transform="matrix(0.06172839506172839,0,0,0.06172839506172839,78.88888888888889,0)" xlink:href="#ah"/></g><g id="D"><use transform="matrix(0.06172839506172839,0,0,0.06172839506172839,0,0)" xlink:href="#ah"/><use transform="matrix(0.06172839506172839,0,0,0.06172839506172839,12.345679012345679,0)" xlink:href="#S"/><use transform="matrix(0.06172839506172839,0,0,0.06172839506172839,24.691358024691358,0)" xlink:href="#R"/><use transform="matrix(0.06172839506172839,0,0,0.06172839506172839,30.864197530864196,0)" xlink:href="#S"/></g><g id="E"><use transform="matrix(0.06172839506172839,0,0,0.06172839506172839,0,0)" xlink:href="#S"/><use transform="matrix(0.06172839506172839,0,0,0.06172839506172839,12.345679012345679,0)" xlink:href="#at"/><use transform="matrix(0.06172839506172839,0,0,0.06172839506172839,24.691358024691358,0)" xlink:href="#S"/><use transform="matrix(0.06172839506172839,0,0,0.06172839506172839,37.03703703703704,0)" xlink:href="#ao"/><use transform="matrix(0.06172839506172839,0,0,0.06172839506172839,41.91358024691358,0)" xlink:href="#aq"/><use transform="matrix(0.06172839506172839,0,0,0.06172839506172839,54.25925925925926,0)" xlink:href="#aj"/><use transform="matrix(0.06172839506172839,0,0,0.06172839506172839,65.37037037037037,0)" xlink:href="#R"/></g><g id="F"><use transform="matrix(0.06172839506172839,0,0,0.06172839506172839,0,0)" xlink:href="#T"/><use transform="matrix(0.06172839506172839,0,0,0.06172839506172839,7.345679012345679,0)" xlink:href="#ak"/><use transform="matrix(0.06172839506172839,0,0,0.06172839506172839,19.691358024691358,0)" xlink:href="#S"/><use transform="matrix(0.06172839506172839,0,0,0.06172839506172839,32.03703703703704,0)" xlink:href="#am"/></g><path fill="#333" d="M30 0v-248h187v28H63v79h144v27H63v87h162V0H30" id="aF"/><g id="G"><use transform="matrix(0.06172839506172839,0,0,0.06172839506172839,0,0)" xlink:href="#aF"/><use transform="matrix(0.06172839506172839,0,0,0.06172839506172839,14.814814814814813,0)" xlink:href="#aq"/><use transform="matrix(0.06172839506172839,0,0,0.06172839506172839,27.160493827160494,0)" xlink:href="#ah"/></g><path fill="#333" d="M146-102V0H94v-102L6-248h54l60 105 60-105h54" id="aG"/><path fill="#333" d="M185-48c-13 30-37 53-82 52C43 2 14-33 14-96s30-98 90-98c62 0 83 45 84 108H66c0 31 8 55 39 56 18 0 30-7 34-22zm-45-69c5-46-57-63-70-21-2 6-4 13-4 21h74" id="aH"/><path fill="#333" d="M137-138c1-29-70-34-71-4 15 46 118 7 119 86 1 83-164 76-172 9l43-7c4 19 20 25 44 25 33 8 57-30 24-41C81-84 22-81 20-136c-2-80 154-74 161-7" id="aI"/><g id="H"><use transform="matrix(0.04938271604938272,0,0,0.04938271604938272,0,0)" xlink:href="#aG"/><use transform="matrix(0.04938271604938272,0,0,0.04938271604938272,10.864197530864198,0)" xlink:href="#aH"/><use transform="matrix(0.04938271604938272,0,0,0.04938271604938272,20.74074074074074,0)" xlink:href="#aI"/></g><path fill="#333" d="M175 0L67-191c6 58 2 128 3 191H24v-248h59L193-55c-6-58-2-129-3-193h46V0h-61" id="aJ"/><path fill="#333" d="M110-194c64 0 96 36 96 99 0 64-35 99-97 99-61 0-95-36-95-99 0-62 34-99 96-99zm-1 164c35 0 45-28 45-65 0-40-10-65-43-65-34 0-45 26-45 65 0 36 10 65 43 65" id="aK"/><g id="I"><use transform="matrix(0.04938271604938272,0,0,0.04938271604938272,0,0)" xlink:href="#aJ"/><use transform="matrix(0.04938271604938272,0,0,0.04938271604938272,12.790123456790125,0)" xlink:href="#aK"/></g><g id="J"><use transform="matrix(0.06172839506172839,0,0,0.06172839506172839,0,0)" xlink:href="#aC"/><use transform="matrix(0.06172839506172839,0,0,0.06172839506172839,14.814814814814813,0)" xlink:href="#T"/><use transform="matrix(0.06172839506172839,0,0,0.06172839506172839,22.160493827160494,0)" xlink:href="#ak"/><use transform="matrix(0.06172839506172839,0,0,0.06172839506172839,34.50617283950617,0)" xlink:href="#ar"/><use transform="matrix(0.06172839506172839,0,0,0.06172839506172839,46.85185185185185,0)" xlink:href="#T"/><use transform="matrix(0.06172839506172839,0,0,0.06172839506172839,54.197530864197525,0)" xlink:href="#ap"/><use transform="matrix(0.06172839506172839,0,0,0.06172839506172839,66.5432098765432,0)" xlink:href="#an"/><use transform="matrix(0.06172839506172839,0,0,0.06172839506172839,77.65432098765432,0)" xlink:href="#ak"/><use transform="matrix(0.06172839506172839,0,0,0.06172839506172839,90,0)" xlink:href="#aj"/><use transform="matrix(0.06172839506172839,0,0,0.06172839506172839,101.11111111111111,0)" xlink:href="#aj"/><use transform="matrix(0.06172839506172839,0,0,0.06172839506172839,112.22222222222223,0)" xlink:href="#ao"/><use transform="matrix(0.06172839506172839,0,0,0.06172839506172839,117.09876543209877,0)" xlink:href="#aq"/><use transform="matrix(0.06172839506172839,0,0,0.06172839506172839,129.44444444444446,0)" xlink:href="#at"/></g><path fill="#333" d="M206 0h-36l-40-164L89 0H53L-1-190h32L70-26l43-164h34l41 164 42-164h31" id="aL"/><path fill="#333" d="M143 0L79-87 56-68V0H24v-261h32v163l83-92h37l-77 82L181 0h-38" id="aM"/><g id="K"><use transform="matrix(0.06172839506172839,0,0,0.06172839506172839,0,0)" xlink:href="#az"/><use transform="matrix(0.06172839506172839,0,0,0.06172839506172839,15.987654320987653,0)" xlink:href="#ak"/><use transform="matrix(0.06172839506172839,0,0,0.06172839506172839,28.333333333333332,0)" xlink:href="#R"/><use transform="matrix(0.06172839506172839,0,0,0.06172839506172839,34.50617283950617,0)" xlink:href="#aL"/><use transform="matrix(0.06172839506172839,0,0,0.06172839506172839,50.49382716049382,0)" xlink:href="#ap"/><use transform="matrix(0.06172839506172839,0,0,0.06172839506172839,62.8395061728395,0)" xlink:href="#T"/><use transform="matrix(0.06172839506172839,0,0,0.06172839506172839,70.18518518518518,0)" xlink:href="#aM"/></g><path fill="#333" d="M136-208V0H84v-208H4v-40h212v40h-80" id="aN"/><path fill="#333" d="M135-150c-39-12-60 13-60 57V0H25l-1-190h47c2 13-1 29 3 40 6-28 27-53 61-41v41" id="aO"/><path fill="#333" d="M133-34C117-15 103 5 69 4 32 3 11-16 11-54c-1-60 55-63 116-61 1-26-3-47-28-47-18 1-26 9-28 27l-52-2c7-38 36-58 82-57s74 22 75 68l1 82c-1 14 12 18 25 15v27c-30 8-71 5-69-32zm-48 3c29 0 43-24 42-57-32 0-66-3-65 30 0 17 8 27 23 27" id="aP"/><path fill="#333" d="M25-224v-37h50v37H25zM25 0v-190h50V0H25" id="aQ"/><path fill="#333" d="M135-194c87-1 58 113 63 194h-50c-7-57 23-157-34-157-59 0-34 97-39 157H25l-1-190h47c2 12-1 28 3 38 12-26 28-41 61-42" id="aR"/><path fill="#333" d="M195-6C206 82 75 100 31 46c-4-6-6-13-8-21l49-6c3 16 16 24 34 25 40 0 42-37 40-79-11 22-30 35-61 35-53 0-70-43-70-97 0-56 18-96 73-97 30 0 46 14 59 34l2-30h47zm-90-29c32 0 41-27 41-63 0-35-9-62-40-62-32 0-39 29-40 63 0 36 9 62 39 62" id="aS"/><g id="L"><use transform="matrix(0.06172839506172839,0,0,0.06172839506172839,0,0)" xlink:href="#aN"/><use transform="matrix(0.06172839506172839,0,0,0.06172839506172839,12.28395061728395,0)" xlink:href="#aO"/><use transform="matrix(0.06172839506172839,0,0,0.06172839506172839,20.925925925925924,0)" xlink:href="#aP"/><use transform="matrix(0.06172839506172839,0,0,0.06172839506172839,33.2716049382716,0)" xlink:href="#aQ"/><use transform="matrix(0.06172839506172839,0,0,0.06172839506172839,39.44444444444444,0)" xlink:href="#aR"/><use transform="matrix(0.06172839506172839,0,0,0.06172839506172839,52.96296296296296,0)" xlink:href="#aQ"/><use transform="matrix(0.06172839506172839,0,0,0.06172839506172839,59.135802469135804,0)" xlink:href="#aR"/><use transform="matrix(0.06172839506172839,0,0,0.06172839506172839,72.65432098765432,0)" xlink:href="#aS"/></g><path fill="#333" d="M88-194c31-1 46 15 58 34l-1-101h50l1 261h-48c-2-10 0-23-3-31C134-8 116 4 84 4 32 4 16-41 15-95c0-56 19-97 73-99zm17 164c33 0 40-30 41-66 1-37-9-64-41-64s-38 30-39 65c0 43 13 65 39 65" id="aT"/><path fill="#333" d="M115-3C79 11 28 4 28-45v-112H4v-33h27l15-45h31v45h36v33H77v99c-1 23 16 31 38 25v30" id="aU"/><g id="M"><use transform="matrix(0.06172839506172839,0,0,0.06172839506172839,0,0)" xlink:href="#aT"/><use transform="matrix(0.06172839506172839,0,0,0.06172839506172839,13.518518518518517,0)" xlink:href="#aP"/><use transform="matrix(0.06172839506172839,0,0,0.06172839506172839,25.864197530864196,0)" xlink:href="#aU"/><use transform="matrix(0.06172839506172839,0,0,0.06172839506172839,33.20987654320987,0)" xlink:href="#aP"/></g><g id="N"><use transform="matrix(0.06172839506172839,0,0,0.06172839506172839,0,0)" xlink:href="#al"/><use transform="matrix(0.06172839506172839,0,0,0.06172839506172839,15.987654320987653,0)" xlink:href="#ak"/><use transform="matrix(0.06172839506172839,0,0,0.06172839506172839,28.333333333333332,0)" xlink:href="#ax"/><use transform="matrix(0.06172839506172839,0,0,0.06172839506172839,34.50617283950617,0)" xlink:href="#ao"/><use transform="matrix(0.06172839506172839,0,0,0.06172839506172839,39.382716049382715,0)" xlink:href="#aq"/><use transform="matrix(0.06172839506172839,0,0,0.06172839506172839,51.72839506172839,0)" xlink:href="#ak"/></g><path fill="#333" d="M179-190L93 31C79 59 56 82 12 73V49c39 6 53-20 64-50L1-190h34L92-34l54-156h33" id="aV"/><g id="O"><use transform="matrix(0.06172839506172839,0,0,0.06172839506172839,0,0)" xlink:href="#aA"/><use transform="matrix(0.06172839506172839,0,0,0.06172839506172839,12.345679012345679,0)" xlink:href="#aV"/><use transform="matrix(0.06172839506172839,0,0,0.06172839506172839,23.45679012345679,0)" xlink:href="#ar"/><use transform="matrix(0.06172839506172839,0,0,0.06172839506172839,35.80246913580247,0)" xlink:href="#ak"/><use transform="matrix(0.06172839506172839,0,0,0.06172839506172839,48.148148148148145,0)" xlink:href="#T"/><use transform="matrix(0.06172839506172839,0,0,0.06172839506172839,55.49382716049382,0)" xlink:href="#ar"/><use transform="matrix(0.06172839506172839,0,0,0.06172839506172839,67.8395061728395,0)" xlink:href="#S"/><use transform="matrix(0.06172839506172839,0,0,0.06172839506172839,80.18518518518519,0)" xlink:href="#T"/><use transform="matrix(0.06172839506172839,0,0,0.06172839506172839,87.53086419753087,0)" xlink:href="#S"/><use transform="matrix(0.06172839506172839,0,0,0.06172839506172839,99.87654320987656,0)" xlink:href="#as"/><use transform="matrix(0.06172839506172839,0,0,0.06172839506172839,118.33333333333334,0)" xlink:href="#ak"/><use transform="matrix(0.06172839506172839,0,0,0.06172839506172839,130.679012345679,0)" xlink:href="#R"/><use transform="matrix(0.06172839506172839,0,0,0.06172839506172839,136.85185185185185,0)" xlink:href="#ak"/><use transform="matrix(0.06172839506172839,0,0,0.06172839506172839,149.19753086419752,0)" xlink:href="#T"/><use transform="matrix(0.06172839506172839,0,0,0.06172839506172839,156.5432098765432,0)" xlink:href="#aj"/></g><path fill="#333" d="M147 0H94L2-248h55l64 206c17-72 42-137 63-206h54" id="aW"/><path fill="#333" d="M25 0v-261h50V0H25" id="aX"/><g id="P"><use transform="matrix(0.06172839506172839,0,0,0.06172839506172839,0,0)" xlink:href="#aW"/><use transform="matrix(0.06172839506172839,0,0,0.06172839506172839,13.580246913580245,0)" xlink:href="#aP"/><use transform="matrix(0.06172839506172839,0,0,0.06172839506172839,25.925925925925924,0)" xlink:href="#aX"/><use transform="matrix(0.06172839506172839,0,0,0.06172839506172839,32.098765432098766,0)" xlink:href="#aQ"/><use transform="matrix(0.06172839506172839,0,0,0.06172839506172839,38.27160493827161,0)" xlink:href="#aT"/><use transform="matrix(0.06172839506172839,0,0,0.06172839506172839,51.79012345679013,0)" xlink:href="#aP"/><use transform="matrix(0.06172839506172839,0,0,0.06172839506172839,64.13580246913581,0)" xlink:href="#aU"/><use transform="matrix(0.06172839506172839,0,0,0.06172839506172839,71.4814814814815,0)" xlink:href="#aQ"/><use transform="matrix(0.06172839506172839,0,0,0.06172839506172839,77.65432098765433,0)" xlink:href="#aK"/><use transform="matrix(0.06172839506172839,0,0,0.06172839506172839,91.17283950617285,0)" xlink:href="#aR"/></g></defs></g></svg>