<?xml version="1.0" encoding="utf-8" standalone="no"?>
<!DOCTYPE svg PUBLIC "-//W3C//DTD SVG 1.1//EN"
  "http://www.w3.org/Graphics/SVG/1.1/DTD/svg11.dtd">
<svg xmlns:xlink="http://www.w3.org/1999/xlink" width="864pt" height="360pt" viewBox="0 0 864 360" xmlns="http://www.w3.org/2000/svg" version="1.1">
 <metadata>
  <rdf:RDF xmlns:dc="http://purl.org/dc/elements/1.1/" xmlns:cc="http://creativecommons.org/ns#" xmlns:rdf="http://www.w3.org/1999/02/22-rdf-syntax-ns#">
   <cc:Work>
    <dc:type rdf:resource="http://purl.org/dc/dcmitype/StillImage"/>
    <dc:date>2023-12-04T18:37:00.214645</dc:date>
    <dc:format>image/svg+xml</dc:format>
    <dc:creator>
     <cc:Agent>
      <dc:title>Matplotlib v3.7.1, https://matplotlib.org/</dc:title>
     </cc:Agent>
    </dc:creator>
   </cc:Work>
  </rdf:RDF>
 </metadata>
 <defs>
  <style type="text/css">*{stroke-linejoin: round; stroke-linecap: butt}</style>
 </defs>
 <g id="figure_1">
  <g id="patch_1">
   <path d="M 0 360 
L 864 360 
L 864 0 
L 0 0 
z
" style="fill: #ffffff"/>
  </g>
  <g id="axes_1">
   <g id="patch_2">
    <path d="M 50.042 308.792 
L 853.2 308.792 
L 853.2 28.32 
L 50.042 28.32 
z
" style="fill: #ffffff"/>
   </g>
   <g id="PolyCollection_1">
    <defs>
     <path id="md6128d6783" d="M 574.66749 -74.418363 
L 574.66749 -74.418363 
L 576.701317 -72.88975 
L 578.735143 -70.864037 
L 580.768969 -70.800528 
L 582.802795 -70.511656 
L 584.836622 -73.681483 
L 586.870448 -77.497232 
L 588.904274 -82.107303 
L 590.938101 -88.172893 
L 592.971927 -86.700543 
L 595.005753 -85.843411 
L 597.039579 -83.87441 
L 599.073406 -83.572087 
L 601.107232 -81.141246 
L 603.141058 -83.167819 
L 605.174885 -83.733065 
L 607.208711 -83.879041 
L 609.242537 -82.618868 
L 611.276363 -78.018662 
L 613.31019 -78.699296 
L 615.344016 -77.220226 
L 617.377842 -73.861413 
L 619.411669 -73.65837 
L 621.445495 -73.30549 
L 623.479321 -70.737907 
L 625.513147 -69.507638 
L 627.546974 -68.775521 
L 629.5808 -66.217064 
L 631.614626 -65.689459 
L 633.648453 -68.069719 
L 635.682279 -74.57828 
L 637.716105 -79.819977 
L 639.749931 -80.34522 
L 641.783758 -83.735375 
L 643.817584 -85.454756 
L 645.85141 -84.122754 
L 647.885237 -81.134593 
L 649.919063 -80.16097 
L 651.952889 -81.925223 
L 653.986715 -84.380518 
L 656.020542 -85.695282 
L 658.054368 -80.235767 
L 660.088194 -78.965055 
L 662.122021 -68.723142 
L 664.155847 -76.452971 
L 666.189673 -76.401594 
L 668.223499 -76.318661 
L 670.257326 -73.803862 
L 672.291152 -70.571188 
L 674.324978 -69.777007 
L 676.358805 -66.511432 
L 678.392631 -64.97185 
L 680.426457 -64.539182 
L 682.460283 -67.346418 
L 684.49411 -75.157277 
L 686.527936 -77.44586 
L 688.561762 -81.400145 
L 690.595589 -84.344126 
L 692.629415 -81.240423 
L 694.663241 -79.555618 
L 696.697067 -77.516616 
L 698.730894 -76.212338 
L 700.76472 -74.81149 
L 702.798546 -77.86317 
L 704.832372 -76.826421 
L 706.866199 -77.14009 
L 708.900025 -78.844322 
L 710.933851 -74.360522 
L 712.967678 -77.087731 
L 715.001504 -69.364051 
L 717.03533 -67.212245 
L 719.069156 -63.895535 
L 721.102983 -64.826434 
L 723.136809 -62.58967 
L 725.170635 -63.447604 
L 727.204462 -62.129183 
L 729.238288 -63.422322 
L 731.272114 -65.056394 
L 733.30594 -72.940346 
L 735.339767 -79.571428 
L 737.373593 -84.32577 
L 739.407419 -84.523365 
L 741.441246 -79.743303 
L 743.475072 -79.217422 
L 745.508898 -81.205632 
L 747.542724 -78.647879 
L 749.576551 -71.460385 
L 751.610377 -77.519215 
L 753.644203 -78.784973 
L 755.67803 -76.284124 
L 757.711856 -76.307265 
L 759.745682 -76.731794 
L 761.779508 -76.483217 
L 763.813335 -71.490179 
L 765.847161 -66.967844 
L 767.880987 -64.897347 
L 769.914814 -64.884923 
L 771.94864 -64.070798 
L 773.982466 -62.319099 
L 776.016292 -62.689897 
L 778.050119 -63.180861 
L 780.083945 -63.867106 
L 782.117771 -67.968704 
L 784.151598 -74.569219 
L 786.185424 -77.473891 
L 788.21925 -79.188676 
L 790.253076 -78.35114 
L 792.286903 -79.916447 
L 794.320729 -75.90244 
L 796.354555 -75.133541 
L 798.388382 -75.45824 
L 800.422208 -72.743534 
L 802.456034 -79.80237 
L 804.48986 -75.750944 
L 806.523687 -74.107587 
L 808.557513 -77.338254 
L 810.591339 -75.965867 
L 812.625166 -74.509686 
L 814.658992 -70.755954 
L 816.692818 -69.729766 
L 816.692818 -69.729766 
L 816.692818 -99.569417 
L 814.658992 -108.348798 
L 812.625166 -107.980694 
L 810.591339 -114.398469 
L 808.557513 -112.69545 
L 806.523687 -109.505415 
L 804.48986 -114.924468 
L 802.456034 -114.166251 
L 800.422208 -117.324229 
L 798.388382 -108.111139 
L 796.354555 -110.037579 
L 794.320729 -112.399037 
L 792.286903 -111.791105 
L 790.253076 -118.204381 
L 788.21925 -115.892839 
L 786.185424 -108.135526 
L 784.151598 -101.467708 
L 782.117771 -94.551371 
L 780.083945 -90.774534 
L 778.050119 -86.690277 
L 776.016292 -86.574181 
L 773.982466 -86.281644 
L 771.94864 -87.270288 
L 769.914814 -92.585936 
L 767.880987 -102.804182 
L 765.847161 -107.787747 
L 763.813335 -104.292353 
L 761.779508 -108.03738 
L 759.745682 -113.784124 
L 757.711856 -115.520376 
L 755.67803 -116.474267 
L 753.644203 -119.160018 
L 751.610377 -110.118376 
L 749.576551 -109.008754 
L 747.542724 -106.124095 
L 745.508898 -108.710507 
L 743.475072 -112.526997 
L 741.441246 -113.733725 
L 739.407419 -112.008547 
L 737.373593 -111.339477 
L 735.339767 -105.716764 
L 733.30594 -97.73972 
L 731.272114 -91.245539 
L 729.238288 -88.047414 
L 727.204462 -88.110397 
L 725.170635 -89.01456 
L 723.136809 -89.975274 
L 721.102983 -94.223092 
L 719.069156 -102.56334 
L 717.03533 -107.243762 
L 715.001504 -118.284124 
L 712.967678 -113.841495 
L 710.933851 -118.08446 
L 708.900025 -116.666637 
L 706.866199 -117.599875 
L 704.832372 -116.600434 
L 702.798546 -112.899848 
L 700.76472 -108.633537 
L 698.730894 -107.69218 
L 696.697067 -110.084324 
L 694.663241 -115.341977 
L 692.629415 -119.336228 
L 690.595589 -118.82925 
L 688.561762 -118.814851 
L 686.527936 -114.877621 
L 684.49411 -105.451327 
L 682.460283 -96.627823 
L 680.426457 -90.74331 
L 678.392631 -89.890783 
L 676.358805 -91.258374 
L 674.324978 -96.138751 
L 672.291152 -99.92983 
L 670.257326 -109.942072 
L 668.223499 -110.48603 
L 666.189673 -109.861308 
L 664.155847 -114.465391 
L 662.122021 -123.997696 
L 660.088194 -120.394511 
L 658.054368 -118.416517 
L 656.020542 -120.154609 
L 653.986715 -116.35477 
L 651.952889 -111.168902 
L 649.919063 -109.857137 
L 647.885237 -116.725647 
L 645.85141 -121.747246 
L 643.817584 -123.139419 
L 641.783758 -122.46456 
L 639.749931 -117.306216 
L 637.716105 -109.655848 
L 635.682279 -101.800591 
L 633.648453 -92.100216 
L 631.614626 -90.004712 
L 629.5808 -87.625852 
L 627.546974 -90.663607 
L 625.513147 -95.268221 
L 623.479321 -98.725708 
L 621.445495 -106.442212 
L 619.411669 -109.884392 
L 617.377842 -114.146337 
L 615.344016 -123.430016 
L 613.31019 -122.673673 
L 611.276363 -124.022479 
L 609.242537 -124.221498 
L 607.208711 -123.112943 
L 605.174885 -118.979207 
L 603.141058 -113.337782 
L 601.107232 -112.659013 
L 599.073406 -113.209016 
L 597.039579 -116.731813 
L 595.005753 -118.027821 
L 592.971927 -121.087196 
L 590.938101 -121.764097 
L 588.904274 -112.503899 
L 586.870448 -103.906575 
L 584.836622 -95.097887 
L 582.802795 -91.889151 
L 580.768969 -91.683331 
L 578.735143 -90.035859 
L 576.701317 -91.021135 
L 574.66749 -91.262887 
z
" style="stroke: #8b0000; stroke-opacity: 0.3"/>
    </defs>
    <g clip-path="url(#p772c028380)">
     <use xlink:href="#md6128d6783" x="0" y="360" style="fill: #8b0000; fill-opacity: 0.3; stroke: #8b0000; stroke-opacity: 0.3"/>
    </g>
   </g>
   <g id="matplotlib.axis_1">
    <g id="xtick_1">
     <g id="line2d_1">
      <defs>
       <path id="mb451314cf4" d="M 0 0 
L 0 3.5 
" style="stroke: #000000; stroke-width: 0.8"/>
      </defs>
      <g>
       <use xlink:href="#mb451314cf4" x="125.191881" y="308.792" style="stroke: #000000; stroke-width: 0.8"/>
      </g>
     </g>
     <g id="text_1">
      <!-- Mon -->
      <g transform="translate(114.649694 323.390438) scale(0.1 -0.1)">
       <defs>
        <path id="DejaVuSans-4d" d="M 628 4666 
L 1569 4666 
L 2759 1491 
L 3956 4666 
L 4897 4666 
L 4897 0 
L 4281 0 
L 4281 4097 
L 3078 897 
L 2444 897 
L 1241 4097 
L 1241 0 
L 628 0 
L 628 4666 
z
" transform="scale(0.015625)"/>
        <path id="DejaVuSans-6f" d="M 1959 3097 
Q 1497 3097 1228 2736 
Q 959 2375 959 1747 
Q 959 1119 1226 758 
Q 1494 397 1959 397 
Q 2419 397 2687 759 
Q 2956 1122 2956 1747 
Q 2956 2369 2687 2733 
Q 2419 3097 1959 3097 
z
M 1959 3584 
Q 2709 3584 3137 3096 
Q 3566 2609 3566 1747 
Q 3566 888 3137 398 
Q 2709 -91 1959 -91 
Q 1206 -91 779 398 
Q 353 888 353 1747 
Q 353 2609 779 3096 
Q 1206 3584 1959 3584 
z
" transform="scale(0.015625)"/>
        <path id="DejaVuSans-6e" d="M 3513 2113 
L 3513 0 
L 2938 0 
L 2938 2094 
Q 2938 2591 2744 2837 
Q 2550 3084 2163 3084 
Q 1697 3084 1428 2787 
Q 1159 2491 1159 1978 
L 1159 0 
L 581 0 
L 581 3500 
L 1159 3500 
L 1159 2956 
Q 1366 3272 1645 3428 
Q 1925 3584 2291 3584 
Q 2894 3584 3203 3211 
Q 3513 2838 3513 2113 
z
" transform="scale(0.015625)"/>
       </defs>
       <use xlink:href="#DejaVuSans-4d"/>
       <use xlink:href="#DejaVuSans-6f" x="86.279297"/>
       <use xlink:href="#DejaVuSans-6e" x="147.460938"/>
      </g>
      <!-- 2022-01-17 -->
      <g transform="translate(96.134069 334.58825) scale(0.1 -0.1)">
       <defs>
        <path id="DejaVuSans-32" d="M 1228 531 
L 3431 531 
L 3431 0 
L 469 0 
L 469 531 
Q 828 903 1448 1529 
Q 2069 2156 2228 2338 
Q 2531 2678 2651 2914 
Q 2772 3150 2772 3378 
Q 2772 3750 2511 3984 
Q 2250 4219 1831 4219 
Q 1534 4219 1204 4116 
Q 875 4013 500 3803 
L 500 4441 
Q 881 4594 1212 4672 
Q 1544 4750 1819 4750 
Q 2544 4750 2975 4387 
Q 3406 4025 3406 3419 
Q 3406 3131 3298 2873 
Q 3191 2616 2906 2266 
Q 2828 2175 2409 1742 
Q 1991 1309 1228 531 
z
" transform="scale(0.015625)"/>
        <path id="DejaVuSans-30" d="M 2034 4250 
Q 1547 4250 1301 3770 
Q 1056 3291 1056 2328 
Q 1056 1369 1301 889 
Q 1547 409 2034 409 
Q 2525 409 2770 889 
Q 3016 1369 3016 2328 
Q 3016 3291 2770 3770 
Q 2525 4250 2034 4250 
z
M 2034 4750 
Q 2819 4750 3233 4129 
Q 3647 3509 3647 2328 
Q 3647 1150 3233 529 
Q 2819 -91 2034 -91 
Q 1250 -91 836 529 
Q 422 1150 422 2328 
Q 422 3509 836 4129 
Q 1250 4750 2034 4750 
z
" transform="scale(0.015625)"/>
        <path id="DejaVuSans-2d" d="M 313 2009 
L 1997 2009 
L 1997 1497 
L 313 1497 
L 313 2009 
z
" transform="scale(0.015625)"/>
        <path id="DejaVuSans-31" d="M 794 531 
L 1825 531 
L 1825 4091 
L 703 3866 
L 703 4441 
L 1819 4666 
L 2450 4666 
L 2450 531 
L 3481 531 
L 3481 0 
L 794 0 
L 794 531 
z
" transform="scale(0.015625)"/>
        <path id="DejaVuSans-37" d="M 525 4666 
L 3525 4666 
L 3525 4397 
L 1831 0 
L 1172 0 
L 2766 4134 
L 525 4134 
L 525 4666 
z
" transform="scale(0.015625)"/>
       </defs>
       <use xlink:href="#DejaVuSans-32"/>
       <use xlink:href="#DejaVuSans-30" x="63.623047"/>
       <use xlink:href="#DejaVuSans-32" x="127.246094"/>
       <use xlink:href="#DejaVuSans-32" x="190.869141"/>
       <use xlink:href="#DejaVuSans-2d" x="254.492188"/>
       <use xlink:href="#DejaVuSans-30" x="290.576172"/>
       <use xlink:href="#DejaVuSans-31" x="354.199219"/>
       <use xlink:href="#DejaVuSans-2d" x="417.822266"/>
       <use xlink:href="#DejaVuSans-31" x="453.90625"/>
       <use xlink:href="#DejaVuSans-37" x="517.529297"/>
      </g>
      <!-- 19:00 -->
      <g transform="translate(110.782506 345.786063) scale(0.1 -0.1)">
       <defs>
        <path id="DejaVuSans-39" d="M 703 97 
L 703 672 
Q 941 559 1184 500 
Q 1428 441 1663 441 
Q 2288 441 2617 861 
Q 2947 1281 2994 2138 
Q 2813 1869 2534 1725 
Q 2256 1581 1919 1581 
Q 1219 1581 811 2004 
Q 403 2428 403 3163 
Q 403 3881 828 4315 
Q 1253 4750 1959 4750 
Q 2769 4750 3195 4129 
Q 3622 3509 3622 2328 
Q 3622 1225 3098 567 
Q 2575 -91 1691 -91 
Q 1453 -91 1209 -44 
Q 966 3 703 97 
z
M 1959 2075 
Q 2384 2075 2632 2365 
Q 2881 2656 2881 3163 
Q 2881 3666 2632 3958 
Q 2384 4250 1959 4250 
Q 1534 4250 1286 3958 
Q 1038 3666 1038 3163 
Q 1038 2656 1286 2365 
Q 1534 2075 1959 2075 
z
" transform="scale(0.015625)"/>
        <path id="DejaVuSans-3a" d="M 750 794 
L 1409 794 
L 1409 0 
L 750 0 
L 750 794 
z
M 750 3309 
L 1409 3309 
L 1409 2516 
L 750 2516 
L 750 3309 
z
" transform="scale(0.015625)"/>
       </defs>
       <use xlink:href="#DejaVuSans-31"/>
       <use xlink:href="#DejaVuSans-39" x="63.623047"/>
       <use xlink:href="#DejaVuSans-3a" x="127.246094"/>
       <use xlink:href="#DejaVuSans-30" x="160.9375"/>
       <use xlink:href="#DejaVuSans-30" x="224.560547"/>
      </g>
     </g>
    </g>
    <g id="xtick_2">
     <g id="line2d_2">
      <g>
       <use xlink:href="#mb451314cf4" x="222.815543" y="308.792" style="stroke: #000000; stroke-width: 0.8"/>
      </g>
     </g>
     <g id="text_2">
      <!-- Wed -->
      <g transform="translate(211.914762 323.390438) scale(0.1 -0.1)">
       <defs>
        <path id="DejaVuSans-57" d="M 213 4666 
L 850 4666 
L 1831 722 
L 2809 4666 
L 3519 4666 
L 4500 722 
L 5478 4666 
L 6119 4666 
L 4947 0 
L 4153 0 
L 3169 4050 
L 2175 0 
L 1381 0 
L 213 4666 
z
" transform="scale(0.015625)"/>
        <path id="DejaVuSans-65" d="M 3597 1894 
L 3597 1613 
L 953 1613 
Q 991 1019 1311 708 
Q 1631 397 2203 397 
Q 2534 397 2845 478 
Q 3156 559 3463 722 
L 3463 178 
Q 3153 47 2828 -22 
Q 2503 -91 2169 -91 
Q 1331 -91 842 396 
Q 353 884 353 1716 
Q 353 2575 817 3079 
Q 1281 3584 2069 3584 
Q 2775 3584 3186 3129 
Q 3597 2675 3597 1894 
z
M 3022 2063 
Q 3016 2534 2758 2815 
Q 2500 3097 2075 3097 
Q 1594 3097 1305 2825 
Q 1016 2553 972 2059 
L 3022 2063 
z
" transform="scale(0.015625)"/>
        <path id="DejaVuSans-64" d="M 2906 2969 
L 2906 4863 
L 3481 4863 
L 3481 0 
L 2906 0 
L 2906 525 
Q 2725 213 2448 61 
Q 2172 -91 1784 -91 
Q 1150 -91 751 415 
Q 353 922 353 1747 
Q 353 2572 751 3078 
Q 1150 3584 1784 3584 
Q 2172 3584 2448 3432 
Q 2725 3281 2906 2969 
z
M 947 1747 
Q 947 1113 1208 752 
Q 1469 391 1925 391 
Q 2381 391 2643 752 
Q 2906 1113 2906 1747 
Q 2906 2381 2643 2742 
Q 2381 3103 1925 3103 
Q 1469 3103 1208 2742 
Q 947 2381 947 1747 
z
" transform="scale(0.015625)"/>
       </defs>
       <use xlink:href="#DejaVuSans-57"/>
       <use xlink:href="#DejaVuSans-65" x="93.001953"/>
       <use xlink:href="#DejaVuSans-64" x="154.525391"/>
      </g>
      <!-- 2022-01-19 -->
      <g transform="translate(193.75773 334.58825) scale(0.1 -0.1)">
       <use xlink:href="#DejaVuSans-32"/>
       <use xlink:href="#DejaVuSans-30" x="63.623047"/>
       <use xlink:href="#DejaVuSans-32" x="127.246094"/>
       <use xlink:href="#DejaVuSans-32" x="190.869141"/>
       <use xlink:href="#DejaVuSans-2d" x="254.492188"/>
       <use xlink:href="#DejaVuSans-30" x="290.576172"/>
       <use xlink:href="#DejaVuSans-31" x="354.199219"/>
       <use xlink:href="#DejaVuSans-2d" x="417.822266"/>
       <use xlink:href="#DejaVuSans-31" x="453.90625"/>
       <use xlink:href="#DejaVuSans-39" x="517.529297"/>
      </g>
      <!-- 19:00 -->
      <g transform="translate(208.406168 345.786063) scale(0.1 -0.1)">
       <use xlink:href="#DejaVuSans-31"/>
       <use xlink:href="#DejaVuSans-39" x="63.623047"/>
       <use xlink:href="#DejaVuSans-3a" x="127.246094"/>
       <use xlink:href="#DejaVuSans-30" x="160.9375"/>
       <use xlink:href="#DejaVuSans-30" x="224.560547"/>
      </g>
     </g>
    </g>
    <g id="xtick_3">
     <g id="line2d_3">
      <g>
       <use xlink:href="#mb451314cf4" x="320.439205" y="308.792" style="stroke: #000000; stroke-width: 0.8"/>
      </g>
     </g>
     <g id="text_3">
      <!-- Fri -->
      <g transform="translate(314.481392 323.390438) scale(0.1 -0.1)">
       <defs>
        <path id="DejaVuSans-46" d="M 628 4666 
L 3309 4666 
L 3309 4134 
L 1259 4134 
L 1259 2759 
L 3109 2759 
L 3109 2228 
L 1259 2228 
L 1259 0 
L 628 0 
L 628 4666 
z
" transform="scale(0.015625)"/>
        <path id="DejaVuSans-72" d="M 2631 2963 
Q 2534 3019 2420 3045 
Q 2306 3072 2169 3072 
Q 1681 3072 1420 2755 
Q 1159 2438 1159 1844 
L 1159 0 
L 581 0 
L 581 3500 
L 1159 3500 
L 1159 2956 
Q 1341 3275 1631 3429 
Q 1922 3584 2338 3584 
Q 2397 3584 2469 3576 
Q 2541 3569 2628 3553 
L 2631 2963 
z
" transform="scale(0.015625)"/>
        <path id="DejaVuSans-69" d="M 603 3500 
L 1178 3500 
L 1178 0 
L 603 0 
L 603 3500 
z
M 603 4863 
L 1178 4863 
L 1178 4134 
L 603 4134 
L 603 4863 
z
" transform="scale(0.015625)"/>
       </defs>
       <use xlink:href="#DejaVuSans-46"/>
       <use xlink:href="#DejaVuSans-72" x="50.269531"/>
       <use xlink:href="#DejaVuSans-69" x="91.382812"/>
      </g>
      <!-- 2022-01-21 -->
      <g transform="translate(291.381392 334.58825) scale(0.1 -0.1)">
       <use xlink:href="#DejaVuSans-32"/>
       <use xlink:href="#DejaVuSans-30" x="63.623047"/>
       <use xlink:href="#DejaVuSans-32" x="127.246094"/>
       <use xlink:href="#DejaVuSans-32" x="190.869141"/>
       <use xlink:href="#DejaVuSans-2d" x="254.492188"/>
       <use xlink:href="#DejaVuSans-30" x="290.576172"/>
       <use xlink:href="#DejaVuSans-31" x="354.199219"/>
       <use xlink:href="#DejaVuSans-2d" x="417.822266"/>
       <use xlink:href="#DejaVuSans-32" x="453.90625"/>
       <use xlink:href="#DejaVuSans-31" x="517.529297"/>
      </g>
      <!-- 19:00 -->
      <g transform="translate(306.02983 345.786063) scale(0.1 -0.1)">
       <use xlink:href="#DejaVuSans-31"/>
       <use xlink:href="#DejaVuSans-39" x="63.623047"/>
       <use xlink:href="#DejaVuSans-3a" x="127.246094"/>
       <use xlink:href="#DejaVuSans-30" x="160.9375"/>
       <use xlink:href="#DejaVuSans-30" x="224.560547"/>
      </g>
     </g>
    </g>
    <g id="xtick_4">
     <g id="line2d_4">
      <g>
       <use xlink:href="#mb451314cf4" x="418.062866" y="308.792" style="stroke: #000000; stroke-width: 0.8"/>
      </g>
     </g>
     <g id="text_4">
      <!-- Sun -->
      <g transform="translate(408.551148 323.390438) scale(0.1 -0.1)">
       <defs>
        <path id="DejaVuSans-53" d="M 3425 4513 
L 3425 3897 
Q 3066 4069 2747 4153 
Q 2428 4238 2131 4238 
Q 1616 4238 1336 4038 
Q 1056 3838 1056 3469 
Q 1056 3159 1242 3001 
Q 1428 2844 1947 2747 
L 2328 2669 
Q 3034 2534 3370 2195 
Q 3706 1856 3706 1288 
Q 3706 609 3251 259 
Q 2797 -91 1919 -91 
Q 1588 -91 1214 -16 
Q 841 59 441 206 
L 441 856 
Q 825 641 1194 531 
Q 1563 422 1919 422 
Q 2459 422 2753 634 
Q 3047 847 3047 1241 
Q 3047 1584 2836 1778 
Q 2625 1972 2144 2069 
L 1759 2144 
Q 1053 2284 737 2584 
Q 422 2884 422 3419 
Q 422 4038 858 4394 
Q 1294 4750 2059 4750 
Q 2388 4750 2728 4690 
Q 3069 4631 3425 4513 
z
" transform="scale(0.015625)"/>
        <path id="DejaVuSans-75" d="M 544 1381 
L 544 3500 
L 1119 3500 
L 1119 1403 
Q 1119 906 1312 657 
Q 1506 409 1894 409 
Q 2359 409 2629 706 
Q 2900 1003 2900 1516 
L 2900 3500 
L 3475 3500 
L 3475 0 
L 2900 0 
L 2900 538 
Q 2691 219 2414 64 
Q 2138 -91 1772 -91 
Q 1169 -91 856 284 
Q 544 659 544 1381 
z
M 1991 3584 
L 1991 3584 
z
" transform="scale(0.015625)"/>
       </defs>
       <use xlink:href="#DejaVuSans-53"/>
       <use xlink:href="#DejaVuSans-75" x="63.476562"/>
       <use xlink:href="#DejaVuSans-6e" x="126.855469"/>
      </g>
      <!-- 2022-01-23 -->
      <g transform="translate(389.005054 334.58825) scale(0.1 -0.1)">
       <defs>
        <path id="DejaVuSans-33" d="M 2597 2516 
Q 3050 2419 3304 2112 
Q 3559 1806 3559 1356 
Q 3559 666 3084 287 
Q 2609 -91 1734 -91 
Q 1441 -91 1130 -33 
Q 819 25 488 141 
L 488 750 
Q 750 597 1062 519 
Q 1375 441 1716 441 
Q 2309 441 2620 675 
Q 2931 909 2931 1356 
Q 2931 1769 2642 2001 
Q 2353 2234 1838 2234 
L 1294 2234 
L 1294 2753 
L 1863 2753 
Q 2328 2753 2575 2939 
Q 2822 3125 2822 3475 
Q 2822 3834 2567 4026 
Q 2313 4219 1838 4219 
Q 1578 4219 1281 4162 
Q 984 4106 628 3988 
L 628 4550 
Q 988 4650 1302 4700 
Q 1616 4750 1894 4750 
Q 2613 4750 3031 4423 
Q 3450 4097 3450 3541 
Q 3450 3153 3228 2886 
Q 3006 2619 2597 2516 
z
" transform="scale(0.015625)"/>
       </defs>
       <use xlink:href="#DejaVuSans-32"/>
       <use xlink:href="#DejaVuSans-30" x="63.623047"/>
       <use xlink:href="#DejaVuSans-32" x="127.246094"/>
       <use xlink:href="#DejaVuSans-32" x="190.869141"/>
       <use xlink:href="#DejaVuSans-2d" x="254.492188"/>
       <use xlink:href="#DejaVuSans-30" x="290.576172"/>
       <use xlink:href="#DejaVuSans-31" x="354.199219"/>
       <use xlink:href="#DejaVuSans-2d" x="417.822266"/>
       <use xlink:href="#DejaVuSans-32" x="453.90625"/>
       <use xlink:href="#DejaVuSans-33" x="517.529297"/>
      </g>
      <!-- 19:00 -->
      <g transform="translate(403.653491 345.786063) scale(0.1 -0.1)">
       <use xlink:href="#DejaVuSans-31"/>
       <use xlink:href="#DejaVuSans-39" x="63.623047"/>
       <use xlink:href="#DejaVuSans-3a" x="127.246094"/>
       <use xlink:href="#DejaVuSans-30" x="160.9375"/>
       <use xlink:href="#DejaVuSans-30" x="224.560547"/>
      </g>
     </g>
    </g>
    <g id="xtick_5">
     <g id="line2d_5">
      <g>
       <use xlink:href="#mb451314cf4" x="515.686528" y="308.792" style="stroke: #000000; stroke-width: 0.8"/>
      </g>
     </g>
     <g id="text_5">
      <!-- Tue -->
      <g transform="translate(507.143559 323.390438) scale(0.1 -0.1)">
       <defs>
        <path id="DejaVuSans-54" d="M -19 4666 
L 3928 4666 
L 3928 4134 
L 2272 4134 
L 2272 0 
L 1638 0 
L 1638 4134 
L -19 4134 
L -19 4666 
z
" transform="scale(0.015625)"/>
       </defs>
       <use xlink:href="#DejaVuSans-54"/>
       <use xlink:href="#DejaVuSans-75" x="45.958984"/>
       <use xlink:href="#DejaVuSans-65" x="109.337891"/>
      </g>
      <!-- 2022-01-25 -->
      <g transform="translate(486.628715 334.58825) scale(0.1 -0.1)">
       <defs>
        <path id="DejaVuSans-35" d="M 691 4666 
L 3169 4666 
L 3169 4134 
L 1269 4134 
L 1269 2991 
Q 1406 3038 1543 3061 
Q 1681 3084 1819 3084 
Q 2600 3084 3056 2656 
Q 3513 2228 3513 1497 
Q 3513 744 3044 326 
Q 2575 -91 1722 -91 
Q 1428 -91 1123 -41 
Q 819 9 494 109 
L 494 744 
Q 775 591 1075 516 
Q 1375 441 1709 441 
Q 2250 441 2565 725 
Q 2881 1009 2881 1497 
Q 2881 1984 2565 2268 
Q 2250 2553 1709 2553 
Q 1456 2553 1204 2497 
Q 953 2441 691 2322 
L 691 4666 
z
" transform="scale(0.015625)"/>
       </defs>
       <use xlink:href="#DejaVuSans-32"/>
       <use xlink:href="#DejaVuSans-30" x="63.623047"/>
       <use xlink:href="#DejaVuSans-32" x="127.246094"/>
       <use xlink:href="#DejaVuSans-32" x="190.869141"/>
       <use xlink:href="#DejaVuSans-2d" x="254.492188"/>
       <use xlink:href="#DejaVuSans-30" x="290.576172"/>
       <use xlink:href="#DejaVuSans-31" x="354.199219"/>
       <use xlink:href="#DejaVuSans-2d" x="417.822266"/>
       <use xlink:href="#DejaVuSans-32" x="453.90625"/>
       <use xlink:href="#DejaVuSans-35" x="517.529297"/>
      </g>
      <!-- 19:00 -->
      <g transform="translate(501.277153 345.786063) scale(0.1 -0.1)">
       <use xlink:href="#DejaVuSans-31"/>
       <use xlink:href="#DejaVuSans-39" x="63.623047"/>
       <use xlink:href="#DejaVuSans-3a" x="127.246094"/>
       <use xlink:href="#DejaVuSans-30" x="160.9375"/>
       <use xlink:href="#DejaVuSans-30" x="224.560547"/>
      </g>
     </g>
    </g>
    <g id="xtick_6">
     <g id="line2d_6">
      <g>
       <use xlink:href="#mb451314cf4" x="613.31019" y="308.792" style="stroke: #000000; stroke-width: 0.8"/>
      </g>
     </g>
     <g id="text_6">
      <!-- Thu -->
      <g transform="translate(603.918783 323.390438) scale(0.1 -0.1)">
       <defs>
        <path id="DejaVuSans-68" d="M 3513 2113 
L 3513 0 
L 2938 0 
L 2938 2094 
Q 2938 2591 2744 2837 
Q 2550 3084 2163 3084 
Q 1697 3084 1428 2787 
Q 1159 2491 1159 1978 
L 1159 0 
L 581 0 
L 581 4863 
L 1159 4863 
L 1159 2956 
Q 1366 3272 1645 3428 
Q 1925 3584 2291 3584 
Q 2894 3584 3203 3211 
Q 3513 2838 3513 2113 
z
" transform="scale(0.015625)"/>
       </defs>
       <use xlink:href="#DejaVuSans-54"/>
       <use xlink:href="#DejaVuSans-68" x="61.083984"/>
       <use xlink:href="#DejaVuSans-75" x="124.462891"/>
      </g>
      <!-- 2022-01-27 -->
      <g transform="translate(584.252377 334.58825) scale(0.1 -0.1)">
       <use xlink:href="#DejaVuSans-32"/>
       <use xlink:href="#DejaVuSans-30" x="63.623047"/>
       <use xlink:href="#DejaVuSans-32" x="127.246094"/>
       <use xlink:href="#DejaVuSans-32" x="190.869141"/>
       <use xlink:href="#DejaVuSans-2d" x="254.492188"/>
       <use xlink:href="#DejaVuSans-30" x="290.576172"/>
       <use xlink:href="#DejaVuSans-31" x="354.199219"/>
       <use xlink:href="#DejaVuSans-2d" x="417.822266"/>
       <use xlink:href="#DejaVuSans-32" x="453.90625"/>
       <use xlink:href="#DejaVuSans-37" x="517.529297"/>
      </g>
      <!-- 19:00 -->
      <g transform="translate(598.900815 345.786063) scale(0.1 -0.1)">
       <use xlink:href="#DejaVuSans-31"/>
       <use xlink:href="#DejaVuSans-39" x="63.623047"/>
       <use xlink:href="#DejaVuSans-3a" x="127.246094"/>
       <use xlink:href="#DejaVuSans-30" x="160.9375"/>
       <use xlink:href="#DejaVuSans-30" x="224.560547"/>
      </g>
     </g>
    </g>
    <g id="xtick_7">
     <g id="line2d_7">
      <g>
       <use xlink:href="#mb451314cf4" x="710.933851" y="308.792" style="stroke: #000000; stroke-width: 0.8"/>
      </g>
     </g>
     <g id="text_7">
      <!-- Sat -->
      <g transform="translate(702.735414 323.390438) scale(0.1 -0.1)">
       <defs>
        <path id="DejaVuSans-61" d="M 2194 1759 
Q 1497 1759 1228 1600 
Q 959 1441 959 1056 
Q 959 750 1161 570 
Q 1363 391 1709 391 
Q 2188 391 2477 730 
Q 2766 1069 2766 1631 
L 2766 1759 
L 2194 1759 
z
M 3341 1997 
L 3341 0 
L 2766 0 
L 2766 531 
Q 2569 213 2275 61 
Q 1981 -91 1556 -91 
Q 1019 -91 701 211 
Q 384 513 384 1019 
Q 384 1609 779 1909 
Q 1175 2209 1959 2209 
L 2766 2209 
L 2766 2266 
Q 2766 2663 2505 2880 
Q 2244 3097 1772 3097 
Q 1472 3097 1187 3025 
Q 903 2953 641 2809 
L 641 3341 
Q 956 3463 1253 3523 
Q 1550 3584 1831 3584 
Q 2591 3584 2966 3190 
Q 3341 2797 3341 1997 
z
" transform="scale(0.015625)"/>
        <path id="DejaVuSans-74" d="M 1172 4494 
L 1172 3500 
L 2356 3500 
L 2356 3053 
L 1172 3053 
L 1172 1153 
Q 1172 725 1289 603 
Q 1406 481 1766 481 
L 2356 481 
L 2356 0 
L 1766 0 
Q 1100 0 847 248 
Q 594 497 594 1153 
L 594 3053 
L 172 3053 
L 172 3500 
L 594 3500 
L 594 4494 
L 1172 4494 
z
" transform="scale(0.015625)"/>
       </defs>
       <use xlink:href="#DejaVuSans-53"/>
       <use xlink:href="#DejaVuSans-61" x="63.476562"/>
       <use xlink:href="#DejaVuSans-74" x="124.755859"/>
      </g>
      <!-- 2022-01-29 -->
      <g transform="translate(681.876039 334.58825) scale(0.1 -0.1)">
       <use xlink:href="#DejaVuSans-32"/>
       <use xlink:href="#DejaVuSans-30" x="63.623047"/>
       <use xlink:href="#DejaVuSans-32" x="127.246094"/>
       <use xlink:href="#DejaVuSans-32" x="190.869141"/>
       <use xlink:href="#DejaVuSans-2d" x="254.492188"/>
       <use xlink:href="#DejaVuSans-30" x="290.576172"/>
       <use xlink:href="#DejaVuSans-31" x="354.199219"/>
       <use xlink:href="#DejaVuSans-2d" x="417.822266"/>
       <use xlink:href="#DejaVuSans-32" x="453.90625"/>
       <use xlink:href="#DejaVuSans-39" x="517.529297"/>
      </g>
      <!-- 19:00 -->
      <g transform="translate(696.524476 345.786063) scale(0.1 -0.1)">
       <use xlink:href="#DejaVuSans-31"/>
       <use xlink:href="#DejaVuSans-39" x="63.623047"/>
       <use xlink:href="#DejaVuSans-3a" x="127.246094"/>
       <use xlink:href="#DejaVuSans-30" x="160.9375"/>
       <use xlink:href="#DejaVuSans-30" x="224.560547"/>
      </g>
     </g>
    </g>
    <g id="xtick_8">
     <g id="line2d_8">
      <g>
       <use xlink:href="#mb451314cf4" x="808.557513" y="308.792" style="stroke: #000000; stroke-width: 0.8"/>
      </g>
     </g>
     <g id="text_8">
      <!-- Mon -->
      <g transform="translate(798.015326 323.390438) scale(0.1 -0.1)">
       <use xlink:href="#DejaVuSans-4d"/>
       <use xlink:href="#DejaVuSans-6f" x="86.279297"/>
       <use xlink:href="#DejaVuSans-6e" x="147.460938"/>
      </g>
      <!-- 2022-01-31 -->
      <g transform="translate(779.499701 334.58825) scale(0.1 -0.1)">
       <use xlink:href="#DejaVuSans-32"/>
       <use xlink:href="#DejaVuSans-30" x="63.623047"/>
       <use xlink:href="#DejaVuSans-32" x="127.246094"/>
       <use xlink:href="#DejaVuSans-32" x="190.869141"/>
       <use xlink:href="#DejaVuSans-2d" x="254.492188"/>
       <use xlink:href="#DejaVuSans-30" x="290.576172"/>
       <use xlink:href="#DejaVuSans-31" x="354.199219"/>
       <use xlink:href="#DejaVuSans-2d" x="417.822266"/>
       <use xlink:href="#DejaVuSans-33" x="453.90625"/>
       <use xlink:href="#DejaVuSans-31" x="517.529297"/>
      </g>
      <!-- 19:00 -->
      <g transform="translate(794.148138 345.786063) scale(0.1 -0.1)">
       <use xlink:href="#DejaVuSans-31"/>
       <use xlink:href="#DejaVuSans-39" x="63.623047"/>
       <use xlink:href="#DejaVuSans-3a" x="127.246094"/>
       <use xlink:href="#DejaVuSans-30" x="160.9375"/>
       <use xlink:href="#DejaVuSans-30" x="224.560547"/>
      </g>
     </g>
    </g>
   </g>
   <g id="matplotlib.axis_2">
    <g id="ytick_1">
     <g id="line2d_9">
      <path d="M 50.042 274.8114 
L 853.2 274.8114 
" clip-path="url(#p772c028380)" style="fill: none; stroke-dasharray: 1.85,0.8; stroke-dashoffset: 0; stroke: #d3d3d3; stroke-width: 0.5"/>
     </g>
     <g id="line2d_10">
      <defs>
       <path id="mfd7cbeead1" d="M 0 0 
L -3.5 0 
" style="stroke: #000000; stroke-width: 0.8"/>
      </defs>
      <g>
       <use xlink:href="#mfd7cbeead1" x="50.042" y="274.8114" style="stroke: #000000; stroke-width: 0.8"/>
      </g>
     </g>
     <g id="text_9">
      <!-- 10 -->
      <g transform="translate(30.317 278.610619) scale(0.1 -0.1)">
       <use xlink:href="#DejaVuSans-31"/>
       <use xlink:href="#DejaVuSans-30" x="63.623047"/>
      </g>
     </g>
    </g>
    <g id="ytick_2">
     <g id="line2d_11">
      <path d="M 50.042 239.598343 
L 853.2 239.598343 
" clip-path="url(#p772c028380)" style="fill: none; stroke-dasharray: 1.85,0.8; stroke-dashoffset: 0; stroke: #d3d3d3; stroke-width: 0.5"/>
     </g>
     <g id="line2d_12">
      <g>
       <use xlink:href="#mfd7cbeead1" x="50.042" y="239.598343" style="stroke: #000000; stroke-width: 0.8"/>
      </g>
     </g>
     <g id="text_10">
      <!-- 20 -->
      <g transform="translate(30.317 243.397561) scale(0.1 -0.1)">
       <use xlink:href="#DejaVuSans-32"/>
       <use xlink:href="#DejaVuSans-30" x="63.623047"/>
      </g>
     </g>
    </g>
    <g id="ytick_3">
     <g id="line2d_13">
      <path d="M 50.042 204.385286 
L 853.2 204.385286 
" clip-path="url(#p772c028380)" style="fill: none; stroke-dasharray: 1.85,0.8; stroke-dashoffset: 0; stroke: #d3d3d3; stroke-width: 0.5"/>
     </g>
     <g id="line2d_14">
      <g>
       <use xlink:href="#mfd7cbeead1" x="50.042" y="204.385286" style="stroke: #000000; stroke-width: 0.8"/>
      </g>
     </g>
     <g id="text_11">
      <!-- 30 -->
      <g transform="translate(30.317 208.184504) scale(0.1 -0.1)">
       <use xlink:href="#DejaVuSans-33"/>
       <use xlink:href="#DejaVuSans-30" x="63.623047"/>
      </g>
     </g>
    </g>
    <g id="ytick_4">
     <g id="line2d_15">
      <path d="M 50.042 169.172228 
L 853.2 169.172228 
" clip-path="url(#p772c028380)" style="fill: none; stroke-dasharray: 1.85,0.8; stroke-dashoffset: 0; stroke: #d3d3d3; stroke-width: 0.5"/>
     </g>
     <g id="line2d_16">
      <g>
       <use xlink:href="#mfd7cbeead1" x="50.042" y="169.172228" style="stroke: #000000; stroke-width: 0.8"/>
      </g>
     </g>
     <g id="text_12">
      <!-- 40 -->
      <g transform="translate(30.317 172.971447) scale(0.1 -0.1)">
       <defs>
        <path id="DejaVuSans-34" d="M 2419 4116 
L 825 1625 
L 2419 1625 
L 2419 4116 
z
M 2253 4666 
L 3047 4666 
L 3047 1625 
L 3713 1625 
L 3713 1100 
L 3047 1100 
L 3047 0 
L 2419 0 
L 2419 1100 
L 313 1100 
L 313 1709 
L 2253 4666 
z
" transform="scale(0.015625)"/>
       </defs>
       <use xlink:href="#DejaVuSans-34"/>
       <use xlink:href="#DejaVuSans-30" x="63.623047"/>
      </g>
     </g>
    </g>
    <g id="ytick_5">
     <g id="line2d_17">
      <path d="M 50.042 133.959171 
L 853.2 133.959171 
" clip-path="url(#p772c028380)" style="fill: none; stroke-dasharray: 1.85,0.8; stroke-dashoffset: 0; stroke: #d3d3d3; stroke-width: 0.5"/>
     </g>
     <g id="line2d_18">
      <g>
       <use xlink:href="#mfd7cbeead1" x="50.042" y="133.959171" style="stroke: #000000; stroke-width: 0.8"/>
      </g>
     </g>
     <g id="text_13">
      <!-- 50 -->
      <g transform="translate(30.317 137.75839) scale(0.1 -0.1)">
       <use xlink:href="#DejaVuSans-35"/>
       <use xlink:href="#DejaVuSans-30" x="63.623047"/>
      </g>
     </g>
    </g>
    <g id="ytick_6">
     <g id="line2d_19">
      <path d="M 50.042 98.746114 
L 853.2 98.746114 
" clip-path="url(#p772c028380)" style="fill: none; stroke-dasharray: 1.85,0.8; stroke-dashoffset: 0; stroke: #d3d3d3; stroke-width: 0.5"/>
     </g>
     <g id="line2d_20">
      <g>
       <use xlink:href="#mfd7cbeead1" x="50.042" y="98.746114" style="stroke: #000000; stroke-width: 0.8"/>
      </g>
     </g>
     <g id="text_14">
      <!-- 60 -->
      <g transform="translate(30.317 102.545333) scale(0.1 -0.1)">
       <defs>
        <path id="DejaVuSans-36" d="M 2113 2584 
Q 1688 2584 1439 2293 
Q 1191 2003 1191 1497 
Q 1191 994 1439 701 
Q 1688 409 2113 409 
Q 2538 409 2786 701 
Q 3034 994 3034 1497 
Q 3034 2003 2786 2293 
Q 2538 2584 2113 2584 
z
M 3366 4563 
L 3366 3988 
Q 3128 4100 2886 4159 
Q 2644 4219 2406 4219 
Q 1781 4219 1451 3797 
Q 1122 3375 1075 2522 
Q 1259 2794 1537 2939 
Q 1816 3084 2150 3084 
Q 2853 3084 3261 2657 
Q 3669 2231 3669 1497 
Q 3669 778 3244 343 
Q 2819 -91 2113 -91 
Q 1303 -91 875 529 
Q 447 1150 447 2328 
Q 447 3434 972 4092 
Q 1497 4750 2381 4750 
Q 2619 4750 2861 4703 
Q 3103 4656 3366 4563 
z
" transform="scale(0.015625)"/>
       </defs>
       <use xlink:href="#DejaVuSans-36"/>
       <use xlink:href="#DejaVuSans-30" x="63.623047"/>
      </g>
     </g>
    </g>
    <g id="ytick_7">
     <g id="line2d_21">
      <path d="M 50.042 63.533057 
L 853.2 63.533057 
" clip-path="url(#p772c028380)" style="fill: none; stroke-dasharray: 1.85,0.8; stroke-dashoffset: 0; stroke: #d3d3d3; stroke-width: 0.5"/>
     </g>
     <g id="line2d_22">
      <g>
       <use xlink:href="#mfd7cbeead1" x="50.042" y="63.533057" style="stroke: #000000; stroke-width: 0.8"/>
      </g>
     </g>
     <g id="text_15">
      <!-- 70 -->
      <g transform="translate(30.317 67.332276) scale(0.1 -0.1)">
       <use xlink:href="#DejaVuSans-37"/>
       <use xlink:href="#DejaVuSans-30" x="63.623047"/>
      </g>
     </g>
    </g>
    <g id="ytick_8">
     <g id="line2d_23">
      <path d="M 50.042 28.32 
L 853.2 28.32 
" clip-path="url(#p772c028380)" style="fill: none; stroke-dasharray: 1.85,0.8; stroke-dashoffset: 0; stroke: #d3d3d3; stroke-width: 0.5"/>
     </g>
     <g id="line2d_24">
      <g>
       <use xlink:href="#mfd7cbeead1" x="50.042" y="28.32" style="stroke: #000000; stroke-width: 0.8"/>
      </g>
     </g>
     <g id="text_16">
      <!-- 80 -->
      <g transform="translate(30.317 32.119219) scale(0.1 -0.1)">
       <defs>
        <path id="DejaVuSans-38" d="M 2034 2216 
Q 1584 2216 1326 1975 
Q 1069 1734 1069 1313 
Q 1069 891 1326 650 
Q 1584 409 2034 409 
Q 2484 409 2743 651 
Q 3003 894 3003 1313 
Q 3003 1734 2745 1975 
Q 2488 2216 2034 2216 
z
M 1403 2484 
Q 997 2584 770 2862 
Q 544 3141 544 3541 
Q 544 4100 942 4425 
Q 1341 4750 2034 4750 
Q 2731 4750 3128 4425 
Q 3525 4100 3525 3541 
Q 3525 3141 3298 2862 
Q 3072 2584 2669 2484 
Q 3125 2378 3379 2068 
Q 3634 1759 3634 1313 
Q 3634 634 3220 271 
Q 2806 -91 2034 -91 
Q 1263 -91 848 271 
Q 434 634 434 1313 
Q 434 1759 690 2068 
Q 947 2378 1403 2484 
z
M 1172 3481 
Q 1172 3119 1398 2916 
Q 1625 2713 2034 2713 
Q 2441 2713 2670 2916 
Q 2900 3119 2900 3481 
Q 2900 3844 2670 4047 
Q 2441 4250 2034 4250 
Q 1625 4250 1398 4047 
Q 1172 3844 1172 3481 
z
" transform="scale(0.015625)"/>
       </defs>
       <use xlink:href="#DejaVuSans-38"/>
       <use xlink:href="#DejaVuSans-30" x="63.623047"/>
      </g>
     </g>
    </g>
    <g id="text_17">
     <!-- Particles density $µg/m^3$ -->
     <g transform="translate(24.217 226.906) rotate(-90) scale(0.1 -0.1)">
      <defs>
       <path id="DejaVuSans-50" d="M 1259 4147 
L 1259 2394 
L 2053 2394 
Q 2494 2394 2734 2622 
Q 2975 2850 2975 3272 
Q 2975 3691 2734 3919 
Q 2494 4147 2053 4147 
L 1259 4147 
z
M 628 4666 
L 2053 4666 
Q 2838 4666 3239 4311 
Q 3641 3956 3641 3272 
Q 3641 2581 3239 2228 
Q 2838 1875 2053 1875 
L 1259 1875 
L 1259 0 
L 628 0 
L 628 4666 
z
" transform="scale(0.015625)"/>
       <path id="DejaVuSans-63" d="M 3122 3366 
L 3122 2828 
Q 2878 2963 2633 3030 
Q 2388 3097 2138 3097 
Q 1578 3097 1268 2742 
Q 959 2388 959 1747 
Q 959 1106 1268 751 
Q 1578 397 2138 397 
Q 2388 397 2633 464 
Q 2878 531 3122 666 
L 3122 134 
Q 2881 22 2623 -34 
Q 2366 -91 2075 -91 
Q 1284 -91 818 406 
Q 353 903 353 1747 
Q 353 2603 823 3093 
Q 1294 3584 2113 3584 
Q 2378 3584 2631 3529 
Q 2884 3475 3122 3366 
z
" transform="scale(0.015625)"/>
       <path id="DejaVuSans-6c" d="M 603 4863 
L 1178 4863 
L 1178 0 
L 603 0 
L 603 4863 
z
" transform="scale(0.015625)"/>
       <path id="DejaVuSans-73" d="M 2834 3397 
L 2834 2853 
Q 2591 2978 2328 3040 
Q 2066 3103 1784 3103 
Q 1356 3103 1142 2972 
Q 928 2841 928 2578 
Q 928 2378 1081 2264 
Q 1234 2150 1697 2047 
L 1894 2003 
Q 2506 1872 2764 1633 
Q 3022 1394 3022 966 
Q 3022 478 2636 193 
Q 2250 -91 1575 -91 
Q 1294 -91 989 -36 
Q 684 19 347 128 
L 347 722 
Q 666 556 975 473 
Q 1284 391 1588 391 
Q 1994 391 2212 530 
Q 2431 669 2431 922 
Q 2431 1156 2273 1281 
Q 2116 1406 1581 1522 
L 1381 1569 
Q 847 1681 609 1914 
Q 372 2147 372 2553 
Q 372 3047 722 3315 
Q 1072 3584 1716 3584 
Q 2034 3584 2315 3537 
Q 2597 3491 2834 3397 
z
" transform="scale(0.015625)"/>
       <path id="DejaVuSans-20" transform="scale(0.015625)"/>
       <path id="DejaVuSans-79" d="M 2059 -325 
Q 1816 -950 1584 -1140 
Q 1353 -1331 966 -1331 
L 506 -1331 
L 506 -850 
L 844 -850 
Q 1081 -850 1212 -737 
Q 1344 -625 1503 -206 
L 1606 56 
L 191 3500 
L 800 3500 
L 1894 763 
L 2988 3500 
L 3597 3500 
L 2059 -325 
z
" transform="scale(0.015625)"/>
       <path id="DejaVuSans-Oblique-b5" d="M -84 -1331 
L 856 3500 
L 1434 3500 
L 1009 1322 
Q 997 1256 987 1175 
Q 978 1094 978 1013 
Q 978 722 1161 565 
Q 1344 409 1684 409 
Q 2147 409 2431 671 
Q 2716 934 2816 1459 
L 3213 3500 
L 3788 3500 
L 3266 809 
Q 3253 750 3248 706 
Q 3244 663 3244 628 
Q 3244 531 3283 486 
Q 3322 441 3406 441 
Q 3438 441 3492 456 
Q 3547 472 3647 513 
L 3559 50 
Q 3422 -19 3297 -55 
Q 3172 -91 3053 -91 
Q 2847 -91 2730 40 
Q 2613 172 2613 403 
Q 2438 153 2195 31 
Q 1953 -91 1625 -91 
Q 1334 -91 1117 43 
Q 900 178 831 397 
L 494 -1331 
L -84 -1331 
z
" transform="scale(0.015625)"/>
       <path id="DejaVuSans-Oblique-67" d="M 3816 3500 
L 3219 434 
Q 3047 -456 2561 -893 
Q 2075 -1331 1253 -1331 
Q 950 -1331 690 -1286 
Q 431 -1241 206 -1147 
L 313 -588 
Q 525 -725 762 -790 
Q 1000 -856 1269 -856 
Q 1816 -856 2167 -557 
Q 2519 -259 2631 300 
L 2681 563 
Q 2441 288 2122 144 
Q 1803 0 1434 0 
Q 903 0 598 351 
Q 294 703 294 1319 
Q 294 1803 478 2267 
Q 663 2731 997 3091 
Q 1219 3328 1514 3456 
Q 1809 3584 2131 3584 
Q 2484 3584 2746 3420 
Q 3009 3256 3138 2956 
L 3238 3500 
L 3816 3500 
z
M 2950 2216 
Q 2950 2641 2750 2872 
Q 2550 3103 2181 3103 
Q 1953 3103 1747 3012 
Q 1541 2922 1394 2759 
Q 1156 2491 1023 2127 
Q 891 1763 891 1375 
Q 891 944 1092 712 
Q 1294 481 1672 481 
Q 2219 481 2584 976 
Q 2950 1472 2950 2216 
z
" transform="scale(0.015625)"/>
       <path id="DejaVuSans-2f" d="M 1625 4666 
L 2156 4666 
L 531 -594 
L 0 -594 
L 1625 4666 
z
" transform="scale(0.015625)"/>
       <path id="DejaVuSans-Oblique-6d" d="M 5747 2113 
L 5338 0 
L 4763 0 
L 5166 2094 
Q 5191 2228 5203 2325 
Q 5216 2422 5216 2491 
Q 5216 2772 5059 2928 
Q 4903 3084 4622 3084 
Q 4203 3084 3875 2770 
Q 3547 2456 3450 1953 
L 3066 0 
L 2491 0 
L 2900 2094 
Q 2925 2209 2937 2307 
Q 2950 2406 2950 2484 
Q 2950 2769 2794 2926 
Q 2638 3084 2363 3084 
Q 1938 3084 1609 2770 
Q 1281 2456 1184 1953 
L 800 0 
L 225 0 
L 909 3500 
L 1484 3500 
L 1375 2956 
Q 1609 3263 1923 3423 
Q 2238 3584 2597 3584 
Q 2978 3584 3223 3384 
Q 3469 3184 3519 2828 
Q 3781 3197 4126 3390 
Q 4472 3584 4856 3584 
Q 5306 3584 5551 3325 
Q 5797 3066 5797 2591 
Q 5797 2488 5784 2364 
Q 5772 2241 5747 2113 
z
" transform="scale(0.015625)"/>
      </defs>
      <use xlink:href="#DejaVuSans-50" transform="translate(0 0.765625)"/>
      <use xlink:href="#DejaVuSans-61" transform="translate(60.302734 0.765625)"/>
      <use xlink:href="#DejaVuSans-72" transform="translate(121.582031 0.765625)"/>
      <use xlink:href="#DejaVuSans-74" transform="translate(162.695312 0.765625)"/>
      <use xlink:href="#DejaVuSans-69" transform="translate(201.904297 0.765625)"/>
      <use xlink:href="#DejaVuSans-63" transform="translate(229.6875 0.765625)"/>
      <use xlink:href="#DejaVuSans-6c" transform="translate(284.667969 0.765625)"/>
      <use xlink:href="#DejaVuSans-65" transform="translate(312.451172 0.765625)"/>
      <use xlink:href="#DejaVuSans-73" transform="translate(373.974609 0.765625)"/>
      <use xlink:href="#DejaVuSans-20" transform="translate(426.074219 0.765625)"/>
      <use xlink:href="#DejaVuSans-64" transform="translate(457.861328 0.765625)"/>
      <use xlink:href="#DejaVuSans-65" transform="translate(521.337891 0.765625)"/>
      <use xlink:href="#DejaVuSans-6e" transform="translate(582.861328 0.765625)"/>
      <use xlink:href="#DejaVuSans-73" transform="translate(646.240234 0.765625)"/>
      <use xlink:href="#DejaVuSans-69" transform="translate(698.339844 0.765625)"/>
      <use xlink:href="#DejaVuSans-74" transform="translate(726.123047 0.765625)"/>
      <use xlink:href="#DejaVuSans-79" transform="translate(765.332031 0.765625)"/>
      <use xlink:href="#DejaVuSans-20" transform="translate(824.511719 0.765625)"/>
      <use xlink:href="#DejaVuSans-Oblique-b5" transform="translate(856.298828 0.765625)"/>
      <use xlink:href="#DejaVuSans-Oblique-67" transform="translate(919.921875 0.765625)"/>
      <use xlink:href="#DejaVuSans-2f" transform="translate(983.398438 0.765625)"/>
      <use xlink:href="#DejaVuSans-Oblique-6d" transform="translate(1017.089844 0.765625)"/>
      <use xlink:href="#DejaVuSans-33" transform="translate(1119.151849 39.046875) scale(0.7)"/>
     </g>
    </g>
   </g>
   <g id="line2d_25">
    <path d="M 86.549182 285.375317 
L 88.583008 285.375317 
L 92.650661 278.332706 
L 94.684487 285.375317 
L 98.75214 285.375317 
L 100.785966 274.8114 
L 102.819792 271.290094 
L 106.887445 271.290094 
L 108.921271 257.204871 
L 112.988924 264.247483 
L 115.02275 274.8114 
L 117.056576 278.332706 
L 119.090402 264.247483 
L 121.124229 267.768788 
L 123.158055 278.332706 
L 125.191881 267.768788 
L 127.225708 281.854011 
L 129.259534 292.417928 
L 131.29336 288.896623 
L 133.327186 295.939234 
L 135.361013 292.417928 
L 137.394839 292.417928 
L 139.428665 288.896623 
L 141.462492 295.939234 
L 147.56397 285.375317 
L 149.597797 260.726177 
L 151.631623 239.598343 
L 155.699276 239.598343 
L 157.733102 257.204871 
L 159.766928 267.768788 
L 161.800754 274.8114 
L 163.834581 257.204871 
L 165.868407 260.726177 
L 167.902233 271.290094 
L 169.93606 260.726177 
L 171.969886 257.204871 
L 174.003712 260.726177 
L 176.037538 246.640954 
L 178.071365 257.204871 
L 180.105191 246.640954 
L 182.139017 243.119648 
L 184.172844 250.16226 
L 186.20667 260.726177 
L 188.240496 264.247483 
L 192.308149 278.332706 
L 194.341975 274.8114 
L 196.375801 264.247483 
L 198.409628 243.119648 
L 200.443454 239.598343 
L 202.47728 229.034426 
L 204.511106 214.949203 
L 206.544933 250.16226 
L 208.578759 250.16226 
L 210.612585 267.768788 
L 212.646411 264.247483 
L 214.680238 264.247483 
L 216.714064 243.119648 
L 218.74789 253.683566 
L 220.781717 250.16226 
L 224.849369 229.034426 
L 226.883195 267.768788 
L 228.917022 243.119648 
L 230.950848 221.991814 
L 232.984674 253.683566 
L 235.018501 271.290094 
L 237.052327 267.768788 
L 239.086153 253.683566 
L 243.153806 260.726177 
L 245.187632 243.119648 
L 247.221458 239.598343 
L 249.255285 232.555731 
L 251.289111 229.034426 
L 253.322937 236.077037 
L 255.356763 257.204871 
L 257.39059 257.204871 
L 259.424416 267.768788 
L 261.458242 257.204871 
L 263.492069 250.16226 
L 265.525895 250.16226 
L 267.559721 264.247483 
L 269.593547 250.16226 
L 271.627374 246.640954 
L 273.6612 229.034426 
L 275.695026 197.342674 
L 277.728853 221.991814 
L 279.762679 236.077037 
L 281.796505 236.077037 
L 283.830331 253.683566 
L 285.864158 260.726177 
L 287.897984 260.726177 
L 289.93181 267.768788 
L 293.999463 288.896623 
L 298.067115 267.768788 
L 300.100942 267.768788 
L 302.134768 264.247483 
L 304.168594 281.854011 
L 306.202421 239.598343 
L 308.236247 225.51312 
L 310.270073 239.598343 
L 312.303899 264.247483 
L 314.337726 271.290094 
L 316.371552 271.290094 
L 318.405378 274.8114 
L 320.439205 281.854011 
L 322.473031 278.332706 
L 324.506857 288.896623 
L 328.57451 281.854011 
L 330.608336 253.683566 
L 332.642162 271.290094 
L 334.675989 299.46054 
L 336.709815 295.939234 
L 338.743641 302.981846 
L 340.777467 299.46054 
L 342.811294 302.981846 
L 344.84512 288.896623 
L 346.878946 281.854011 
L 348.912773 281.854011 
L 350.946599 278.332706 
L 355.014251 278.332706 
L 357.048078 281.854011 
L 359.081904 274.8114 
L 361.11573 278.332706 
L 363.149557 274.8114 
L 365.183383 267.768788 
L 367.217209 267.768788 
L 369.251035 264.247483 
L 371.284862 267.768788 
L 373.318688 264.247483 
L 375.352514 250.16226 
L 377.386341 264.247483 
L 379.420167 267.768788 
L 381.453993 267.768788 
L 383.487819 271.290094 
L 385.521646 267.768788 
L 387.555472 267.768788 
L 391.623125 274.8114 
L 393.656951 264.247483 
L 395.690777 264.247483 
L 399.75843 257.204871 
L 401.792256 264.247483 
L 403.826082 260.726177 
L 405.859909 264.247483 
L 407.893735 264.247483 
L 411.961387 257.204871 
L 413.995214 257.204871 
L 416.02904 267.768788 
L 418.062866 260.726177 
L 420.096693 267.768788 
L 422.130519 278.332706 
L 424.164345 274.8114 
L 426.198171 264.247483 
L 428.231998 274.8114 
L 430.265824 281.854011 
L 434.333477 281.854011 
L 436.367303 285.375317 
L 440.434955 271.290094 
L 442.468782 253.683566 
L 444.502608 250.16226 
L 446.536434 257.204871 
L 448.570261 271.290094 
L 450.604087 271.290094 
L 452.637913 278.332706 
L 454.671739 260.726177 
L 456.705566 255.567124 
L 458.739392 260.114938 
L 460.773218 258.860037 
L 462.807045 268.185502 
L 464.840871 282.639484 
L 466.874697 278.332706 
L 468.908523 281.854011 
L 470.94235 278.332706 
L 472.976176 285.375317 
L 475.010002 285.375317 
L 477.043829 292.417928 
L 479.077655 288.896623 
L 481.111481 292.417928 
L 485.179134 292.417928 
L 487.21296 288.896623 
L 489.246786 271.290094 
L 491.280613 246.640954 
L 493.314439 257.204871 
L 495.348265 253.683566 
L 497.382091 264.247483 
L 499.415918 281.854011 
L 501.449744 271.290094 
L 503.48357 282.20184 
L 505.517397 246.640954 
L 507.551223 260.726177 
L 509.585049 250.16226 
L 511.618875 257.204871 
L 513.652702 257.204871 
L 515.686528 264.247483 
L 517.720354 236.077037 
L 519.754181 267.768788 
L 521.788007 253.683566 
L 523.821833 257.204871 
L 525.855659 264.247483 
L 527.889486 278.332706 
L 529.923312 281.854011 
L 531.957138 278.332706 
L 533.990965 285.375317 
L 536.024791 281.854011 
L 538.058617 267.768788 
L 540.092443 239.598343 
L 542.12627 257.204871 
L 544.160096 257.204871 
L 546.193922 243.119648 
L 548.227749 200.86398 
L 550.261575 257.204871 
L 552.295401 257.204871 
L 554.329227 239.598343 
L 556.363054 204.385286 
L 558.39688 186.778757 
L 560.430706 229.034426 
L 562.464533 239.598343 
L 564.498359 260.726177 
L 566.532185 267.768788 
L 568.566011 260.726177 
L 570.599838 246.640954 
L 572.633664 257.204871 
L 574.66749 257.204871 
L 576.701317 274.8114 
L 578.735143 278.332706 
L 580.768969 278.332706 
L 582.802795 281.854011 
L 584.836622 274.8114 
L 586.870448 260.726177 
L 588.904274 232.555731 
L 590.938101 253.683566 
L 595.005753 260.726177 
L 597.039579 257.204871 
L 599.073406 260.726177 
L 603.141058 274.8114 
L 605.174885 267.768788 
L 607.208711 253.683566 
L 609.242537 250.16226 
L 611.276363 250.16226 
L 613.31019 257.204871 
L 615.344016 246.640954 
L 617.377842 243.119648 
L 619.411669 236.077037 
L 621.445495 239.598343 
L 623.479321 246.640954 
L 625.513147 250.16226 
L 627.546974 260.726177 
L 629.5808 264.247483 
L 631.614626 260.726177 
L 633.648453 260.726177 
L 635.682279 243.119648 
L 637.716105 229.034426 
L 639.749931 239.598343 
L 641.783758 229.034426 
L 643.817584 229.034426 
L 645.85141 253.683566 
L 647.885237 257.204871 
L 649.919063 243.119648 
L 651.952889 278.332706 
L 653.986715 257.204871 
L 656.020542 229.034426 
L 658.054368 264.873598 
L 660.088194 264.873598 
L 662.122021 213.394306 
L 664.155847 248.68626 
L 666.189673 214.949203 
L 668.223499 253.683566 
L 670.257326 267.768788 
L 672.291152 274.8114 
L 674.324978 288.896623 
L 676.358805 295.939234 
L 678.392631 295.939234 
L 680.426457 299.46054 
L 682.460283 292.417928 
L 684.49411 292.417928 
L 686.527936 285.375317 
L 688.561762 281.854011 
L 690.595589 257.204871 
L 692.629415 246.640954 
L 694.663241 239.598343 
L 696.697067 218.470508 
L 698.730894 229.034426 
L 700.76472 221.991814 
L 702.798546 239.598343 
L 704.832372 207.906591 
L 706.866199 214.949203 
L 708.900025 257.204871 
L 710.933851 243.119648 
L 712.967678 221.991814 
L 715.001504 253.683566 
L 717.03533 246.640954 
L 719.069156 246.640954 
L 721.102983 253.683566 
L 725.170635 260.726177 
L 727.204462 271.290094 
L 729.238288 260.726177 
L 731.272114 267.768788 
L 733.30594 267.768788 
L 735.339767 264.247483 
L 737.373593 257.204871 
L 739.407419 229.034426 
L 741.441246 232.555731 
L 743.475072 267.768788 
L 745.508898 281.854011 
L 749.576551 281.854011 
L 751.610377 274.8114 
L 753.644203 278.332706 
L 755.67803 229.034426 
L 757.711856 253.683566 
L 759.745682 257.204871 
L 761.779508 253.683566 
L 763.813335 264.247483 
L 767.880987 257.204871 
L 769.914814 278.332706 
L 773.982466 278.332706 
L 776.016292 281.854011 
L 778.050119 295.939234 
L 780.083945 281.854011 
L 782.117771 274.8114 
L 784.151598 250.16226 
L 786.185424 239.598343 
L 788.21925 257.204871 
L 790.253076 260.726177 
L 792.286903 250.16226 
L 794.320729 257.204871 
L 796.354555 243.119648 
L 798.388382 257.204871 
L 800.422208 253.683566 
L 802.456034 239.598343 
L 804.48986 267.768788 
L 806.523687 250.16226 
L 810.591339 271.290094 
L 812.625166 267.768788 
L 814.658992 278.332706 
L 816.692818 274.8114 
L 816.692818 274.8114 
" clip-path="url(#p772c028380)" style="fill: none; stroke: #000000; stroke-opacity: 0.7; stroke-width: 1.5; stroke-linecap: square"/>
   </g>
   <g id="line2d_26">
    <path d="M 574.66749 276.94164 
L 576.701317 278.224888 
L 578.735143 279.886491 
L 580.768969 279.050389 
L 582.802795 278.140933 
L 584.836622 275.055089 
L 586.870448 269.215136 
L 588.904274 263.634548 
L 590.938101 255.949927 
L 592.971927 256.186289 
L 595.005753 257.914015 
L 597.039579 259.423365 
L 599.073406 261.68892 
L 601.107232 262.613682 
L 603.141058 260.05477 
L 605.174885 257.099545 
L 607.208711 255.839738 
L 609.242537 257.354146 
L 611.276363 258.855994 
L 613.31019 256.535855 
L 615.344016 257.707319 
L 617.377842 267.284237 
L 619.411669 266.983425 
L 621.445495 270.723412 
L 623.479321 276.503815 
L 625.513147 280.469233 
L 627.546974 281.989744 
L 629.5808 283.269997 
L 631.614626 283.523278 
L 633.648453 279.80293 
L 635.682279 269.516939 
L 637.716105 265.761948 
L 639.749931 261.223533 
L 641.783758 260.551622 
L 643.817584 255.421974 
L 645.85141 257.538342 
L 647.885237 262.144437 
L 649.919063 266.805025 
L 651.952889 266.185253 
L 653.986715 261.274914 
L 656.020542 259.178658 
L 658.054368 261.484508 
L 660.088194 259.735971 
L 662.122021 263.502961 
L 664.155847 264.029577 
L 666.189673 265.55456 
L 668.223499 269.407341 
L 670.257326 268.344911 
L 672.291152 274.859771 
L 674.324978 277.291979 
L 676.358805 281.584313 
L 678.392631 282.090713 
L 680.426457 281.796818 
L 682.460283 277.735924 
L 684.49411 271.470173 
L 686.527936 263.820863 
L 688.561762 261.255466 
L 690.595589 259.921598 
L 692.629415 258.644167 
L 694.663241 261.982042 
L 696.697067 267.322775 
L 698.730894 268.248088 
L 700.76472 268.776961 
L 702.798546 266.379721 
L 704.832372 263.23699 
L 706.866199 264.383885 
L 708.900025 265.590271 
L 710.933851 267.59775 
L 712.967678 267.450618 
L 715.001504 268.924563 
L 717.03533 272.198683 
L 719.069156 277.658474 
L 721.102983 282.358054 
L 723.136809 285.749076 
L 725.170635 286.684157 
L 727.204462 286.681271 
L 729.238288 287.659315 
L 731.272114 282.701854 
L 733.30594 274.03925 
L 735.339767 269.689583 
L 737.373593 263.277788 
L 739.407419 261.674376 
L 741.441246 264.6756 
L 743.475072 267.434361 
L 745.508898 266.992203 
L 747.542724 266.829657 
L 749.576551 268.179846 
L 751.610377 267.421415 
L 753.644203 263.091064 
L 755.67803 263.523204 
L 757.711856 263.715675 
L 759.745682 266.901089 
L 761.779508 268.761083 
L 763.813335 274.337346 
L 765.847161 277.322448 
L 767.880987 279.912346 
L 769.914814 283.88628 
L 771.94864 286.341102 
L 773.982466 286.739147 
L 776.016292 286.901012 
L 778.050119 286.260041 
L 780.083945 283.947055 
L 782.117771 282.022108 
L 784.151598 273.918615 
L 786.185424 268.791609 
L 788.21925 265.933295 
L 790.253076 264.054905 
L 792.286903 263.887271 
L 794.320729 269.524156 
L 796.354555 269.55542 
L 798.388382 267.107634 
L 800.422208 267.485815 
L 802.456034 263.522976 
L 804.48986 265.101955 
L 806.523687 268.333258 
L 808.557513 265.711051 
L 810.591339 268.385703 
L 812.625166 268.26909 
L 814.658992 273.307352 
L 816.692818 274.991694 
" clip-path="url(#p772c028380)" style="fill: none; stroke-dasharray: 5.55,2.4; stroke-dashoffset: 0; stroke: #8b0000; stroke-opacity: 0.7; stroke-width: 1.5"/>
   </g>
   <g id="patch_3">
    <path d="M 50.042 308.792 
L 50.042 28.32 
" style="fill: none; stroke: #000000; stroke-width: 0.8; stroke-linejoin: miter; stroke-linecap: square"/>
   </g>
   <g id="patch_4">
    <path d="M 50.042 308.792 
L 853.2 308.792 
" style="fill: none; stroke: #000000; stroke-width: 0.8; stroke-linejoin: miter; stroke-linecap: square"/>
   </g>
   <g id="text_18">
    <!-- BJU 120hrs forecasting. $RMSE:$5.956813 -->
    <g transform="translate(329.221 22.32) scale(0.12 -0.12)">
     <defs>
      <path id="DejaVuSans-42" d="M 1259 2228 
L 1259 519 
L 2272 519 
Q 2781 519 3026 730 
Q 3272 941 3272 1375 
Q 3272 1813 3026 2020 
Q 2781 2228 2272 2228 
L 1259 2228 
z
M 1259 4147 
L 1259 2741 
L 2194 2741 
Q 2656 2741 2882 2914 
Q 3109 3088 3109 3444 
Q 3109 3797 2882 3972 
Q 2656 4147 2194 4147 
L 1259 4147 
z
M 628 4666 
L 2241 4666 
Q 2963 4666 3353 4366 
Q 3744 4066 3744 3513 
Q 3744 3084 3544 2831 
Q 3344 2578 2956 2516 
Q 3422 2416 3680 2098 
Q 3938 1781 3938 1306 
Q 3938 681 3513 340 
Q 3088 0 2303 0 
L 628 0 
L 628 4666 
z
" transform="scale(0.015625)"/>
      <path id="DejaVuSans-4a" d="M 628 4666 
L 1259 4666 
L 1259 325 
Q 1259 -519 939 -900 
Q 619 -1281 -91 -1281 
L -331 -1281 
L -331 -750 
L -134 -750 
Q 284 -750 456 -515 
Q 628 -281 628 325 
L 628 4666 
z
" transform="scale(0.015625)"/>
      <path id="DejaVuSans-55" d="M 556 4666 
L 1191 4666 
L 1191 1831 
Q 1191 1081 1462 751 
Q 1734 422 2344 422 
Q 2950 422 3222 751 
Q 3494 1081 3494 1831 
L 3494 4666 
L 4128 4666 
L 4128 1753 
Q 4128 841 3676 375 
Q 3225 -91 2344 -91 
Q 1459 -91 1007 375 
Q 556 841 556 1753 
L 556 4666 
z
" transform="scale(0.015625)"/>
      <path id="DejaVuSans-66" d="M 2375 4863 
L 2375 4384 
L 1825 4384 
Q 1516 4384 1395 4259 
Q 1275 4134 1275 3809 
L 1275 3500 
L 2222 3500 
L 2222 3053 
L 1275 3053 
L 1275 0 
L 697 0 
L 697 3053 
L 147 3053 
L 147 3500 
L 697 3500 
L 697 3744 
Q 697 4328 969 4595 
Q 1241 4863 1831 4863 
L 2375 4863 
z
" transform="scale(0.015625)"/>
      <path id="DejaVuSans-67" d="M 2906 1791 
Q 2906 2416 2648 2759 
Q 2391 3103 1925 3103 
Q 1463 3103 1205 2759 
Q 947 2416 947 1791 
Q 947 1169 1205 825 
Q 1463 481 1925 481 
Q 2391 481 2648 825 
Q 2906 1169 2906 1791 
z
M 3481 434 
Q 3481 -459 3084 -895 
Q 2688 -1331 1869 -1331 
Q 1566 -1331 1297 -1286 
Q 1028 -1241 775 -1147 
L 775 -588 
Q 1028 -725 1275 -790 
Q 1522 -856 1778 -856 
Q 2344 -856 2625 -561 
Q 2906 -266 2906 331 
L 2906 616 
Q 2728 306 2450 153 
Q 2172 0 1784 0 
Q 1141 0 747 490 
Q 353 981 353 1791 
Q 353 2603 747 3093 
Q 1141 3584 1784 3584 
Q 2172 3584 2450 3431 
Q 2728 3278 2906 2969 
L 2906 3500 
L 3481 3500 
L 3481 434 
z
" transform="scale(0.015625)"/>
      <path id="DejaVuSans-2e" d="M 684 794 
L 1344 794 
L 1344 0 
L 684 0 
L 684 794 
z
" transform="scale(0.015625)"/>
      <path id="DejaVuSans-Oblique-52" d="M 1613 4147 
L 1294 2491 
L 2106 2491 
Q 2584 2491 2879 2755 
Q 3175 3019 3175 3444 
Q 3175 3784 2976 3965 
Q 2778 4147 2406 4147 
L 1613 4147 
z
M 2772 2241 
Q 2972 2194 3105 2009 
Q 3238 1825 3413 1275 
L 3809 0 
L 3144 0 
L 2778 1197 
Q 2638 1659 2453 1815 
Q 2269 1972 1888 1972 
L 1191 1972 
L 806 0 
L 172 0 
L 1081 4666 
L 2503 4666 
Q 3150 4666 3495 4373 
Q 3841 4081 3841 3531 
Q 3841 3044 3547 2687 
Q 3253 2331 2772 2241 
z
" transform="scale(0.015625)"/>
      <path id="DejaVuSans-Oblique-4d" d="M 1081 4666 
L 2028 4666 
L 2572 1522 
L 4378 4666 
L 5350 4666 
L 4441 0 
L 3828 0 
L 4622 4091 
L 2791 897 
L 2175 897 
L 1581 4103 
L 788 0 
L 172 0 
L 1081 4666 
z
" transform="scale(0.015625)"/>
      <path id="DejaVuSans-Oblique-53" d="M 3859 4513 
L 3738 3897 
Q 3422 4066 3111 4152 
Q 2800 4238 2509 4238 
Q 1944 4238 1609 3991 
Q 1275 3744 1275 3334 
Q 1275 3109 1398 2989 
Q 1522 2869 2034 2731 
L 2413 2638 
Q 3053 2472 3303 2217 
Q 3553 1963 3553 1503 
Q 3553 797 2998 353 
Q 2444 -91 1538 -91 
Q 1166 -91 791 -17 
Q 416 56 38 206 
L 166 856 
Q 513 641 861 531 
Q 1209 422 1556 422 
Q 2147 422 2503 684 
Q 2859 947 2859 1369 
Q 2859 1650 2717 1795 
Q 2575 1941 2106 2059 
L 1728 2156 
Q 1081 2325 845 2545 
Q 609 2766 609 3163 
Q 609 3859 1145 4304 
Q 1681 4750 2541 4750 
Q 2875 4750 3203 4690 
Q 3531 4631 3859 4513 
z
" transform="scale(0.015625)"/>
      <path id="DejaVuSans-Oblique-45" d="M 1081 4666 
L 4031 4666 
L 3928 4134 
L 1606 4134 
L 1338 2753 
L 3566 2753 
L 3463 2222 
L 1234 2222 
L 909 531 
L 3284 531 
L 3181 0 
L 172 0 
L 1081 4666 
z
" transform="scale(0.015625)"/>
     </defs>
     <use xlink:href="#DejaVuSans-42" transform="translate(0 0.015625)"/>
     <use xlink:href="#DejaVuSans-4a" transform="translate(68.603516 0.015625)"/>
     <use xlink:href="#DejaVuSans-55" transform="translate(98.095703 0.015625)"/>
     <use xlink:href="#DejaVuSans-20" transform="translate(171.289062 0.015625)"/>
     <use xlink:href="#DejaVuSans-31" transform="translate(203.076172 0.015625)"/>
     <use xlink:href="#DejaVuSans-32" transform="translate(266.699219 0.015625)"/>
     <use xlink:href="#DejaVuSans-30" transform="translate(330.322266 0.015625)"/>
     <use xlink:href="#DejaVuSans-68" transform="translate(393.945312 0.015625)"/>
     <use xlink:href="#DejaVuSans-72" transform="translate(457.324219 0.015625)"/>
     <use xlink:href="#DejaVuSans-73" transform="translate(498.4375 0.015625)"/>
     <use xlink:href="#DejaVuSans-20" transform="translate(550.537109 0.015625)"/>
     <use xlink:href="#DejaVuSans-66" transform="translate(582.324219 0.015625)"/>
     <use xlink:href="#DejaVuSans-6f" transform="translate(617.529297 0.015625)"/>
     <use xlink:href="#DejaVuSans-72" transform="translate(678.710938 0.015625)"/>
     <use xlink:href="#DejaVuSans-65" transform="translate(719.824219 0.015625)"/>
     <use xlink:href="#DejaVuSans-63" transform="translate(781.347656 0.015625)"/>
     <use xlink:href="#DejaVuSans-61" transform="translate(836.328125 0.015625)"/>
     <use xlink:href="#DejaVuSans-73" transform="translate(897.607422 0.015625)"/>
     <use xlink:href="#DejaVuSans-74" transform="translate(949.707031 0.015625)"/>
     <use xlink:href="#DejaVuSans-69" transform="translate(988.916016 0.015625)"/>
     <use xlink:href="#DejaVuSans-6e" transform="translate(1016.699219 0.015625)"/>
     <use xlink:href="#DejaVuSans-67" transform="translate(1080.078125 0.015625)"/>
     <use xlink:href="#DejaVuSans-2e" transform="translate(1143.554688 0.015625)"/>
     <use xlink:href="#DejaVuSans-20" transform="translate(1175.341797 0.015625)"/>
     <use xlink:href="#DejaVuSans-Oblique-52" transform="translate(1207.128906 0.015625)"/>
     <use xlink:href="#DejaVuSans-Oblique-4d" transform="translate(1276.611328 0.015625)"/>
     <use xlink:href="#DejaVuSans-Oblique-53" transform="translate(1362.890625 0.015625)"/>
     <use xlink:href="#DejaVuSans-Oblique-45" transform="translate(1426.367188 0.015625)"/>
     <use xlink:href="#DejaVuSans-3a" transform="translate(1509.033203 0.015625)"/>
     <use xlink:href="#DejaVuSans-35" transform="translate(1562.207031 0.015625)"/>
     <use xlink:href="#DejaVuSans-2e" transform="translate(1625.830078 0.015625)"/>
     <use xlink:href="#DejaVuSans-39" transform="translate(1657.617188 0.015625)"/>
     <use xlink:href="#DejaVuSans-35" transform="translate(1721.240234 0.015625)"/>
     <use xlink:href="#DejaVuSans-36" transform="translate(1784.863281 0.015625)"/>
     <use xlink:href="#DejaVuSans-38" transform="translate(1848.486328 0.015625)"/>
     <use xlink:href="#DejaVuSans-31" transform="translate(1912.109375 0.015625)"/>
     <use xlink:href="#DejaVuSans-33" transform="translate(1975.732422 0.015625)"/>
    </g>
   </g>
   <g id="legend_1">
    <g id="patch_5">
     <path d="M 766.765625 80.354375 
L 846.2 80.354375 
Q 848.2 80.354375 848.2 78.354375 
L 848.2 35.32 
Q 848.2 33.32 846.2 33.32 
L 766.765625 33.32 
Q 764.765625 33.32 764.765625 35.32 
L 764.765625 78.354375 
Q 764.765625 80.354375 766.765625 80.354375 
z
" style="fill: #ffffff; opacity: 0.8; stroke: #cccccc; stroke-linejoin: miter"/>
    </g>
    <g id="line2d_27">
     <path d="M 768.765625 41.418437 
L 778.765625 41.418437 
L 788.765625 41.418437 
" style="fill: none; stroke: #000000; stroke-opacity: 0.7; stroke-width: 1.5; stroke-linecap: square"/>
    </g>
    <g id="text_19">
     <!-- actual -->
     <g transform="translate(796.765625 44.918437) scale(0.1 -0.1)">
      <use xlink:href="#DejaVuSans-61"/>
      <use xlink:href="#DejaVuSans-63" x="61.279297"/>
      <use xlink:href="#DejaVuSans-74" x="116.259766"/>
      <use xlink:href="#DejaVuSans-75" x="155.46875"/>
      <use xlink:href="#DejaVuSans-61" x="218.847656"/>
      <use xlink:href="#DejaVuSans-6c" x="280.126953"/>
     </g>
    </g>
    <g id="line2d_28">
     <path d="M 768.765625 56.096563 
L 778.765625 56.096563 
L 788.765625 56.096563 
" style="fill: none; stroke-dasharray: 5.55,2.4; stroke-dashoffset: 0; stroke: #8b0000; stroke-opacity: 0.7; stroke-width: 1.5"/>
    </g>
    <g id="text_20">
     <!-- predicted -->
     <g transform="translate(796.765625 59.596563) scale(0.1 -0.1)">
      <defs>
       <path id="DejaVuSans-70" d="M 1159 525 
L 1159 -1331 
L 581 -1331 
L 581 3500 
L 1159 3500 
L 1159 2969 
Q 1341 3281 1617 3432 
Q 1894 3584 2278 3584 
Q 2916 3584 3314 3078 
Q 3713 2572 3713 1747 
Q 3713 922 3314 415 
Q 2916 -91 2278 -91 
Q 1894 -91 1617 61 
Q 1341 213 1159 525 
z
M 3116 1747 
Q 3116 2381 2855 2742 
Q 2594 3103 2138 3103 
Q 1681 3103 1420 2742 
Q 1159 2381 1159 1747 
Q 1159 1113 1420 752 
Q 1681 391 2138 391 
Q 2594 391 2855 752 
Q 3116 1113 3116 1747 
z
" transform="scale(0.015625)"/>
      </defs>
      <use xlink:href="#DejaVuSans-70"/>
      <use xlink:href="#DejaVuSans-72" x="63.476562"/>
      <use xlink:href="#DejaVuSans-65" x="102.339844"/>
      <use xlink:href="#DejaVuSans-64" x="163.863281"/>
      <use xlink:href="#DejaVuSans-69" x="227.339844"/>
      <use xlink:href="#DejaVuSans-63" x="255.123047"/>
      <use xlink:href="#DejaVuSans-74" x="310.103516"/>
      <use xlink:href="#DejaVuSans-65" x="349.3125"/>
      <use xlink:href="#DejaVuSans-64" x="410.835938"/>
     </g>
    </g>
    <g id="patch_6">
     <path d="M 768.765625 74.274687 
L 788.765625 74.274687 
L 788.765625 67.274687 
L 768.765625 67.274687 
z
" style="fill: #8b0000; fill-opacity: 0.3; stroke: #8b0000; stroke-opacity: 0.3; stroke-linejoin: miter"/>
    </g>
    <g id="text_21">
     <!-- +/- 1-std -->
     <g transform="translate(796.765625 74.274687) scale(0.1 -0.1)">
      <defs>
       <path id="DejaVuSans-2b" d="M 2944 4013 
L 2944 2272 
L 4684 2272 
L 4684 1741 
L 2944 1741 
L 2944 0 
L 2419 0 
L 2419 1741 
L 678 1741 
L 678 2272 
L 2419 2272 
L 2419 4013 
L 2944 4013 
z
" transform="scale(0.015625)"/>
      </defs>
      <use xlink:href="#DejaVuSans-2b"/>
      <use xlink:href="#DejaVuSans-2f" x="83.789062"/>
      <use xlink:href="#DejaVuSans-2d" x="117.480469"/>
      <use xlink:href="#DejaVuSans-20" x="153.564453"/>
      <use xlink:href="#DejaVuSans-31" x="185.351562"/>
      <use xlink:href="#DejaVuSans-2d" x="248.974609"/>
      <use xlink:href="#DejaVuSans-73" x="285.058594"/>
      <use xlink:href="#DejaVuSans-74" x="337.158203"/>
      <use xlink:href="#DejaVuSans-64" x="376.367188"/>
     </g>
    </g>
   </g>
  </g>
 </g>
 <defs>
  <clipPath id="p772c028380">
   <rect x="50.042" y="28.32" width="803.158" height="280.472"/>
  </clipPath>
 </defs>
</svg>
