<?xml version="1.0" encoding="utf-8" standalone="no"?>
<!DOCTYPE svg PUBLIC "-//W3C//DTD SVG 1.1//EN"
  "http://www.w3.org/Graphics/SVG/1.1/DTD/svg11.dtd">
<svg xmlns:xlink="http://www.w3.org/1999/xlink" width="864pt" height="360pt" viewBox="0 0 864 360" xmlns="http://www.w3.org/2000/svg" version="1.1">
 <metadata>
  <rdf:RDF xmlns:dc="http://purl.org/dc/elements/1.1/" xmlns:cc="http://creativecommons.org/ns#" xmlns:rdf="http://www.w3.org/1999/02/22-rdf-syntax-ns#">
   <cc:Work>
    <dc:type rdf:resource="http://purl.org/dc/dcmitype/StillImage"/>
    <dc:date>2023-12-04T18:37:00.914958</dc:date>
    <dc:format>image/svg+xml</dc:format>
    <dc:creator>
     <cc:Agent>
      <dc:title>Matplotlib v3.7.1, https://matplotlib.org/</dc:title>
     </cc:Agent>
    </dc:creator>
   </cc:Work>
  </rdf:RDF>
 </metadata>
 <defs>
  <style type="text/css">*{stroke-linejoin: round; stroke-linecap: butt}</style>
 </defs>
 <g id="figure_1">
  <g id="patch_1">
   <path d="M 0 360 
L 864 360 
L 864 0 
L 0 0 
z
" style="fill: #ffffff"/>
  </g>
  <g id="axes_1">
   <g id="patch_2">
    <path d="M 50.042 308.792 
L 853.2 308.792 
L 853.2 28.32 
L 50.042 28.32 
z
" style="fill: #ffffff"/>
   </g>
   <g id="PolyCollection_1">
    <defs>
     <path id="m58306a03b9" d="M 574.66749 -73.517342 
L 574.66749 -73.517342 
L 576.701317 -73.80012 
L 578.735143 -71.924247 
L 580.768969 -71.977557 
L 582.802795 -74.06215 
L 584.836622 -75.451786 
L 586.870448 -82.482758 
L 588.904274 -86.750911 
L 590.938101 -88.026593 
L 592.971927 -82.896639 
L 595.005753 -79.226105 
L 597.039579 -75.488257 
L 599.073406 -74.8088 
L 601.107232 -75.62189 
L 603.141058 -77.934915 
L 605.174885 -78.525548 
L 607.208711 -75.924156 
L 609.242537 -77.306191 
L 611.276363 -78.799113 
L 613.31019 -72.518763 
L 615.344016 -75.632687 
L 617.377842 -75.436917 
L 619.411669 -76.197767 
L 621.445495 -74.756391 
L 623.479321 -72.921798 
L 625.513147 -73.709224 
L 627.546974 -74.185063 
L 629.5808 -71.046023 
L 631.614626 -71.619182 
L 633.648453 -76.10953 
L 635.682279 -83.957125 
L 637.716105 -88.038189 
L 639.749931 -79.573806 
L 641.783758 -82.190458 
L 643.817584 -78.605752 
L 645.85141 -73.890033 
L 647.885237 -71.538769 
L 649.919063 -70.928814 
L 651.952889 -71.492624 
L 653.986715 -75.374631 
L 656.020542 -76.758129 
L 658.054368 -76.285872 
L 660.088194 -73.863171 
L 662.122021 -74.310829 
L 664.155847 -73.901741 
L 666.189673 -68.859146 
L 668.223499 -73.384839 
L 670.257326 -69.502666 
L 672.291152 -69.858739 
L 674.324978 -67.799696 
L 676.358805 -67.26029 
L 678.392631 -65.240623 
L 680.426457 -66.958695 
L 682.460283 -70.001695 
L 684.49411 -76.013462 
L 686.527936 -81.815619 
L 688.561762 -81.534969 
L 690.595589 -78.590625 
L 692.629415 -74.914351 
L 694.663241 -69.912425 
L 696.697067 -70.255475 
L 698.730894 -70.892163 
L 700.76472 -71.249375 
L 702.798546 -72.210149 
L 704.832372 -72.770298 
L 706.866199 -76.507841 
L 708.900025 -74.604782 
L 710.933851 -74.750349 
L 712.967678 -70.324233 
L 715.001504 -66.571505 
L 717.03533 -69.350788 
L 719.069156 -58.879127 
L 721.102983 -65.773795 
L 723.136809 -68.884474 
L 725.170635 -69.177667 
L 727.204462 -69.016645 
L 729.238288 -68.658031 
L 731.272114 -72.712441 
L 733.30594 -76.311779 
L 735.339767 -82.417795 
L 737.373593 -81.786359 
L 739.407419 -76.536561 
L 741.441246 -73.223655 
L 743.475072 -72.396396 
L 745.508898 -72.015873 
L 747.542724 -71.102419 
L 749.576551 -68.666143 
L 751.610377 -69.996756 
L 753.644203 -71.012269 
L 755.67803 -73.204403 
L 757.711856 -74.494949 
L 759.745682 -70.637724 
L 761.779508 -70.563527 
L 763.813335 -70.902431 
L 765.847161 -68.848203 
L 767.880987 -66.31534 
L 769.914814 -64.805219 
L 771.94864 -65.095478 
L 773.982466 -65.587269 
L 776.016292 -66.598038 
L 778.050119 -69.3835 
L 780.083945 -73.890902 
L 782.117771 -73.932003 
L 784.151598 -75.624961 
L 786.185424 -79.469323 
L 788.21925 -77.052153 
L 790.253076 -75.287656 
L 792.286903 -74.415643 
L 794.320729 -74.627503 
L 796.354555 -74.555619 
L 798.388382 -73.23312 
L 800.422208 -73.544605 
L 802.456034 -75.30669 
L 804.48986 -76.980211 
L 806.523687 -73.109121 
L 808.557513 -74.347572 
L 810.591339 -73.645106 
L 812.625166 -73.339246 
L 814.658992 -71.186755 
L 816.692818 -70.672119 
L 816.692818 -70.672119 
L 816.692818 -99.93536 
L 814.658992 -103.983768 
L 812.625166 -102.909201 
L 810.591339 -104.65012 
L 808.557513 -105.498058 
L 806.523687 -104.939635 
L 804.48986 -104.845516 
L 802.456034 -104.602233 
L 800.422208 -102.163828 
L 798.388382 -98.494184 
L 796.354555 -96.326225 
L 794.320729 -98.404068 
L 792.286903 -100.877982 
L 790.253076 -101.524132 
L 788.21925 -106.736376 
L 786.185424 -104.121738 
L 784.151598 -104.155799 
L 782.117771 -101.480179 
L 780.083945 -95.341331 
L 778.050119 -92.697476 
L 776.016292 -89.69519 
L 773.982466 -90.535688 
L 771.94864 -90.541397 
L 769.914814 -95.573048 
L 767.880987 -98.91491 
L 765.847161 -103.379814 
L 763.813335 -99.434826 
L 761.779508 -100.400222 
L 759.745682 -106.60766 
L 757.711856 -106.434939 
L 755.67803 -105.655243 
L 753.644203 -103.589242 
L 751.610377 -97.562606 
L 749.576551 -96.771612 
L 747.542724 -97.57597 
L 745.508898 -98.662233 
L 743.475072 -98.367325 
L 741.441246 -102.497775 
L 739.407419 -103.178733 
L 737.373593 -107.794941 
L 735.339767 -111.071442 
L 733.30594 -106.465435 
L 731.272114 -98.404729 
L 729.238288 -96.4386 
L 727.204462 -93.434961 
L 725.170635 -96.769665 
L 723.136809 -98.319518 
L 721.102983 -102.652674 
L 719.069156 -115.390067 
L 717.03533 -106.67759 
L 715.001504 -106.499805 
L 712.967678 -104.052974 
L 710.933851 -107.677377 
L 708.900025 -110.766529 
L 706.866199 -107.801514 
L 704.832372 -104.338183 
L 702.798546 -102.503131 
L 700.76472 -100.979226 
L 698.730894 -98.808958 
L 696.697067 -100.340562 
L 694.663241 -105.392323 
L 692.629415 -107.446202 
L 690.595589 -111.866077 
L 688.561762 -117.119869 
L 686.527936 -113.631412 
L 684.49411 -108.248802 
L 682.460283 -100.563534 
L 680.426457 -96.200231 
L 678.392631 -91.367488 
L 676.358805 -91.970209 
L 674.324978 -94.763414 
L 672.291152 -96.934193 
L 670.257326 -102.17283 
L 668.223499 -105.80954 
L 666.189673 -109.690593 
L 664.155847 -107.395301 
L 662.122021 -114.84986 
L 660.088194 -113.320452 
L 658.054368 -109.129917 
L 656.020542 -110.972412 
L 653.986715 -108.124701 
L 651.952889 -102.754468 
L 649.919063 -101.52247 
L 647.885237 -102.961032 
L 645.85141 -108.746429 
L 643.817584 -112.250336 
L 641.783758 -121.064954 
L 639.749931 -126.375105 
L 637.716105 -120.85743 
L 635.682279 -111.362147 
L 633.648453 -101.755513 
L 631.614626 -94.596633 
L 629.5808 -93.803357 
L 627.546974 -96.493571 
L 625.513147 -95.726139 
L 623.479321 -98.206067 
L 621.445495 -104.41221 
L 619.411669 -107.716163 
L 617.377842 -113.010269 
L 615.344016 -106.21235 
L 613.31019 -112.320532 
L 611.276363 -109.930772 
L 609.242537 -108.987738 
L 607.208711 -107.912094 
L 605.174885 -104.889648 
L 603.141058 -103.88101 
L 601.107232 -101.030575 
L 599.073406 -101.980574 
L 597.039579 -102.395927 
L 595.005753 -109.684153 
L 592.971927 -114.972847 
L 590.938101 -121.995468 
L 588.904274 -118.36349 
L 586.870448 -107.764509 
L 584.836622 -96.980758 
L 582.802795 -89.240628 
L 580.768969 -89.266698 
L 578.735143 -92.173666 
L 576.701317 -91.65279 
L 574.66749 -88.677085 
z
" style="stroke: #8b0000; stroke-opacity: 0.3"/>
    </defs>
    <g clip-path="url(#p3cb13db6a4)">
     <use xlink:href="#m58306a03b9" x="0" y="360" style="fill: #8b0000; fill-opacity: 0.3; stroke: #8b0000; stroke-opacity: 0.3"/>
    </g>
   </g>
   <g id="matplotlib.axis_1">
    <g id="xtick_1">
     <g id="line2d_1">
      <defs>
       <path id="me0eb81b1bd" d="M 0 0 
L 0 3.5 
" style="stroke: #000000; stroke-width: 0.8"/>
      </defs>
      <g>
       <use xlink:href="#me0eb81b1bd" x="125.191881" y="308.792" style="stroke: #000000; stroke-width: 0.8"/>
      </g>
     </g>
     <g id="text_1">
      <!-- Mon -->
      <g transform="translate(114.649694 323.390438) scale(0.1 -0.1)">
       <defs>
        <path id="DejaVuSans-4d" d="M 628 4666 
L 1569 4666 
L 2759 1491 
L 3956 4666 
L 4897 4666 
L 4897 0 
L 4281 0 
L 4281 4097 
L 3078 897 
L 2444 897 
L 1241 4097 
L 1241 0 
L 628 0 
L 628 4666 
z
" transform="scale(0.015625)"/>
        <path id="DejaVuSans-6f" d="M 1959 3097 
Q 1497 3097 1228 2736 
Q 959 2375 959 1747 
Q 959 1119 1226 758 
Q 1494 397 1959 397 
Q 2419 397 2687 759 
Q 2956 1122 2956 1747 
Q 2956 2369 2687 2733 
Q 2419 3097 1959 3097 
z
M 1959 3584 
Q 2709 3584 3137 3096 
Q 3566 2609 3566 1747 
Q 3566 888 3137 398 
Q 2709 -91 1959 -91 
Q 1206 -91 779 398 
Q 353 888 353 1747 
Q 353 2609 779 3096 
Q 1206 3584 1959 3584 
z
" transform="scale(0.015625)"/>
        <path id="DejaVuSans-6e" d="M 3513 2113 
L 3513 0 
L 2938 0 
L 2938 2094 
Q 2938 2591 2744 2837 
Q 2550 3084 2163 3084 
Q 1697 3084 1428 2787 
Q 1159 2491 1159 1978 
L 1159 0 
L 581 0 
L 581 3500 
L 1159 3500 
L 1159 2956 
Q 1366 3272 1645 3428 
Q 1925 3584 2291 3584 
Q 2894 3584 3203 3211 
Q 3513 2838 3513 2113 
z
" transform="scale(0.015625)"/>
       </defs>
       <use xlink:href="#DejaVuSans-4d"/>
       <use xlink:href="#DejaVuSans-6f" x="86.279297"/>
       <use xlink:href="#DejaVuSans-6e" x="147.460938"/>
      </g>
      <!-- 2022-01-17 -->
      <g transform="translate(96.134069 334.58825) scale(0.1 -0.1)">
       <defs>
        <path id="DejaVuSans-32" d="M 1228 531 
L 3431 531 
L 3431 0 
L 469 0 
L 469 531 
Q 828 903 1448 1529 
Q 2069 2156 2228 2338 
Q 2531 2678 2651 2914 
Q 2772 3150 2772 3378 
Q 2772 3750 2511 3984 
Q 2250 4219 1831 4219 
Q 1534 4219 1204 4116 
Q 875 4013 500 3803 
L 500 4441 
Q 881 4594 1212 4672 
Q 1544 4750 1819 4750 
Q 2544 4750 2975 4387 
Q 3406 4025 3406 3419 
Q 3406 3131 3298 2873 
Q 3191 2616 2906 2266 
Q 2828 2175 2409 1742 
Q 1991 1309 1228 531 
z
" transform="scale(0.015625)"/>
        <path id="DejaVuSans-30" d="M 2034 4250 
Q 1547 4250 1301 3770 
Q 1056 3291 1056 2328 
Q 1056 1369 1301 889 
Q 1547 409 2034 409 
Q 2525 409 2770 889 
Q 3016 1369 3016 2328 
Q 3016 3291 2770 3770 
Q 2525 4250 2034 4250 
z
M 2034 4750 
Q 2819 4750 3233 4129 
Q 3647 3509 3647 2328 
Q 3647 1150 3233 529 
Q 2819 -91 2034 -91 
Q 1250 -91 836 529 
Q 422 1150 422 2328 
Q 422 3509 836 4129 
Q 1250 4750 2034 4750 
z
" transform="scale(0.015625)"/>
        <path id="DejaVuSans-2d" d="M 313 2009 
L 1997 2009 
L 1997 1497 
L 313 1497 
L 313 2009 
z
" transform="scale(0.015625)"/>
        <path id="DejaVuSans-31" d="M 794 531 
L 1825 531 
L 1825 4091 
L 703 3866 
L 703 4441 
L 1819 4666 
L 2450 4666 
L 2450 531 
L 3481 531 
L 3481 0 
L 794 0 
L 794 531 
z
" transform="scale(0.015625)"/>
        <path id="DejaVuSans-37" d="M 525 4666 
L 3525 4666 
L 3525 4397 
L 1831 0 
L 1172 0 
L 2766 4134 
L 525 4134 
L 525 4666 
z
" transform="scale(0.015625)"/>
       </defs>
       <use xlink:href="#DejaVuSans-32"/>
       <use xlink:href="#DejaVuSans-30" x="63.623047"/>
       <use xlink:href="#DejaVuSans-32" x="127.246094"/>
       <use xlink:href="#DejaVuSans-32" x="190.869141"/>
       <use xlink:href="#DejaVuSans-2d" x="254.492188"/>
       <use xlink:href="#DejaVuSans-30" x="290.576172"/>
       <use xlink:href="#DejaVuSans-31" x="354.199219"/>
       <use xlink:href="#DejaVuSans-2d" x="417.822266"/>
       <use xlink:href="#DejaVuSans-31" x="453.90625"/>
       <use xlink:href="#DejaVuSans-37" x="517.529297"/>
      </g>
      <!-- 19:00 -->
      <g transform="translate(110.782506 345.786063) scale(0.1 -0.1)">
       <defs>
        <path id="DejaVuSans-39" d="M 703 97 
L 703 672 
Q 941 559 1184 500 
Q 1428 441 1663 441 
Q 2288 441 2617 861 
Q 2947 1281 2994 2138 
Q 2813 1869 2534 1725 
Q 2256 1581 1919 1581 
Q 1219 1581 811 2004 
Q 403 2428 403 3163 
Q 403 3881 828 4315 
Q 1253 4750 1959 4750 
Q 2769 4750 3195 4129 
Q 3622 3509 3622 2328 
Q 3622 1225 3098 567 
Q 2575 -91 1691 -91 
Q 1453 -91 1209 -44 
Q 966 3 703 97 
z
M 1959 2075 
Q 2384 2075 2632 2365 
Q 2881 2656 2881 3163 
Q 2881 3666 2632 3958 
Q 2384 4250 1959 4250 
Q 1534 4250 1286 3958 
Q 1038 3666 1038 3163 
Q 1038 2656 1286 2365 
Q 1534 2075 1959 2075 
z
" transform="scale(0.015625)"/>
        <path id="DejaVuSans-3a" d="M 750 794 
L 1409 794 
L 1409 0 
L 750 0 
L 750 794 
z
M 750 3309 
L 1409 3309 
L 1409 2516 
L 750 2516 
L 750 3309 
z
" transform="scale(0.015625)"/>
       </defs>
       <use xlink:href="#DejaVuSans-31"/>
       <use xlink:href="#DejaVuSans-39" x="63.623047"/>
       <use xlink:href="#DejaVuSans-3a" x="127.246094"/>
       <use xlink:href="#DejaVuSans-30" x="160.9375"/>
       <use xlink:href="#DejaVuSans-30" x="224.560547"/>
      </g>
     </g>
    </g>
    <g id="xtick_2">
     <g id="line2d_2">
      <g>
       <use xlink:href="#me0eb81b1bd" x="222.815543" y="308.792" style="stroke: #000000; stroke-width: 0.8"/>
      </g>
     </g>
     <g id="text_2">
      <!-- Wed -->
      <g transform="translate(211.914762 323.390438) scale(0.1 -0.1)">
       <defs>
        <path id="DejaVuSans-57" d="M 213 4666 
L 850 4666 
L 1831 722 
L 2809 4666 
L 3519 4666 
L 4500 722 
L 5478 4666 
L 6119 4666 
L 4947 0 
L 4153 0 
L 3169 4050 
L 2175 0 
L 1381 0 
L 213 4666 
z
" transform="scale(0.015625)"/>
        <path id="DejaVuSans-65" d="M 3597 1894 
L 3597 1613 
L 953 1613 
Q 991 1019 1311 708 
Q 1631 397 2203 397 
Q 2534 397 2845 478 
Q 3156 559 3463 722 
L 3463 178 
Q 3153 47 2828 -22 
Q 2503 -91 2169 -91 
Q 1331 -91 842 396 
Q 353 884 353 1716 
Q 353 2575 817 3079 
Q 1281 3584 2069 3584 
Q 2775 3584 3186 3129 
Q 3597 2675 3597 1894 
z
M 3022 2063 
Q 3016 2534 2758 2815 
Q 2500 3097 2075 3097 
Q 1594 3097 1305 2825 
Q 1016 2553 972 2059 
L 3022 2063 
z
" transform="scale(0.015625)"/>
        <path id="DejaVuSans-64" d="M 2906 2969 
L 2906 4863 
L 3481 4863 
L 3481 0 
L 2906 0 
L 2906 525 
Q 2725 213 2448 61 
Q 2172 -91 1784 -91 
Q 1150 -91 751 415 
Q 353 922 353 1747 
Q 353 2572 751 3078 
Q 1150 3584 1784 3584 
Q 2172 3584 2448 3432 
Q 2725 3281 2906 2969 
z
M 947 1747 
Q 947 1113 1208 752 
Q 1469 391 1925 391 
Q 2381 391 2643 752 
Q 2906 1113 2906 1747 
Q 2906 2381 2643 2742 
Q 2381 3103 1925 3103 
Q 1469 3103 1208 2742 
Q 947 2381 947 1747 
z
" transform="scale(0.015625)"/>
       </defs>
       <use xlink:href="#DejaVuSans-57"/>
       <use xlink:href="#DejaVuSans-65" x="93.001953"/>
       <use xlink:href="#DejaVuSans-64" x="154.525391"/>
      </g>
      <!-- 2022-01-19 -->
      <g transform="translate(193.75773 334.58825) scale(0.1 -0.1)">
       <use xlink:href="#DejaVuSans-32"/>
       <use xlink:href="#DejaVuSans-30" x="63.623047"/>
       <use xlink:href="#DejaVuSans-32" x="127.246094"/>
       <use xlink:href="#DejaVuSans-32" x="190.869141"/>
       <use xlink:href="#DejaVuSans-2d" x="254.492188"/>
       <use xlink:href="#DejaVuSans-30" x="290.576172"/>
       <use xlink:href="#DejaVuSans-31" x="354.199219"/>
       <use xlink:href="#DejaVuSans-2d" x="417.822266"/>
       <use xlink:href="#DejaVuSans-31" x="453.90625"/>
       <use xlink:href="#DejaVuSans-39" x="517.529297"/>
      </g>
      <!-- 19:00 -->
      <g transform="translate(208.406168 345.786063) scale(0.1 -0.1)">
       <use xlink:href="#DejaVuSans-31"/>
       <use xlink:href="#DejaVuSans-39" x="63.623047"/>
       <use xlink:href="#DejaVuSans-3a" x="127.246094"/>
       <use xlink:href="#DejaVuSans-30" x="160.9375"/>
       <use xlink:href="#DejaVuSans-30" x="224.560547"/>
      </g>
     </g>
    </g>
    <g id="xtick_3">
     <g id="line2d_3">
      <g>
       <use xlink:href="#me0eb81b1bd" x="320.439205" y="308.792" style="stroke: #000000; stroke-width: 0.8"/>
      </g>
     </g>
     <g id="text_3">
      <!-- Fri -->
      <g transform="translate(314.481392 323.390438) scale(0.1 -0.1)">
       <defs>
        <path id="DejaVuSans-46" d="M 628 4666 
L 3309 4666 
L 3309 4134 
L 1259 4134 
L 1259 2759 
L 3109 2759 
L 3109 2228 
L 1259 2228 
L 1259 0 
L 628 0 
L 628 4666 
z
" transform="scale(0.015625)"/>
        <path id="DejaVuSans-72" d="M 2631 2963 
Q 2534 3019 2420 3045 
Q 2306 3072 2169 3072 
Q 1681 3072 1420 2755 
Q 1159 2438 1159 1844 
L 1159 0 
L 581 0 
L 581 3500 
L 1159 3500 
L 1159 2956 
Q 1341 3275 1631 3429 
Q 1922 3584 2338 3584 
Q 2397 3584 2469 3576 
Q 2541 3569 2628 3553 
L 2631 2963 
z
" transform="scale(0.015625)"/>
        <path id="DejaVuSans-69" d="M 603 3500 
L 1178 3500 
L 1178 0 
L 603 0 
L 603 3500 
z
M 603 4863 
L 1178 4863 
L 1178 4134 
L 603 4134 
L 603 4863 
z
" transform="scale(0.015625)"/>
       </defs>
       <use xlink:href="#DejaVuSans-46"/>
       <use xlink:href="#DejaVuSans-72" x="50.269531"/>
       <use xlink:href="#DejaVuSans-69" x="91.382812"/>
      </g>
      <!-- 2022-01-21 -->
      <g transform="translate(291.381392 334.58825) scale(0.1 -0.1)">
       <use xlink:href="#DejaVuSans-32"/>
       <use xlink:href="#DejaVuSans-30" x="63.623047"/>
       <use xlink:href="#DejaVuSans-32" x="127.246094"/>
       <use xlink:href="#DejaVuSans-32" x="190.869141"/>
       <use xlink:href="#DejaVuSans-2d" x="254.492188"/>
       <use xlink:href="#DejaVuSans-30" x="290.576172"/>
       <use xlink:href="#DejaVuSans-31" x="354.199219"/>
       <use xlink:href="#DejaVuSans-2d" x="417.822266"/>
       <use xlink:href="#DejaVuSans-32" x="453.90625"/>
       <use xlink:href="#DejaVuSans-31" x="517.529297"/>
      </g>
      <!-- 19:00 -->
      <g transform="translate(306.02983 345.786063) scale(0.1 -0.1)">
       <use xlink:href="#DejaVuSans-31"/>
       <use xlink:href="#DejaVuSans-39" x="63.623047"/>
       <use xlink:href="#DejaVuSans-3a" x="127.246094"/>
       <use xlink:href="#DejaVuSans-30" x="160.9375"/>
       <use xlink:href="#DejaVuSans-30" x="224.560547"/>
      </g>
     </g>
    </g>
    <g id="xtick_4">
     <g id="line2d_4">
      <g>
       <use xlink:href="#me0eb81b1bd" x="418.062866" y="308.792" style="stroke: #000000; stroke-width: 0.8"/>
      </g>
     </g>
     <g id="text_4">
      <!-- Sun -->
      <g transform="translate(408.551148 323.390438) scale(0.1 -0.1)">
       <defs>
        <path id="DejaVuSans-53" d="M 3425 4513 
L 3425 3897 
Q 3066 4069 2747 4153 
Q 2428 4238 2131 4238 
Q 1616 4238 1336 4038 
Q 1056 3838 1056 3469 
Q 1056 3159 1242 3001 
Q 1428 2844 1947 2747 
L 2328 2669 
Q 3034 2534 3370 2195 
Q 3706 1856 3706 1288 
Q 3706 609 3251 259 
Q 2797 -91 1919 -91 
Q 1588 -91 1214 -16 
Q 841 59 441 206 
L 441 856 
Q 825 641 1194 531 
Q 1563 422 1919 422 
Q 2459 422 2753 634 
Q 3047 847 3047 1241 
Q 3047 1584 2836 1778 
Q 2625 1972 2144 2069 
L 1759 2144 
Q 1053 2284 737 2584 
Q 422 2884 422 3419 
Q 422 4038 858 4394 
Q 1294 4750 2059 4750 
Q 2388 4750 2728 4690 
Q 3069 4631 3425 4513 
z
" transform="scale(0.015625)"/>
        <path id="DejaVuSans-75" d="M 544 1381 
L 544 3500 
L 1119 3500 
L 1119 1403 
Q 1119 906 1312 657 
Q 1506 409 1894 409 
Q 2359 409 2629 706 
Q 2900 1003 2900 1516 
L 2900 3500 
L 3475 3500 
L 3475 0 
L 2900 0 
L 2900 538 
Q 2691 219 2414 64 
Q 2138 -91 1772 -91 
Q 1169 -91 856 284 
Q 544 659 544 1381 
z
M 1991 3584 
L 1991 3584 
z
" transform="scale(0.015625)"/>
       </defs>
       <use xlink:href="#DejaVuSans-53"/>
       <use xlink:href="#DejaVuSans-75" x="63.476562"/>
       <use xlink:href="#DejaVuSans-6e" x="126.855469"/>
      </g>
      <!-- 2022-01-23 -->
      <g transform="translate(389.005054 334.58825) scale(0.1 -0.1)">
       <defs>
        <path id="DejaVuSans-33" d="M 2597 2516 
Q 3050 2419 3304 2112 
Q 3559 1806 3559 1356 
Q 3559 666 3084 287 
Q 2609 -91 1734 -91 
Q 1441 -91 1130 -33 
Q 819 25 488 141 
L 488 750 
Q 750 597 1062 519 
Q 1375 441 1716 441 
Q 2309 441 2620 675 
Q 2931 909 2931 1356 
Q 2931 1769 2642 2001 
Q 2353 2234 1838 2234 
L 1294 2234 
L 1294 2753 
L 1863 2753 
Q 2328 2753 2575 2939 
Q 2822 3125 2822 3475 
Q 2822 3834 2567 4026 
Q 2313 4219 1838 4219 
Q 1578 4219 1281 4162 
Q 984 4106 628 3988 
L 628 4550 
Q 988 4650 1302 4700 
Q 1616 4750 1894 4750 
Q 2613 4750 3031 4423 
Q 3450 4097 3450 3541 
Q 3450 3153 3228 2886 
Q 3006 2619 2597 2516 
z
" transform="scale(0.015625)"/>
       </defs>
       <use xlink:href="#DejaVuSans-32"/>
       <use xlink:href="#DejaVuSans-30" x="63.623047"/>
       <use xlink:href="#DejaVuSans-32" x="127.246094"/>
       <use xlink:href="#DejaVuSans-32" x="190.869141"/>
       <use xlink:href="#DejaVuSans-2d" x="254.492188"/>
       <use xlink:href="#DejaVuSans-30" x="290.576172"/>
       <use xlink:href="#DejaVuSans-31" x="354.199219"/>
       <use xlink:href="#DejaVuSans-2d" x="417.822266"/>
       <use xlink:href="#DejaVuSans-32" x="453.90625"/>
       <use xlink:href="#DejaVuSans-33" x="517.529297"/>
      </g>
      <!-- 19:00 -->
      <g transform="translate(403.653491 345.786063) scale(0.1 -0.1)">
       <use xlink:href="#DejaVuSans-31"/>
       <use xlink:href="#DejaVuSans-39" x="63.623047"/>
       <use xlink:href="#DejaVuSans-3a" x="127.246094"/>
       <use xlink:href="#DejaVuSans-30" x="160.9375"/>
       <use xlink:href="#DejaVuSans-30" x="224.560547"/>
      </g>
     </g>
    </g>
    <g id="xtick_5">
     <g id="line2d_5">
      <g>
       <use xlink:href="#me0eb81b1bd" x="515.686528" y="308.792" style="stroke: #000000; stroke-width: 0.8"/>
      </g>
     </g>
     <g id="text_5">
      <!-- Tue -->
      <g transform="translate(507.143559 323.390438) scale(0.1 -0.1)">
       <defs>
        <path id="DejaVuSans-54" d="M -19 4666 
L 3928 4666 
L 3928 4134 
L 2272 4134 
L 2272 0 
L 1638 0 
L 1638 4134 
L -19 4134 
L -19 4666 
z
" transform="scale(0.015625)"/>
       </defs>
       <use xlink:href="#DejaVuSans-54"/>
       <use xlink:href="#DejaVuSans-75" x="45.958984"/>
       <use xlink:href="#DejaVuSans-65" x="109.337891"/>
      </g>
      <!-- 2022-01-25 -->
      <g transform="translate(486.628715 334.58825) scale(0.1 -0.1)">
       <defs>
        <path id="DejaVuSans-35" d="M 691 4666 
L 3169 4666 
L 3169 4134 
L 1269 4134 
L 1269 2991 
Q 1406 3038 1543 3061 
Q 1681 3084 1819 3084 
Q 2600 3084 3056 2656 
Q 3513 2228 3513 1497 
Q 3513 744 3044 326 
Q 2575 -91 1722 -91 
Q 1428 -91 1123 -41 
Q 819 9 494 109 
L 494 744 
Q 775 591 1075 516 
Q 1375 441 1709 441 
Q 2250 441 2565 725 
Q 2881 1009 2881 1497 
Q 2881 1984 2565 2268 
Q 2250 2553 1709 2553 
Q 1456 2553 1204 2497 
Q 953 2441 691 2322 
L 691 4666 
z
" transform="scale(0.015625)"/>
       </defs>
       <use xlink:href="#DejaVuSans-32"/>
       <use xlink:href="#DejaVuSans-30" x="63.623047"/>
       <use xlink:href="#DejaVuSans-32" x="127.246094"/>
       <use xlink:href="#DejaVuSans-32" x="190.869141"/>
       <use xlink:href="#DejaVuSans-2d" x="254.492188"/>
       <use xlink:href="#DejaVuSans-30" x="290.576172"/>
       <use xlink:href="#DejaVuSans-31" x="354.199219"/>
       <use xlink:href="#DejaVuSans-2d" x="417.822266"/>
       <use xlink:href="#DejaVuSans-32" x="453.90625"/>
       <use xlink:href="#DejaVuSans-35" x="517.529297"/>
      </g>
      <!-- 19:00 -->
      <g transform="translate(501.277153 345.786063) scale(0.1 -0.1)">
       <use xlink:href="#DejaVuSans-31"/>
       <use xlink:href="#DejaVuSans-39" x="63.623047"/>
       <use xlink:href="#DejaVuSans-3a" x="127.246094"/>
       <use xlink:href="#DejaVuSans-30" x="160.9375"/>
       <use xlink:href="#DejaVuSans-30" x="224.560547"/>
      </g>
     </g>
    </g>
    <g id="xtick_6">
     <g id="line2d_6">
      <g>
       <use xlink:href="#me0eb81b1bd" x="613.31019" y="308.792" style="stroke: #000000; stroke-width: 0.8"/>
      </g>
     </g>
     <g id="text_6">
      <!-- Thu -->
      <g transform="translate(603.918783 323.390438) scale(0.1 -0.1)">
       <defs>
        <path id="DejaVuSans-68" d="M 3513 2113 
L 3513 0 
L 2938 0 
L 2938 2094 
Q 2938 2591 2744 2837 
Q 2550 3084 2163 3084 
Q 1697 3084 1428 2787 
Q 1159 2491 1159 1978 
L 1159 0 
L 581 0 
L 581 4863 
L 1159 4863 
L 1159 2956 
Q 1366 3272 1645 3428 
Q 1925 3584 2291 3584 
Q 2894 3584 3203 3211 
Q 3513 2838 3513 2113 
z
" transform="scale(0.015625)"/>
       </defs>
       <use xlink:href="#DejaVuSans-54"/>
       <use xlink:href="#DejaVuSans-68" x="61.083984"/>
       <use xlink:href="#DejaVuSans-75" x="124.462891"/>
      </g>
      <!-- 2022-01-27 -->
      <g transform="translate(584.252377 334.58825) scale(0.1 -0.1)">
       <use xlink:href="#DejaVuSans-32"/>
       <use xlink:href="#DejaVuSans-30" x="63.623047"/>
       <use xlink:href="#DejaVuSans-32" x="127.246094"/>
       <use xlink:href="#DejaVuSans-32" x="190.869141"/>
       <use xlink:href="#DejaVuSans-2d" x="254.492188"/>
       <use xlink:href="#DejaVuSans-30" x="290.576172"/>
       <use xlink:href="#DejaVuSans-31" x="354.199219"/>
       <use xlink:href="#DejaVuSans-2d" x="417.822266"/>
       <use xlink:href="#DejaVuSans-32" x="453.90625"/>
       <use xlink:href="#DejaVuSans-37" x="517.529297"/>
      </g>
      <!-- 19:00 -->
      <g transform="translate(598.900815 345.786063) scale(0.1 -0.1)">
       <use xlink:href="#DejaVuSans-31"/>
       <use xlink:href="#DejaVuSans-39" x="63.623047"/>
       <use xlink:href="#DejaVuSans-3a" x="127.246094"/>
       <use xlink:href="#DejaVuSans-30" x="160.9375"/>
       <use xlink:href="#DejaVuSans-30" x="224.560547"/>
      </g>
     </g>
    </g>
    <g id="xtick_7">
     <g id="line2d_7">
      <g>
       <use xlink:href="#me0eb81b1bd" x="710.933851" y="308.792" style="stroke: #000000; stroke-width: 0.8"/>
      </g>
     </g>
     <g id="text_7">
      <!-- Sat -->
      <g transform="translate(702.735414 323.390438) scale(0.1 -0.1)">
       <defs>
        <path id="DejaVuSans-61" d="M 2194 1759 
Q 1497 1759 1228 1600 
Q 959 1441 959 1056 
Q 959 750 1161 570 
Q 1363 391 1709 391 
Q 2188 391 2477 730 
Q 2766 1069 2766 1631 
L 2766 1759 
L 2194 1759 
z
M 3341 1997 
L 3341 0 
L 2766 0 
L 2766 531 
Q 2569 213 2275 61 
Q 1981 -91 1556 -91 
Q 1019 -91 701 211 
Q 384 513 384 1019 
Q 384 1609 779 1909 
Q 1175 2209 1959 2209 
L 2766 2209 
L 2766 2266 
Q 2766 2663 2505 2880 
Q 2244 3097 1772 3097 
Q 1472 3097 1187 3025 
Q 903 2953 641 2809 
L 641 3341 
Q 956 3463 1253 3523 
Q 1550 3584 1831 3584 
Q 2591 3584 2966 3190 
Q 3341 2797 3341 1997 
z
" transform="scale(0.015625)"/>
        <path id="DejaVuSans-74" d="M 1172 4494 
L 1172 3500 
L 2356 3500 
L 2356 3053 
L 1172 3053 
L 1172 1153 
Q 1172 725 1289 603 
Q 1406 481 1766 481 
L 2356 481 
L 2356 0 
L 1766 0 
Q 1100 0 847 248 
Q 594 497 594 1153 
L 594 3053 
L 172 3053 
L 172 3500 
L 594 3500 
L 594 4494 
L 1172 4494 
z
" transform="scale(0.015625)"/>
       </defs>
       <use xlink:href="#DejaVuSans-53"/>
       <use xlink:href="#DejaVuSans-61" x="63.476562"/>
       <use xlink:href="#DejaVuSans-74" x="124.755859"/>
      </g>
      <!-- 2022-01-29 -->
      <g transform="translate(681.876039 334.58825) scale(0.1 -0.1)">
       <use xlink:href="#DejaVuSans-32"/>
       <use xlink:href="#DejaVuSans-30" x="63.623047"/>
       <use xlink:href="#DejaVuSans-32" x="127.246094"/>
       <use xlink:href="#DejaVuSans-32" x="190.869141"/>
       <use xlink:href="#DejaVuSans-2d" x="254.492188"/>
       <use xlink:href="#DejaVuSans-30" x="290.576172"/>
       <use xlink:href="#DejaVuSans-31" x="354.199219"/>
       <use xlink:href="#DejaVuSans-2d" x="417.822266"/>
       <use xlink:href="#DejaVuSans-32" x="453.90625"/>
       <use xlink:href="#DejaVuSans-39" x="517.529297"/>
      </g>
      <!-- 19:00 -->
      <g transform="translate(696.524476 345.786063) scale(0.1 -0.1)">
       <use xlink:href="#DejaVuSans-31"/>
       <use xlink:href="#DejaVuSans-39" x="63.623047"/>
       <use xlink:href="#DejaVuSans-3a" x="127.246094"/>
       <use xlink:href="#DejaVuSans-30" x="160.9375"/>
       <use xlink:href="#DejaVuSans-30" x="224.560547"/>
      </g>
     </g>
    </g>
    <g id="xtick_8">
     <g id="line2d_8">
      <g>
       <use xlink:href="#me0eb81b1bd" x="808.557513" y="308.792" style="stroke: #000000; stroke-width: 0.8"/>
      </g>
     </g>
     <g id="text_8">
      <!-- Mon -->
      <g transform="translate(798.015326 323.390438) scale(0.1 -0.1)">
       <use xlink:href="#DejaVuSans-4d"/>
       <use xlink:href="#DejaVuSans-6f" x="86.279297"/>
       <use xlink:href="#DejaVuSans-6e" x="147.460938"/>
      </g>
      <!-- 2022-01-31 -->
      <g transform="translate(779.499701 334.58825) scale(0.1 -0.1)">
       <use xlink:href="#DejaVuSans-32"/>
       <use xlink:href="#DejaVuSans-30" x="63.623047"/>
       <use xlink:href="#DejaVuSans-32" x="127.246094"/>
       <use xlink:href="#DejaVuSans-32" x="190.869141"/>
       <use xlink:href="#DejaVuSans-2d" x="254.492188"/>
       <use xlink:href="#DejaVuSans-30" x="290.576172"/>
       <use xlink:href="#DejaVuSans-31" x="354.199219"/>
       <use xlink:href="#DejaVuSans-2d" x="417.822266"/>
       <use xlink:href="#DejaVuSans-33" x="453.90625"/>
       <use xlink:href="#DejaVuSans-31" x="517.529297"/>
      </g>
      <!-- 19:00 -->
      <g transform="translate(794.148138 345.786063) scale(0.1 -0.1)">
       <use xlink:href="#DejaVuSans-31"/>
       <use xlink:href="#DejaVuSans-39" x="63.623047"/>
       <use xlink:href="#DejaVuSans-3a" x="127.246094"/>
       <use xlink:href="#DejaVuSans-30" x="160.9375"/>
       <use xlink:href="#DejaVuSans-30" x="224.560547"/>
      </g>
     </g>
    </g>
   </g>
   <g id="matplotlib.axis_2">
    <g id="ytick_1">
     <g id="line2d_9">
      <path d="M 50.042 307.049938 
L 853.2 307.049938 
" clip-path="url(#p3cb13db6a4)" style="fill: none; stroke-dasharray: 1.85,0.8; stroke-dashoffset: 0; stroke: #d3d3d3; stroke-width: 0.5"/>
     </g>
     <g id="line2d_10">
      <defs>
       <path id="m1e64e75f6b" d="M 0 0 
L -3.5 0 
" style="stroke: #000000; stroke-width: 0.8"/>
      </defs>
      <g>
       <use xlink:href="#m1e64e75f6b" x="50.042" y="307.049938" style="stroke: #000000; stroke-width: 0.8"/>
      </g>
     </g>
     <g id="text_9">
      <!-- 0 -->
      <g transform="translate(36.6795 310.849157) scale(0.1 -0.1)">
       <use xlink:href="#DejaVuSans-30"/>
      </g>
     </g>
    </g>
    <g id="ytick_2">
     <g id="line2d_11">
      <path d="M 50.042 272.208696 
L 853.2 272.208696 
" clip-path="url(#p3cb13db6a4)" style="fill: none; stroke-dasharray: 1.85,0.8; stroke-dashoffset: 0; stroke: #d3d3d3; stroke-width: 0.5"/>
     </g>
     <g id="line2d_12">
      <g>
       <use xlink:href="#m1e64e75f6b" x="50.042" y="272.208696" style="stroke: #000000; stroke-width: 0.8"/>
      </g>
     </g>
     <g id="text_10">
      <!-- 10 -->
      <g transform="translate(30.317 276.007914) scale(0.1 -0.1)">
       <use xlink:href="#DejaVuSans-31"/>
       <use xlink:href="#DejaVuSans-30" x="63.623047"/>
      </g>
     </g>
    </g>
    <g id="ytick_3">
     <g id="line2d_13">
      <path d="M 50.042 237.367453 
L 853.2 237.367453 
" clip-path="url(#p3cb13db6a4)" style="fill: none; stroke-dasharray: 1.85,0.8; stroke-dashoffset: 0; stroke: #d3d3d3; stroke-width: 0.5"/>
     </g>
     <g id="line2d_14">
      <g>
       <use xlink:href="#m1e64e75f6b" x="50.042" y="237.367453" style="stroke: #000000; stroke-width: 0.8"/>
      </g>
     </g>
     <g id="text_11">
      <!-- 20 -->
      <g transform="translate(30.317 241.166672) scale(0.1 -0.1)">
       <use xlink:href="#DejaVuSans-32"/>
       <use xlink:href="#DejaVuSans-30" x="63.623047"/>
      </g>
     </g>
    </g>
    <g id="ytick_4">
     <g id="line2d_15">
      <path d="M 50.042 202.526211 
L 853.2 202.526211 
" clip-path="url(#p3cb13db6a4)" style="fill: none; stroke-dasharray: 1.85,0.8; stroke-dashoffset: 0; stroke: #d3d3d3; stroke-width: 0.5"/>
     </g>
     <g id="line2d_16">
      <g>
       <use xlink:href="#m1e64e75f6b" x="50.042" y="202.526211" style="stroke: #000000; stroke-width: 0.8"/>
      </g>
     </g>
     <g id="text_12">
      <!-- 30 -->
      <g transform="translate(30.317 206.32543) scale(0.1 -0.1)">
       <use xlink:href="#DejaVuSans-33"/>
       <use xlink:href="#DejaVuSans-30" x="63.623047"/>
      </g>
     </g>
    </g>
    <g id="ytick_5">
     <g id="line2d_17">
      <path d="M 50.042 167.684969 
L 853.2 167.684969 
" clip-path="url(#p3cb13db6a4)" style="fill: none; stroke-dasharray: 1.85,0.8; stroke-dashoffset: 0; stroke: #d3d3d3; stroke-width: 0.5"/>
     </g>
     <g id="line2d_18">
      <g>
       <use xlink:href="#m1e64e75f6b" x="50.042" y="167.684969" style="stroke: #000000; stroke-width: 0.8"/>
      </g>
     </g>
     <g id="text_13">
      <!-- 40 -->
      <g transform="translate(30.317 171.484188) scale(0.1 -0.1)">
       <defs>
        <path id="DejaVuSans-34" d="M 2419 4116 
L 825 1625 
L 2419 1625 
L 2419 4116 
z
M 2253 4666 
L 3047 4666 
L 3047 1625 
L 3713 1625 
L 3713 1100 
L 3047 1100 
L 3047 0 
L 2419 0 
L 2419 1100 
L 313 1100 
L 313 1709 
L 2253 4666 
z
" transform="scale(0.015625)"/>
       </defs>
       <use xlink:href="#DejaVuSans-34"/>
       <use xlink:href="#DejaVuSans-30" x="63.623047"/>
      </g>
     </g>
    </g>
    <g id="ytick_6">
     <g id="line2d_19">
      <path d="M 50.042 132.843727 
L 853.2 132.843727 
" clip-path="url(#p3cb13db6a4)" style="fill: none; stroke-dasharray: 1.85,0.8; stroke-dashoffset: 0; stroke: #d3d3d3; stroke-width: 0.5"/>
     </g>
     <g id="line2d_20">
      <g>
       <use xlink:href="#m1e64e75f6b" x="50.042" y="132.843727" style="stroke: #000000; stroke-width: 0.8"/>
      </g>
     </g>
     <g id="text_14">
      <!-- 50 -->
      <g transform="translate(30.317 136.642945) scale(0.1 -0.1)">
       <use xlink:href="#DejaVuSans-35"/>
       <use xlink:href="#DejaVuSans-30" x="63.623047"/>
      </g>
     </g>
    </g>
    <g id="ytick_7">
     <g id="line2d_21">
      <path d="M 50.042 98.002484 
L 853.2 98.002484 
" clip-path="url(#p3cb13db6a4)" style="fill: none; stroke-dasharray: 1.85,0.8; stroke-dashoffset: 0; stroke: #d3d3d3; stroke-width: 0.5"/>
     </g>
     <g id="line2d_22">
      <g>
       <use xlink:href="#m1e64e75f6b" x="50.042" y="98.002484" style="stroke: #000000; stroke-width: 0.8"/>
      </g>
     </g>
     <g id="text_15">
      <!-- 60 -->
      <g transform="translate(30.317 101.801703) scale(0.1 -0.1)">
       <defs>
        <path id="DejaVuSans-36" d="M 2113 2584 
Q 1688 2584 1439 2293 
Q 1191 2003 1191 1497 
Q 1191 994 1439 701 
Q 1688 409 2113 409 
Q 2538 409 2786 701 
Q 3034 994 3034 1497 
Q 3034 2003 2786 2293 
Q 2538 2584 2113 2584 
z
M 3366 4563 
L 3366 3988 
Q 3128 4100 2886 4159 
Q 2644 4219 2406 4219 
Q 1781 4219 1451 3797 
Q 1122 3375 1075 2522 
Q 1259 2794 1537 2939 
Q 1816 3084 2150 3084 
Q 2853 3084 3261 2657 
Q 3669 2231 3669 1497 
Q 3669 778 3244 343 
Q 2819 -91 2113 -91 
Q 1303 -91 875 529 
Q 447 1150 447 2328 
Q 447 3434 972 4092 
Q 1497 4750 2381 4750 
Q 2619 4750 2861 4703 
Q 3103 4656 3366 4563 
z
" transform="scale(0.015625)"/>
       </defs>
       <use xlink:href="#DejaVuSans-36"/>
       <use xlink:href="#DejaVuSans-30" x="63.623047"/>
      </g>
     </g>
    </g>
    <g id="ytick_8">
     <g id="line2d_23">
      <path d="M 50.042 63.161242 
L 853.2 63.161242 
" clip-path="url(#p3cb13db6a4)" style="fill: none; stroke-dasharray: 1.85,0.8; stroke-dashoffset: 0; stroke: #d3d3d3; stroke-width: 0.5"/>
     </g>
     <g id="line2d_24">
      <g>
       <use xlink:href="#m1e64e75f6b" x="50.042" y="63.161242" style="stroke: #000000; stroke-width: 0.8"/>
      </g>
     </g>
     <g id="text_16">
      <!-- 70 -->
      <g transform="translate(30.317 66.960461) scale(0.1 -0.1)">
       <use xlink:href="#DejaVuSans-37"/>
       <use xlink:href="#DejaVuSans-30" x="63.623047"/>
      </g>
     </g>
    </g>
    <g id="ytick_9">
     <g id="line2d_25">
      <path d="M 50.042 28.32 
L 853.2 28.32 
" clip-path="url(#p3cb13db6a4)" style="fill: none; stroke-dasharray: 1.85,0.8; stroke-dashoffset: 0; stroke: #d3d3d3; stroke-width: 0.5"/>
     </g>
     <g id="line2d_26">
      <g>
       <use xlink:href="#m1e64e75f6b" x="50.042" y="28.32" style="stroke: #000000; stroke-width: 0.8"/>
      </g>
     </g>
     <g id="text_17">
      <!-- 80 -->
      <g transform="translate(30.317 32.119219) scale(0.1 -0.1)">
       <defs>
        <path id="DejaVuSans-38" d="M 2034 2216 
Q 1584 2216 1326 1975 
Q 1069 1734 1069 1313 
Q 1069 891 1326 650 
Q 1584 409 2034 409 
Q 2484 409 2743 651 
Q 3003 894 3003 1313 
Q 3003 1734 2745 1975 
Q 2488 2216 2034 2216 
z
M 1403 2484 
Q 997 2584 770 2862 
Q 544 3141 544 3541 
Q 544 4100 942 4425 
Q 1341 4750 2034 4750 
Q 2731 4750 3128 4425 
Q 3525 4100 3525 3541 
Q 3525 3141 3298 2862 
Q 3072 2584 2669 2484 
Q 3125 2378 3379 2068 
Q 3634 1759 3634 1313 
Q 3634 634 3220 271 
Q 2806 -91 2034 -91 
Q 1263 -91 848 271 
Q 434 634 434 1313 
Q 434 1759 690 2068 
Q 947 2378 1403 2484 
z
M 1172 3481 
Q 1172 3119 1398 2916 
Q 1625 2713 2034 2713 
Q 2441 2713 2670 2916 
Q 2900 3119 2900 3481 
Q 2900 3844 2670 4047 
Q 2441 4250 2034 4250 
Q 1625 4250 1398 4047 
Q 1172 3844 1172 3481 
z
" transform="scale(0.015625)"/>
       </defs>
       <use xlink:href="#DejaVuSans-38"/>
       <use xlink:href="#DejaVuSans-30" x="63.623047"/>
      </g>
     </g>
    </g>
    <g id="text_18">
     <!-- Particles density $µg/m^3$ -->
     <g transform="translate(24.217 226.906) rotate(-90) scale(0.1 -0.1)">
      <defs>
       <path id="DejaVuSans-50" d="M 1259 4147 
L 1259 2394 
L 2053 2394 
Q 2494 2394 2734 2622 
Q 2975 2850 2975 3272 
Q 2975 3691 2734 3919 
Q 2494 4147 2053 4147 
L 1259 4147 
z
M 628 4666 
L 2053 4666 
Q 2838 4666 3239 4311 
Q 3641 3956 3641 3272 
Q 3641 2581 3239 2228 
Q 2838 1875 2053 1875 
L 1259 1875 
L 1259 0 
L 628 0 
L 628 4666 
z
" transform="scale(0.015625)"/>
       <path id="DejaVuSans-63" d="M 3122 3366 
L 3122 2828 
Q 2878 2963 2633 3030 
Q 2388 3097 2138 3097 
Q 1578 3097 1268 2742 
Q 959 2388 959 1747 
Q 959 1106 1268 751 
Q 1578 397 2138 397 
Q 2388 397 2633 464 
Q 2878 531 3122 666 
L 3122 134 
Q 2881 22 2623 -34 
Q 2366 -91 2075 -91 
Q 1284 -91 818 406 
Q 353 903 353 1747 
Q 353 2603 823 3093 
Q 1294 3584 2113 3584 
Q 2378 3584 2631 3529 
Q 2884 3475 3122 3366 
z
" transform="scale(0.015625)"/>
       <path id="DejaVuSans-6c" d="M 603 4863 
L 1178 4863 
L 1178 0 
L 603 0 
L 603 4863 
z
" transform="scale(0.015625)"/>
       <path id="DejaVuSans-73" d="M 2834 3397 
L 2834 2853 
Q 2591 2978 2328 3040 
Q 2066 3103 1784 3103 
Q 1356 3103 1142 2972 
Q 928 2841 928 2578 
Q 928 2378 1081 2264 
Q 1234 2150 1697 2047 
L 1894 2003 
Q 2506 1872 2764 1633 
Q 3022 1394 3022 966 
Q 3022 478 2636 193 
Q 2250 -91 1575 -91 
Q 1294 -91 989 -36 
Q 684 19 347 128 
L 347 722 
Q 666 556 975 473 
Q 1284 391 1588 391 
Q 1994 391 2212 530 
Q 2431 669 2431 922 
Q 2431 1156 2273 1281 
Q 2116 1406 1581 1522 
L 1381 1569 
Q 847 1681 609 1914 
Q 372 2147 372 2553 
Q 372 3047 722 3315 
Q 1072 3584 1716 3584 
Q 2034 3584 2315 3537 
Q 2597 3491 2834 3397 
z
" transform="scale(0.015625)"/>
       <path id="DejaVuSans-20" transform="scale(0.015625)"/>
       <path id="DejaVuSans-79" d="M 2059 -325 
Q 1816 -950 1584 -1140 
Q 1353 -1331 966 -1331 
L 506 -1331 
L 506 -850 
L 844 -850 
Q 1081 -850 1212 -737 
Q 1344 -625 1503 -206 
L 1606 56 
L 191 3500 
L 800 3500 
L 1894 763 
L 2988 3500 
L 3597 3500 
L 2059 -325 
z
" transform="scale(0.015625)"/>
       <path id="DejaVuSans-Oblique-b5" d="M -84 -1331 
L 856 3500 
L 1434 3500 
L 1009 1322 
Q 997 1256 987 1175 
Q 978 1094 978 1013 
Q 978 722 1161 565 
Q 1344 409 1684 409 
Q 2147 409 2431 671 
Q 2716 934 2816 1459 
L 3213 3500 
L 3788 3500 
L 3266 809 
Q 3253 750 3248 706 
Q 3244 663 3244 628 
Q 3244 531 3283 486 
Q 3322 441 3406 441 
Q 3438 441 3492 456 
Q 3547 472 3647 513 
L 3559 50 
Q 3422 -19 3297 -55 
Q 3172 -91 3053 -91 
Q 2847 -91 2730 40 
Q 2613 172 2613 403 
Q 2438 153 2195 31 
Q 1953 -91 1625 -91 
Q 1334 -91 1117 43 
Q 900 178 831 397 
L 494 -1331 
L -84 -1331 
z
" transform="scale(0.015625)"/>
       <path id="DejaVuSans-Oblique-67" d="M 3816 3500 
L 3219 434 
Q 3047 -456 2561 -893 
Q 2075 -1331 1253 -1331 
Q 950 -1331 690 -1286 
Q 431 -1241 206 -1147 
L 313 -588 
Q 525 -725 762 -790 
Q 1000 -856 1269 -856 
Q 1816 -856 2167 -557 
Q 2519 -259 2631 300 
L 2681 563 
Q 2441 288 2122 144 
Q 1803 0 1434 0 
Q 903 0 598 351 
Q 294 703 294 1319 
Q 294 1803 478 2267 
Q 663 2731 997 3091 
Q 1219 3328 1514 3456 
Q 1809 3584 2131 3584 
Q 2484 3584 2746 3420 
Q 3009 3256 3138 2956 
L 3238 3500 
L 3816 3500 
z
M 2950 2216 
Q 2950 2641 2750 2872 
Q 2550 3103 2181 3103 
Q 1953 3103 1747 3012 
Q 1541 2922 1394 2759 
Q 1156 2491 1023 2127 
Q 891 1763 891 1375 
Q 891 944 1092 712 
Q 1294 481 1672 481 
Q 2219 481 2584 976 
Q 2950 1472 2950 2216 
z
" transform="scale(0.015625)"/>
       <path id="DejaVuSans-2f" d="M 1625 4666 
L 2156 4666 
L 531 -594 
L 0 -594 
L 1625 4666 
z
" transform="scale(0.015625)"/>
       <path id="DejaVuSans-Oblique-6d" d="M 5747 2113 
L 5338 0 
L 4763 0 
L 5166 2094 
Q 5191 2228 5203 2325 
Q 5216 2422 5216 2491 
Q 5216 2772 5059 2928 
Q 4903 3084 4622 3084 
Q 4203 3084 3875 2770 
Q 3547 2456 3450 1953 
L 3066 0 
L 2491 0 
L 2900 2094 
Q 2925 2209 2937 2307 
Q 2950 2406 2950 2484 
Q 2950 2769 2794 2926 
Q 2638 3084 2363 3084 
Q 1938 3084 1609 2770 
Q 1281 2456 1184 1953 
L 800 0 
L 225 0 
L 909 3500 
L 1484 3500 
L 1375 2956 
Q 1609 3263 1923 3423 
Q 2238 3584 2597 3584 
Q 2978 3584 3223 3384 
Q 3469 3184 3519 2828 
Q 3781 3197 4126 3390 
Q 4472 3584 4856 3584 
Q 5306 3584 5551 3325 
Q 5797 3066 5797 2591 
Q 5797 2488 5784 2364 
Q 5772 2241 5747 2113 
z
" transform="scale(0.015625)"/>
      </defs>
      <use xlink:href="#DejaVuSans-50" transform="translate(0 0.765625)"/>
      <use xlink:href="#DejaVuSans-61" transform="translate(60.302734 0.765625)"/>
      <use xlink:href="#DejaVuSans-72" transform="translate(121.582031 0.765625)"/>
      <use xlink:href="#DejaVuSans-74" transform="translate(162.695312 0.765625)"/>
      <use xlink:href="#DejaVuSans-69" transform="translate(201.904297 0.765625)"/>
      <use xlink:href="#DejaVuSans-63" transform="translate(229.6875 0.765625)"/>
      <use xlink:href="#DejaVuSans-6c" transform="translate(284.667969 0.765625)"/>
      <use xlink:href="#DejaVuSans-65" transform="translate(312.451172 0.765625)"/>
      <use xlink:href="#DejaVuSans-73" transform="translate(373.974609 0.765625)"/>
      <use xlink:href="#DejaVuSans-20" transform="translate(426.074219 0.765625)"/>
      <use xlink:href="#DejaVuSans-64" transform="translate(457.861328 0.765625)"/>
      <use xlink:href="#DejaVuSans-65" transform="translate(521.337891 0.765625)"/>
      <use xlink:href="#DejaVuSans-6e" transform="translate(582.861328 0.765625)"/>
      <use xlink:href="#DejaVuSans-73" transform="translate(646.240234 0.765625)"/>
      <use xlink:href="#DejaVuSans-69" transform="translate(698.339844 0.765625)"/>
      <use xlink:href="#DejaVuSans-74" transform="translate(726.123047 0.765625)"/>
      <use xlink:href="#DejaVuSans-79" transform="translate(765.332031 0.765625)"/>
      <use xlink:href="#DejaVuSans-20" transform="translate(824.511719 0.765625)"/>
      <use xlink:href="#DejaVuSans-Oblique-b5" transform="translate(856.298828 0.765625)"/>
      <use xlink:href="#DejaVuSans-Oblique-67" transform="translate(919.921875 0.765625)"/>
      <use xlink:href="#DejaVuSans-2f" transform="translate(983.398438 0.765625)"/>
      <use xlink:href="#DejaVuSans-Oblique-6d" transform="translate(1017.089844 0.765625)"/>
      <use xlink:href="#DejaVuSans-33" transform="translate(1119.151849 39.046875) scale(0.7)"/>
     </g>
    </g>
   </g>
   <g id="line2d_27">
    <path d="M 86.549182 296.597565 
L 88.583008 282.661068 
L 90.616834 282.661068 
L 92.650661 289.629317 
L 94.684487 293.113441 
L 96.718313 282.661068 
L 98.75214 279.176944 
L 100.785966 261.756323 
L 102.819792 258.272199 
L 104.853618 258.272199 
L 106.887445 268.724571 
L 108.921271 275.69282 
L 110.955097 275.69282 
L 115.02275 282.661068 
L 117.056576 282.661068 
L 119.090402 272.208696 
L 121.124229 272.208696 
L 123.158055 254.788075 
L 125.191881 272.208696 
L 127.225708 286.145193 
L 129.259534 296.597565 
L 133.327186 296.597565 
L 135.361013 300.081689 
L 137.394839 286.145193 
L 139.428665 286.145193 
L 141.462492 289.629317 
L 145.530144 289.629317 
L 147.56397 261.756323 
L 149.597797 261.756323 
L 151.631623 258.272199 
L 153.665449 268.724571 
L 155.699276 275.69282 
L 157.733102 279.176944 
L 159.766928 272.208696 
L 161.800754 275.69282 
L 163.834581 268.724571 
L 165.868407 268.724571 
L 169.93606 275.69282 
L 171.969886 272.208696 
L 174.003712 244.335702 
L 178.071365 230.399205 
L 180.105191 226.915081 
L 184.172844 261.756323 
L 186.20667 265.240447 
L 188.240496 247.819826 
L 190.274322 265.240447 
L 194.341975 272.208696 
L 196.375801 268.724571 
L 200.443454 212.978584 
L 202.47728 202.526211 
L 204.511106 233.883329 
L 206.544933 254.788075 
L 208.578759 268.724571 
L 210.612585 265.240447 
L 212.646411 272.208696 
L 214.680238 275.69282 
L 216.714064 272.208696 
L 218.74789 258.272199 
L 220.781717 261.756323 
L 222.815543 226.915081 
L 224.849369 226.915081 
L 226.883195 258.272199 
L 228.917022 240.851578 
L 230.950848 244.335702 
L 232.984674 240.851578 
L 235.018501 254.788075 
L 237.052327 251.30395 
L 239.086153 244.335702 
L 243.153806 251.30395 
L 245.187632 261.756323 
L 247.221458 230.399205 
L 249.255285 226.915081 
L 253.322937 247.819826 
L 257.39059 261.756323 
L 259.424416 265.240447 
L 261.458242 265.240447 
L 263.492069 261.756323 
L 265.525895 251.30395 
L 267.559721 265.240447 
L 269.593547 258.272199 
L 271.627374 247.819826 
L 273.6612 216.462708 
L 275.695026 230.399205 
L 277.728853 240.851578 
L 279.762679 247.819826 
L 281.796505 258.272199 
L 283.830331 254.788075 
L 285.864158 261.756323 
L 287.897984 261.756323 
L 289.93181 254.788075 
L 291.965637 268.724571 
L 293.999463 289.629317 
L 296.033289 275.69282 
L 298.067115 265.240447 
L 300.100942 279.176944 
L 302.134768 279.176944 
L 304.168594 282.661068 
L 306.202421 244.335702 
L 308.236247 209.49446 
L 310.270073 247.819826 
L 312.303899 265.240447 
L 314.337726 257.735055 
L 316.371552 279.176944 
L 318.405378 272.208696 
L 320.439205 282.661068 
L 326.540683 293.113441 
L 328.57451 293.113441 
L 330.608336 261.756323 
L 332.642162 286.145193 
L 334.675989 289.629317 
L 336.709815 300.081689 
L 338.743641 300.081689 
L 340.777467 293.113441 
L 342.811294 303.565814 
L 344.84512 296.597565 
L 346.878946 296.597565 
L 348.912773 293.113441 
L 350.946599 282.661068 
L 352.980425 275.69282 
L 355.014251 282.661068 
L 357.048078 296.597565 
L 359.081904 286.145193 
L 361.11573 282.661068 
L 363.149557 286.145193 
L 365.183383 279.176944 
L 367.217209 275.69282 
L 371.284862 275.69282 
L 373.318688 254.788075 
L 375.352514 251.30395 
L 377.386341 265.240447 
L 379.420167 254.788075 
L 383.487819 261.756323 
L 385.521646 272.208696 
L 387.555472 275.69282 
L 389.589298 268.724571 
L 393.656951 275.69282 
L 395.690777 261.756323 
L 397.724603 258.272199 
L 399.75843 268.724571 
L 401.792256 272.208696 
L 403.826082 272.208696 
L 405.859909 282.661068 
L 407.893735 282.661068 
L 409.927561 275.69282 
L 411.961387 275.69282 
L 413.995214 265.240447 
L 416.02904 265.240447 
L 418.062866 268.724571 
L 420.096693 275.69282 
L 422.130519 279.176944 
L 424.164345 261.756323 
L 428.231998 268.724571 
L 432.29965 282.661068 
L 434.333477 272.208696 
L 436.367303 279.176944 
L 442.468782 258.272199 
L 444.502608 258.272199 
L 446.536434 265.240447 
L 448.570261 268.724571 
L 450.604087 286.145193 
L 452.637913 286.145193 
L 454.671739 261.756323 
L 456.705566 230.399205 
L 458.739392 237.367453 
L 462.807045 265.240447 
L 464.840871 275.69282 
L 468.908523 282.661068 
L 470.94235 279.176944 
L 472.976176 286.145193 
L 475.010002 286.145193 
L 477.043829 275.69282 
L 479.077655 282.661068 
L 483.145307 289.629317 
L 485.179134 289.629317 
L 487.21296 279.176944 
L 489.246786 279.176944 
L 491.280613 265.240447 
L 493.314439 254.788075 
L 495.348265 247.819826 
L 497.382091 258.272199 
L 499.415918 279.176944 
L 501.449744 282.661068 
L 503.48357 279.176944 
L 505.517397 279.176944 
L 509.585049 272.208696 
L 511.618875 272.208696 
L 513.652702 279.176944 
L 515.686528 282.661068 
L 519.754181 268.724571 
L 521.788007 254.788075 
L 523.821833 254.788075 
L 525.855659 265.240447 
L 527.889486 265.240447 
L 529.923312 275.69282 
L 531.957138 289.629317 
L 533.990965 289.629317 
L 536.024791 286.145193 
L 540.092443 237.367453 
L 542.12627 240.851578 
L 544.160096 247.819826 
L 546.193922 261.756323 
L 548.227749 265.240447 
L 550.261575 275.69282 
L 552.295401 272.208696 
L 554.329227 254.788075 
L 556.363054 212.978584 
L 558.39688 216.462708 
L 562.464533 237.367453 
L 564.498359 254.788075 
L 566.532185 258.272199 
L 568.566011 265.240447 
L 570.599838 240.851578 
L 572.633664 258.272199 
L 574.66749 265.240447 
L 576.701317 265.240447 
L 578.735143 268.724571 
L 580.768969 286.145193 
L 582.802795 279.176944 
L 584.836622 265.240447 
L 586.870448 247.819826 
L 590.938101 233.883329 
L 592.971927 251.30395 
L 595.005753 265.240447 
L 597.039579 272.208696 
L 599.073406 268.724571 
L 601.107232 272.208696 
L 603.141058 272.208696 
L 605.174885 279.176944 
L 609.242537 237.367453 
L 611.276363 254.788075 
L 613.31019 254.788075 
L 615.344016 258.272199 
L 617.377842 251.30395 
L 619.411669 233.883329 
L 623.479321 247.819826 
L 625.513147 258.272199 
L 627.546974 247.819826 
L 629.5808 247.819826 
L 631.614626 265.240447 
L 633.648453 254.788075 
L 635.682279 237.367453 
L 637.716105 206.010335 
L 639.749931 202.526211 
L 641.783758 223.430957 
L 643.817584 240.851578 
L 645.85141 251.30395 
L 647.885237 247.819826 
L 649.919063 247.819826 
L 653.986715 261.756323 
L 656.020542 258.272199 
L 658.054368 248.54495 
L 660.088194 248.54495 
L 662.122021 202.526211 
L 664.155847 251.30395 
L 666.189673 272.208696 
L 668.223499 239.093899 
L 670.257326 253.209995 
L 672.291152 262.14858 
L 674.324978 275.846781 
L 676.358805 280.637565 
L 678.392631 279.176944 
L 680.426457 286.145193 
L 682.460283 286.145193 
L 684.49411 282.661068 
L 686.527936 272.208696 
L 690.595589 258.272199 
L 692.629415 265.240447 
L 694.663241 247.819826 
L 696.697067 237.367453 
L 698.730894 237.367453 
L 700.76472 247.819826 
L 702.798546 251.30395 
L 704.832372 237.367453 
L 706.866199 199.042087 
L 708.900025 254.788075 
L 710.933851 233.883329 
L 712.967678 251.30395 
L 715.001504 261.756323 
L 719.069156 247.819826 
L 721.102983 254.788075 
L 725.170635 247.819826 
L 727.204462 237.367453 
L 729.238288 244.335702 
L 731.272114 237.367453 
L 733.30594 233.883329 
L 735.339767 247.819826 
L 737.373593 216.462708 
L 739.407419 226.915081 
L 741.441246 244.335702 
L 743.475072 275.69282 
L 745.508898 279.176944 
L 749.576551 279.176944 
L 751.610377 282.661068 
L 755.67803 282.661068 
L 757.711856 251.30395 
L 759.745682 258.272199 
L 761.779508 268.724571 
L 763.813335 265.240447 
L 765.847161 254.788075 
L 767.880987 251.30395 
L 769.914814 268.724571 
L 771.94864 282.661068 
L 773.982466 275.69282 
L 776.016292 286.145193 
L 778.050119 286.145193 
L 780.083945 279.176944 
L 782.117771 254.788075 
L 784.151598 223.430957 
L 786.185424 240.851578 
L 788.21925 265.240447 
L 790.253076 279.176944 
L 792.286903 275.69282 
L 798.388382 275.69282 
L 800.422208 268.724571 
L 802.456034 272.208696 
L 804.48986 268.724571 
L 810.591339 279.176944 
L 812.625166 275.69282 
L 814.658992 275.69282 
L 816.692818 279.176944 
L 816.692818 279.176944 
" clip-path="url(#p3cb13db6a4)" style="fill: none; stroke: #000000; stroke-opacity: 0.7; stroke-width: 1.5; stroke-linecap: square"/>
   </g>
   <g id="line2d_28">
    <path d="M 574.66749 278.449687 
L 576.701317 276.612994 
L 578.735143 277.083258 
L 580.768969 280.351439 
L 582.802795 278.808248 
L 584.836622 274.300826 
L 586.870448 265.476938 
L 588.904274 256.418919 
L 590.938101 253.779609 
L 592.971927 260.461805 
L 595.005753 265.270139 
L 597.039579 273.435424 
L 599.073406 272.213294 
L 601.107232 272.364245 
L 603.141058 271.761743 
L 605.174885 270.666096 
L 607.208711 268.386847 
L 609.242537 268.150987 
L 611.276363 267.803527 
L 613.31019 269.68933 
L 615.344016 270.612946 
L 617.377842 269.733117 
L 619.411669 270.033338 
L 621.445495 274.73078 
L 623.479321 275.935761 
L 625.513147 275.955218 
L 627.546974 275.181965 
L 629.5808 277.224245 
L 631.614626 278.019674 
L 633.648453 272.574477 
L 635.682279 263.455608 
L 637.716105 253.068295 
L 639.749931 255.226939 
L 641.783758 258.578879 
L 643.817584 263.919679 
L 645.85141 267.975916 
L 647.885237 271.925105 
L 649.919063 274.874437 
L 651.952889 274.879897 
L 653.986715 269.376934 
L 656.020542 266.84871 
L 658.054368 266.682531 
L 660.088194 267.078024 
L 662.122021 267.0085 
L 664.155847 269.503862 
L 666.189673 271.456771 
L 668.223499 271.174227 
L 670.257326 273.226083 
L 672.291152 276.632113 
L 674.324978 280.177938 
L 676.358805 282.085467 
L 678.392631 283.354753 
L 680.426457 280.868963 
L 682.460283 278.120924 
L 684.49411 269.954908 
L 686.527936 264.207919 
L 688.561762 261.706303 
L 690.595589 265.779522 
L 692.629415 268.453135 
L 694.663241 272.954008 
L 696.697067 274.232784 
L 698.730894 276.287474 
L 700.76472 275.284278 
L 702.798546 275.054306 
L 704.832372 271.434376 
L 706.866199 267.419141 
L 708.900025 267.818589 
L 710.933851 269.873066 
L 712.967678 273.484208 
L 715.001504 276.127086 
L 717.03533 274.332412 
L 719.069156 277.445508 
L 721.102983 279.658034 
L 723.136809 278.88493 
L 725.170635 278.988659 
L 727.204462 279.373453 
L 729.238288 278.821287 
L 731.272114 276.248791 
L 733.30594 269.513372 
L 735.339767 264.497643 
L 737.373593 266.758811 
L 739.407419 270.233013 
L 741.441246 270.875315 
L 743.475072 274.543235 
L 745.508898 275.368748 
L 747.542724 276.164703 
L 749.576551 278.313316 
L 751.610377 277.180043 
L 753.644203 274.47616 
L 755.67803 271.638637 
L 757.711856 269.46085 
L 759.745682 271.37786 
L 761.779508 275.117032 
L 763.813335 276.960318 
L 765.847161 275.580984 
L 767.880987 279.800433 
L 769.914814 280.671668 
L 771.94864 283.193431 
L 773.982466 283.070643 
L 776.016292 283.128017 
L 778.050119 280.565464 
L 780.083945 276.899761 
L 782.117771 272.93052 
L 784.151598 270.780574 
L 786.185424 267.516444 
L 788.21925 269.096769 
L 790.253076 272.296027 
L 792.286903 273.835818 
L 794.320729 274.091595 
L 796.354555 275.384977 
L 798.388382 275.000498 
L 800.422208 273.717921 
L 802.456034 269.539425 
L 804.48986 270.318812 
L 806.523687 271.860003 
L 808.557513 272.202462 
L 810.591339 272.956354 
L 812.625166 275.486007 
L 814.658992 274.421584 
L 816.692818 275.435136 
" clip-path="url(#p3cb13db6a4)" style="fill: none; stroke-dasharray: 5.55,2.4; stroke-dashoffset: 0; stroke: #8b0000; stroke-opacity: 0.7; stroke-width: 1.5"/>
   </g>
   <g id="patch_3">
    <path d="M 50.042 308.792 
L 50.042 28.32 
" style="fill: none; stroke: #000000; stroke-width: 0.8; stroke-linejoin: miter; stroke-linecap: square"/>
   </g>
   <g id="patch_4">
    <path d="M 50.042 308.792 
L 853.2 308.792 
" style="fill: none; stroke: #000000; stroke-width: 0.8; stroke-linejoin: miter; stroke-linecap: square"/>
   </g>
   <g id="text_19">
    <!-- MER 120hrs forecasting. $RMSE:$6.386658 -->
    <g transform="translate(326.341 22.32) scale(0.12 -0.12)">
     <defs>
      <path id="DejaVuSans-45" d="M 628 4666 
L 3578 4666 
L 3578 4134 
L 1259 4134 
L 1259 2753 
L 3481 2753 
L 3481 2222 
L 1259 2222 
L 1259 531 
L 3634 531 
L 3634 0 
L 628 0 
L 628 4666 
z
" transform="scale(0.015625)"/>
      <path id="DejaVuSans-52" d="M 2841 2188 
Q 3044 2119 3236 1894 
Q 3428 1669 3622 1275 
L 4263 0 
L 3584 0 
L 2988 1197 
Q 2756 1666 2539 1819 
Q 2322 1972 1947 1972 
L 1259 1972 
L 1259 0 
L 628 0 
L 628 4666 
L 2053 4666 
Q 2853 4666 3247 4331 
Q 3641 3997 3641 3322 
Q 3641 2881 3436 2590 
Q 3231 2300 2841 2188 
z
M 1259 4147 
L 1259 2491 
L 2053 2491 
Q 2509 2491 2742 2702 
Q 2975 2913 2975 3322 
Q 2975 3731 2742 3939 
Q 2509 4147 2053 4147 
L 1259 4147 
z
" transform="scale(0.015625)"/>
      <path id="DejaVuSans-66" d="M 2375 4863 
L 2375 4384 
L 1825 4384 
Q 1516 4384 1395 4259 
Q 1275 4134 1275 3809 
L 1275 3500 
L 2222 3500 
L 2222 3053 
L 1275 3053 
L 1275 0 
L 697 0 
L 697 3053 
L 147 3053 
L 147 3500 
L 697 3500 
L 697 3744 
Q 697 4328 969 4595 
Q 1241 4863 1831 4863 
L 2375 4863 
z
" transform="scale(0.015625)"/>
      <path id="DejaVuSans-67" d="M 2906 1791 
Q 2906 2416 2648 2759 
Q 2391 3103 1925 3103 
Q 1463 3103 1205 2759 
Q 947 2416 947 1791 
Q 947 1169 1205 825 
Q 1463 481 1925 481 
Q 2391 481 2648 825 
Q 2906 1169 2906 1791 
z
M 3481 434 
Q 3481 -459 3084 -895 
Q 2688 -1331 1869 -1331 
Q 1566 -1331 1297 -1286 
Q 1028 -1241 775 -1147 
L 775 -588 
Q 1028 -725 1275 -790 
Q 1522 -856 1778 -856 
Q 2344 -856 2625 -561 
Q 2906 -266 2906 331 
L 2906 616 
Q 2728 306 2450 153 
Q 2172 0 1784 0 
Q 1141 0 747 490 
Q 353 981 353 1791 
Q 353 2603 747 3093 
Q 1141 3584 1784 3584 
Q 2172 3584 2450 3431 
Q 2728 3278 2906 2969 
L 2906 3500 
L 3481 3500 
L 3481 434 
z
" transform="scale(0.015625)"/>
      <path id="DejaVuSans-2e" d="M 684 794 
L 1344 794 
L 1344 0 
L 684 0 
L 684 794 
z
" transform="scale(0.015625)"/>
      <path id="DejaVuSans-Oblique-52" d="M 1613 4147 
L 1294 2491 
L 2106 2491 
Q 2584 2491 2879 2755 
Q 3175 3019 3175 3444 
Q 3175 3784 2976 3965 
Q 2778 4147 2406 4147 
L 1613 4147 
z
M 2772 2241 
Q 2972 2194 3105 2009 
Q 3238 1825 3413 1275 
L 3809 0 
L 3144 0 
L 2778 1197 
Q 2638 1659 2453 1815 
Q 2269 1972 1888 1972 
L 1191 1972 
L 806 0 
L 172 0 
L 1081 4666 
L 2503 4666 
Q 3150 4666 3495 4373 
Q 3841 4081 3841 3531 
Q 3841 3044 3547 2687 
Q 3253 2331 2772 2241 
z
" transform="scale(0.015625)"/>
      <path id="DejaVuSans-Oblique-4d" d="M 1081 4666 
L 2028 4666 
L 2572 1522 
L 4378 4666 
L 5350 4666 
L 4441 0 
L 3828 0 
L 4622 4091 
L 2791 897 
L 2175 897 
L 1581 4103 
L 788 0 
L 172 0 
L 1081 4666 
z
" transform="scale(0.015625)"/>
      <path id="DejaVuSans-Oblique-53" d="M 3859 4513 
L 3738 3897 
Q 3422 4066 3111 4152 
Q 2800 4238 2509 4238 
Q 1944 4238 1609 3991 
Q 1275 3744 1275 3334 
Q 1275 3109 1398 2989 
Q 1522 2869 2034 2731 
L 2413 2638 
Q 3053 2472 3303 2217 
Q 3553 1963 3553 1503 
Q 3553 797 2998 353 
Q 2444 -91 1538 -91 
Q 1166 -91 791 -17 
Q 416 56 38 206 
L 166 856 
Q 513 641 861 531 
Q 1209 422 1556 422 
Q 2147 422 2503 684 
Q 2859 947 2859 1369 
Q 2859 1650 2717 1795 
Q 2575 1941 2106 2059 
L 1728 2156 
Q 1081 2325 845 2545 
Q 609 2766 609 3163 
Q 609 3859 1145 4304 
Q 1681 4750 2541 4750 
Q 2875 4750 3203 4690 
Q 3531 4631 3859 4513 
z
" transform="scale(0.015625)"/>
      <path id="DejaVuSans-Oblique-45" d="M 1081 4666 
L 4031 4666 
L 3928 4134 
L 1606 4134 
L 1338 2753 
L 3566 2753 
L 3463 2222 
L 1234 2222 
L 909 531 
L 3284 531 
L 3181 0 
L 172 0 
L 1081 4666 
z
" transform="scale(0.015625)"/>
     </defs>
     <use xlink:href="#DejaVuSans-4d" transform="translate(0 0.015625)"/>
     <use xlink:href="#DejaVuSans-45" transform="translate(86.279297 0.015625)"/>
     <use xlink:href="#DejaVuSans-52" transform="translate(149.462891 0.015625)"/>
     <use xlink:href="#DejaVuSans-20" transform="translate(218.945312 0.015625)"/>
     <use xlink:href="#DejaVuSans-31" transform="translate(250.732422 0.015625)"/>
     <use xlink:href="#DejaVuSans-32" transform="translate(314.355469 0.015625)"/>
     <use xlink:href="#DejaVuSans-30" transform="translate(377.978516 0.015625)"/>
     <use xlink:href="#DejaVuSans-68" transform="translate(441.601562 0.015625)"/>
     <use xlink:href="#DejaVuSans-72" transform="translate(504.980469 0.015625)"/>
     <use xlink:href="#DejaVuSans-73" transform="translate(546.09375 0.015625)"/>
     <use xlink:href="#DejaVuSans-20" transform="translate(598.193359 0.015625)"/>
     <use xlink:href="#DejaVuSans-66" transform="translate(629.980469 0.015625)"/>
     <use xlink:href="#DejaVuSans-6f" transform="translate(665.185547 0.015625)"/>
     <use xlink:href="#DejaVuSans-72" transform="translate(726.367188 0.015625)"/>
     <use xlink:href="#DejaVuSans-65" transform="translate(767.480469 0.015625)"/>
     <use xlink:href="#DejaVuSans-63" transform="translate(829.003906 0.015625)"/>
     <use xlink:href="#DejaVuSans-61" transform="translate(883.984375 0.015625)"/>
     <use xlink:href="#DejaVuSans-73" transform="translate(945.263672 0.015625)"/>
     <use xlink:href="#DejaVuSans-74" transform="translate(997.363281 0.015625)"/>
     <use xlink:href="#DejaVuSans-69" transform="translate(1036.572266 0.015625)"/>
     <use xlink:href="#DejaVuSans-6e" transform="translate(1064.355469 0.015625)"/>
     <use xlink:href="#DejaVuSans-67" transform="translate(1127.734375 0.015625)"/>
     <use xlink:href="#DejaVuSans-2e" transform="translate(1191.210938 0.015625)"/>
     <use xlink:href="#DejaVuSans-20" transform="translate(1222.998047 0.015625)"/>
     <use xlink:href="#DejaVuSans-Oblique-52" transform="translate(1254.785156 0.015625)"/>
     <use xlink:href="#DejaVuSans-Oblique-4d" transform="translate(1324.267578 0.015625)"/>
     <use xlink:href="#DejaVuSans-Oblique-53" transform="translate(1410.546875 0.015625)"/>
     <use xlink:href="#DejaVuSans-Oblique-45" transform="translate(1474.023438 0.015625)"/>
     <use xlink:href="#DejaVuSans-3a" transform="translate(1556.689453 0.015625)"/>
     <use xlink:href="#DejaVuSans-36" transform="translate(1609.863281 0.015625)"/>
     <use xlink:href="#DejaVuSans-2e" transform="translate(1673.486328 0.015625)"/>
     <use xlink:href="#DejaVuSans-33" transform="translate(1705.273438 0.015625)"/>
     <use xlink:href="#DejaVuSans-38" transform="translate(1768.896484 0.015625)"/>
     <use xlink:href="#DejaVuSans-36" transform="translate(1832.519531 0.015625)"/>
     <use xlink:href="#DejaVuSans-36" transform="translate(1896.142578 0.015625)"/>
     <use xlink:href="#DejaVuSans-35" transform="translate(1959.765625 0.015625)"/>
     <use xlink:href="#DejaVuSans-38" transform="translate(2023.388672 0.015625)"/>
    </g>
   </g>
   <g id="legend_1">
    <g id="patch_5">
     <path d="M 766.765625 80.354375 
L 846.2 80.354375 
Q 848.2 80.354375 848.2 78.354375 
L 848.2 35.32 
Q 848.2 33.32 846.2 33.32 
L 766.765625 33.32 
Q 764.765625 33.32 764.765625 35.32 
L 764.765625 78.354375 
Q 764.765625 80.354375 766.765625 80.354375 
z
" style="fill: #ffffff; opacity: 0.8; stroke: #cccccc; stroke-linejoin: miter"/>
    </g>
    <g id="line2d_29">
     <path d="M 768.765625 41.418437 
L 778.765625 41.418437 
L 788.765625 41.418437 
" style="fill: none; stroke: #000000; stroke-opacity: 0.7; stroke-width: 1.5; stroke-linecap: square"/>
    </g>
    <g id="text_20">
     <!-- actual -->
     <g transform="translate(796.765625 44.918437) scale(0.1 -0.1)">
      <use xlink:href="#DejaVuSans-61"/>
      <use xlink:href="#DejaVuSans-63" x="61.279297"/>
      <use xlink:href="#DejaVuSans-74" x="116.259766"/>
      <use xlink:href="#DejaVuSans-75" x="155.46875"/>
      <use xlink:href="#DejaVuSans-61" x="218.847656"/>
      <use xlink:href="#DejaVuSans-6c" x="280.126953"/>
     </g>
    </g>
    <g id="line2d_30">
     <path d="M 768.765625 56.096563 
L 778.765625 56.096563 
L 788.765625 56.096563 
" style="fill: none; stroke-dasharray: 5.55,2.4; stroke-dashoffset: 0; stroke: #8b0000; stroke-opacity: 0.7; stroke-width: 1.5"/>
    </g>
    <g id="text_21">
     <!-- predicted -->
     <g transform="translate(796.765625 59.596563) scale(0.1 -0.1)">
      <defs>
       <path id="DejaVuSans-70" d="M 1159 525 
L 1159 -1331 
L 581 -1331 
L 581 3500 
L 1159 3500 
L 1159 2969 
Q 1341 3281 1617 3432 
Q 1894 3584 2278 3584 
Q 2916 3584 3314 3078 
Q 3713 2572 3713 1747 
Q 3713 922 3314 415 
Q 2916 -91 2278 -91 
Q 1894 -91 1617 61 
Q 1341 213 1159 525 
z
M 3116 1747 
Q 3116 2381 2855 2742 
Q 2594 3103 2138 3103 
Q 1681 3103 1420 2742 
Q 1159 2381 1159 1747 
Q 1159 1113 1420 752 
Q 1681 391 2138 391 
Q 2594 391 2855 752 
Q 3116 1113 3116 1747 
z
" transform="scale(0.015625)"/>
      </defs>
      <use xlink:href="#DejaVuSans-70"/>
      <use xlink:href="#DejaVuSans-72" x="63.476562"/>
      <use xlink:href="#DejaVuSans-65" x="102.339844"/>
      <use xlink:href="#DejaVuSans-64" x="163.863281"/>
      <use xlink:href="#DejaVuSans-69" x="227.339844"/>
      <use xlink:href="#DejaVuSans-63" x="255.123047"/>
      <use xlink:href="#DejaVuSans-74" x="310.103516"/>
      <use xlink:href="#DejaVuSans-65" x="349.3125"/>
      <use xlink:href="#DejaVuSans-64" x="410.835938"/>
     </g>
    </g>
    <g id="patch_6">
     <path d="M 768.765625 74.274687 
L 788.765625 74.274687 
L 788.765625 67.274687 
L 768.765625 67.274687 
z
" style="fill: #8b0000; fill-opacity: 0.3; stroke: #8b0000; stroke-opacity: 0.3; stroke-linejoin: miter"/>
    </g>
    <g id="text_22">
     <!-- +/- 1-std -->
     <g transform="translate(796.765625 74.274687) scale(0.1 -0.1)">
      <defs>
       <path id="DejaVuSans-2b" d="M 2944 4013 
L 2944 2272 
L 4684 2272 
L 4684 1741 
L 2944 1741 
L 2944 0 
L 2419 0 
L 2419 1741 
L 678 1741 
L 678 2272 
L 2419 2272 
L 2419 4013 
L 2944 4013 
z
" transform="scale(0.015625)"/>
      </defs>
      <use xlink:href="#DejaVuSans-2b"/>
      <use xlink:href="#DejaVuSans-2f" x="83.789062"/>
      <use xlink:href="#DejaVuSans-2d" x="117.480469"/>
      <use xlink:href="#DejaVuSans-20" x="153.564453"/>
      <use xlink:href="#DejaVuSans-31" x="185.351562"/>
      <use xlink:href="#DejaVuSans-2d" x="248.974609"/>
      <use xlink:href="#DejaVuSans-73" x="285.058594"/>
      <use xlink:href="#DejaVuSans-74" x="337.158203"/>
      <use xlink:href="#DejaVuSans-64" x="376.367188"/>
     </g>
    </g>
   </g>
  </g>
 </g>
 <defs>
  <clipPath id="p3cb13db6a4">
   <rect x="50.042" y="28.32" width="803.158" height="280.472"/>
  </clipPath>
 </defs>
</svg>
